<?xml version="1.0" standalone="no"?>
<!DOCTYPE svg PUBLIC "-//W3C//DTD SVG 1.1//EN" "http://www.w3.org/Graphics/SVG/1.1/DTD/svg11.dtd" >
<svg xmlns="http://www.w3.org/2000/svg" xmlns:xlink="http://www.w3.org/1999/xlink" version="1.1">
<metadata>
Created by FontForge 20170731 at Thu Nov 15 20:16:25 2018
 By Aleksey,,,
Copyright (c) 2014 by Rene' Bieder. All rights reserved.
</metadata>
<defs>
<font id="GalanoGrotesqueAlt-ExtraLight" horiz-adv-x="610" >
  <font-face 
    font-family="GalanoGrotesqueAlt-ExtraLight"
    font-weight="400"
    font-stretch="normal"
    units-per-em="1000"
    panose-1="0 0 3 0 0 0 0 0 0 0"
    ascent="800"
    descent="-200"
    x-height="488"
    cap-height="670"
    bbox="-171 -250 1182 986"
    underline-thickness="50"
    underline-position="-150"
    unicode-range="U+0020-FB02"
  />
<missing-glyph horiz-adv-x="808" 
d="M404 683q145 0 246 -99.5t101 -250.5q0 -150 -101 -249t-246 -99t-246 99t-101 249q0 151 101 250.5t246 99.5zM404 661q-134 0 -228 -93t-94 -234q0 -139 94 -232t228 -93t228 93t94 232q0 141 -93.5 234t-228.5 93zM534 401q0 -48 -34.5 -80t-85.5 -35v-53h-27v78h15
q44 0 74 25t30 65q0 41 -27 65.5t-73 24.5q-47 0 -75.5 -29.5t-26.5 -76.5l-28 3q-1 57 35.5 93t94.5 36q57 0 92.5 -32.5t35.5 -83.5zM401 186q8 0 14.5 -6t6.5 -14q0 -9 -6.5 -15.5t-14.5 -6.5q-9 0 -15.5 6.5t-6.5 15.5q0 8 6.5 14t15.5 6z" />
    <glyph glyph-name=".notdef" horiz-adv-x="808" 
d="M404 683q145 0 246 -99.5t101 -250.5q0 -150 -101 -249t-246 -99t-246 99t-101 249q0 151 101 250.5t246 99.5zM404 661q-134 0 -228 -93t-94 -234q0 -139 94 -232t228 -93t228 93t94 232q0 141 -93.5 234t-228.5 93zM534 401q0 -48 -34.5 -80t-85.5 -35v-53h-27v78h15
q44 0 74 25t30 65q0 41 -27 65.5t-73 24.5q-47 0 -75.5 -29.5t-26.5 -76.5l-28 3q-1 57 35.5 93t94.5 36q57 0 92.5 -32.5t35.5 -83.5zM401 186q8 0 14.5 -6t6.5 -14q0 -9 -6.5 -15.5t-14.5 -6.5q-9 0 -15.5 6.5t-6.5 15.5q0 8 6.5 14t15.5 6z" />
    <glyph glyph-name=".null" horiz-adv-x="0" 
 />
    <glyph glyph-name="nonmarkingreturn" horiz-adv-x="333" 
 />
    <glyph glyph-name="space" unicode=" " horiz-adv-x="258" 
 />
    <glyph glyph-name="exclam" unicode="!" horiz-adv-x="255" 
d="M146 670v-486h-36v486h36zM127 59q13 0 22.5 -9t9.5 -22t-9 -21.5t-23 -8.5q-13 0 -22 8.5t-9 21.5t9 22t22 9z" />
    <glyph glyph-name="quotedbl" unicode="&#x22;" horiz-adv-x="273" 
d="M59 407v263h35v-263h-35zM179 407v263h35v-263h-35z" />
    <glyph glyph-name="numbersign" unicode="#" horiz-adv-x="669" 
d="M514 444l-59 -229h109l-9 -31h-108l-48 -184h-34l48 184h-232l-48 -184h-34l48 184h-110l8 31h110l59 229h-110l9 32h109l50 194h34l-50 -194h232l50 194h34l-50 -194h109l-9 -32h-108zM480 444h-232l-59 -229h232z" />
    <glyph glyph-name="dollar" unicode="$" horiz-adv-x="577" 
d="M520 190q0 -78 -58 -125t-154 -48v-117h-32v118q-91 8 -151.5 57.5t-68.5 126.5l36 8q8 -69 58.5 -111t126.5 -49v276l-60 14q-139 33 -139 144q0 75 54.5 120.5t143.5 48.5v117h32v-118q84 -6 137 -51.5t61 -112.5l-34 -8q-8 59 -52.5 96.5t-111.5 43.5v-266l62 -15
q68 -15 109 -47.5t41 -101.5zM277 361v260q-73 -2 -117.5 -38.5t-44.5 -96.5q0 -50 30.5 -75t86.5 -39zM308 319v-270q80 1 128 39t48 101q0 51 -31 77t-89 40z" />
    <glyph glyph-name="percent" unicode="%" horiz-adv-x="857" 
d="M219 681q67 0 114.5 -43.5t47.5 -114.5q0 -68 -48 -112t-114 -44q-65 0 -113 44t-48 112q0 71 47.5 114.5t113.5 43.5zM150 0l509 670h31l-509 -670h-31zM219 655q-53 0 -93.5 -37t-40.5 -95q0 -56 40.5 -92t93.5 -36q54 0 94 36t40 92q0 58 -40 95t-94 37zM637 303
q67 0 114.5 -43.5t47.5 -114.5q0 -67 -48 -111.5t-114 -44.5q-65 0 -113 44.5t-48 111.5q0 71 47.5 114.5t113.5 43.5zM637 277q-53 0 -93.5 -37t-40.5 -95q0 -56 40.5 -92t93.5 -36q54 0 94 36t40 92q0 58 -40 95t-94 37z" />
    <glyph glyph-name="ampersand" unicode="&#x26;" horiz-adv-x="719" 
d="M670 -12l-134 108q-83 -107 -229 -107q-104 0 -168.5 52.5t-64.5 138.5q0 65 38 114.5t99 77.5q-61 70 -61 140q0 75 50 122t129 47q74 0 123 -43t59 -122l-32 -8q-9 72 -49 107t-102 35q-64 0 -104 -38t-40 -99q0 -59 42.5 -111.5t147.5 -135.5l154 -123q37 66 37 152
v38h33v-38q0 -101 -44 -173l137 -110zM307 20q130 0 204 97l-162 130q-80 65 -116 101q-60 -26 -93 -69t-33 -99q0 -72 55.5 -116t144.5 -44z" />
    <glyph glyph-name="quotesingle" unicode="'" horiz-adv-x="153" 
d="M59 407v263h35v-263h-35z" />
    <glyph glyph-name="parenleft" unicode="(" horiz-adv-x="342" 
d="M103 334q0 -230 173 -394l-24 -22q-186 171 -186 416t186 417l24 -24q-173 -162 -173 -393z" />
    <glyph glyph-name="parenright" unicode=")" horiz-adv-x="342" 
d="M66 727l24 24q186 -171 186 -417t-186 -416l-24 22q173 164 173 394q0 231 -173 393z" />
    <glyph glyph-name="asterisk" unicode="*" horiz-adv-x="411" 
d="M234 550l130 -74l-15 -23l-129 73v-146h-29v146l-129 -73l-15 23l130 74l-130 74l15 24l129 -73v145h29v-145l129 73l15 -24z" />
    <glyph glyph-name="plus" unicode="+" horiz-adv-x="580" 
d="M503 289h-197v-197h-32v197h-196v32h196v197h32v-197h197v-32z" />
    <glyph glyph-name="comma" unicode="," horiz-adv-x="179" 
d="M49 -132h-30l70 259h44v-2z" />
    <glyph glyph-name="hyphen" unicode="-" horiz-adv-x="439" 
d="M379 239h-319v32h319v-32z" />
    <glyph glyph-name="period" unicode="." horiz-adv-x="179" 
d="M89 59q13 0 22.5 -9t9.5 -22t-9 -21.5t-23 -8.5q-13 0 -22 8.5t-9 21.5t9 22t22 9z" />
    <glyph glyph-name="slash" unicode="/" horiz-adv-x="331" 
d="M325 740l-288 -812h-31l288 812h31z" />
    <glyph glyph-name="zero" unicode="0" horiz-adv-x="664" 
d="M332 681q121 0 195.5 -95.5t74.5 -250.5t-74.5 -250.5t-195.5 -95.5t-195 95.5t-74 250.5t74 250.5t195 95.5zM332 23q105 0 169 86t64 226t-64 226.5t-169 86.5t-169 -86.5t-64 -226.5t64 -226t169 -86z" />
    <glyph glyph-name="one" unicode="1" horiz-adv-x="344" 
d="M247 670v-670h-36v624l-189 -112v37l203 121h22z" />
    <glyph glyph-name="two" unicode="2" horiz-adv-x="508" 
d="M478 33v-33h-448v22l249 224q86 75 120 122t34 111q0 76 -50 123t-131 47q-83 0 -133.5 -51.5t-51.5 -136.5l-35 6q3 96 63.5 155t157.5 59q96 0 155 -55.5t59 -145.5q0 -73 -36.5 -125t-128.5 -134l-210 -188h386z" />
    <glyph glyph-name="three" unicode="3" horiz-adv-x="596" 
d="M388 347q67 -13 104.5 -55t37.5 -106q0 -89 -61.5 -143t-161.5 -54q-105 0 -170.5 61t-70.5 161l36 7q3 -89 58.5 -142.5t146.5 -53.5q85 0 137 45t52 118q0 68 -49.5 106.5t-135.5 38.5h-89v31h87q78 0 124.5 36.5t46.5 99.5q0 68 -49 109.5t-130 41.5q-84 0 -135 -49
t-56 -132l-35 7q6 93 67 150t160 57q95 0 153.5 -50.5t58.5 -133.5q0 -58 -33.5 -97t-92.5 -53z" />
    <glyph glyph-name="four" unicode="4" horiz-adv-x="622" 
d="M588 181h-120v-181h-36v181h-386v38l382 451h40v-458h120v-31zM432 212v411l-347 -411h347z" />
    <glyph glyph-name="five" unicode="5" horiz-adv-x="557" 
d="M127 383h167q100 0 157 -47.5t57 -141.5q0 -92 -62.5 -148.5t-164.5 -56.5q-105 0 -170 62t-66 165l35 7q0 -92 55.5 -146.5t146.5 -54.5q86 0 139 47.5t53 124.5q0 79 -48 118t-134 39h-201l18 319h377v-33h-344z" />
    <glyph glyph-name="six" unicode="6" horiz-adv-x="608" 
d="M320 432q102 0 163.5 -62t61.5 -158q0 -97 -62 -160t-165 -63q-124 0 -189.5 84.5t-65.5 237.5q0 207 91 301q69 69 170 69q74 0 128 -36t73 -102l-36 -7q-15 54 -59 83t-108 29q-88 0 -144 -61q-83 -90 -81 -278l1 -39q14 70 77 116t145 46zM318 23q86 0 139 54.5
t53 134.5t-53 134t-139 54q-90 0 -145 -56.5t-55 -133.5q0 -82 57.5 -134.5t142.5 -52.5z" />
    <glyph glyph-name="seven" unicode="7" horiz-adv-x="488" 
d="M473 670v-23l-286 -647h-42l286 637h-403v33h445z" />
    <glyph glyph-name="eight" unicode="8" horiz-adv-x="586" 
d="M364 346q88 -15 129 -63.5t41 -109.5q0 -83 -65.5 -133.5t-173.5 -50.5q-109 0 -176 50.5t-67 133.5q0 61 41.5 109.5t127.5 63.5q-79 15 -115.5 60t-36.5 103q0 78 61.5 125t164.5 47q100 0 161 -47.5t61 -124.5q0 -57 -37 -102.5t-116 -60.5zM105 507q-1 -62 50 -102
t138 -40q88 0 138.5 40.5t50.5 102.5q0 64 -51.5 103t-136.5 39t-137 -39t-52 -104zM293 23q90 0 146 41.5t56 109.5q0 66 -53.5 109t-147.5 43q-92 0 -147 -42.5t-55 -109.5q0 -68 55.5 -109.5t145.5 -41.5z" />
    <glyph glyph-name="nine" unicode="9" horiz-adv-x="608" 
d="M289 681q125 0 190.5 -84.5t65.5 -237.5q0 -207 -92 -300q-67 -70 -169 -70q-74 0 -128.5 36t-72.5 102l35 7q15 -54 59.5 -83t107.5 -29q89 0 145 61q84 91 80 278v39q-14 -70 -77 -116t-145 -46q-102 0 -163.5 62t-61.5 158q0 97 62 160t164 63zM290 270
q91 0 145.5 56.5t54.5 134.5q0 81 -57.5 133.5t-142.5 52.5q-87 0 -139.5 -54.5t-52.5 -134.5q0 -81 52.5 -134.5t139.5 -53.5z" />
    <glyph glyph-name="colon" unicode=":" horiz-adv-x="179" 
d="M89 444q13 0 22.5 -9t9.5 -22t-9 -21.5t-23 -8.5q-13 0 -22 8.5t-9 21.5t9 22t22 9zM89 59q13 0 22.5 -9t9.5 -22t-9 -21.5t-23 -8.5q-13 0 -22 8.5t-9 21.5t9 22t22 9z" />
    <glyph glyph-name="semicolon" unicode=";" horiz-adv-x="202" 
d="M113 444q13 0 22 -9t9 -22t-9 -21.5t-22 -8.5q-14 0 -23 8.5t-9 21.5t9.5 22t22.5 9zM49 -132h-30l70 259h44v-2z" />
    <glyph glyph-name="less" unicode="&#x3c;" horiz-adv-x="427" 
d="M388 121l-358 173v28l358 173v-38l-310 -149l310 -149v-38z" />
    <glyph glyph-name="equal" unicode="=" horiz-adv-x="580" 
d="M503 391h-425v32h425v-32zM503 209h-425v32h425v-32z" />
    <glyph glyph-name="greater" unicode="&#x3e;" horiz-adv-x="427" 
d="M350 308l-310 149v38l357 -173v-28l-357 -173v38z" />
    <glyph glyph-name="question" unicode="?" horiz-adv-x="513" 
d="M260 681q97 0 156 -55.5t59 -146.5q0 -85 -59.5 -140.5t-149.5 -60.5v-93h-34v123h19q80 0 135 48t55 123q0 76 -50 123t-131 47q-83 0 -134 -52.5t-52 -137.5l-35 6q1 96 62 156t159 60zM249 59q13 0 22 -9t9 -22t-9 -21.5t-22 -8.5q-14 0 -23 8.5t-9 21.5t9.5 22
t22.5 9z" />
    <glyph glyph-name="at" unicode="@" horiz-adv-x="971" 
d="M488 681q173 0 290 -109.5t117 -278.5q0 -93 -37.5 -158.5t-113.5 -65.5q-51 0 -81 27t-30 72v6q-24 -46 -68.5 -72.5t-98.5 -26.5q-83 0 -139.5 56.5t-56.5 146.5t56.5 147t139.5 57q54 0 98.5 -26.5t68.5 -73.5v90h28v-304q0 -34 23 -54.5t61 -20.5q60 0 90.5 58.5
t30.5 141.5q0 158 -108.5 260t-269.5 102q-165 0 -274 -105.5t-109 -265.5t107 -267t260 -107q59 0 125 17t111 46l15 -24q-46 -31 -116 -48.5t-133 -17.5q-167 0 -282.5 113.5t-115.5 286.5t117.5 285.5t294.5 112.5zM468 102q70 0 117.5 49t47.5 128q0 78 -47.5 126
t-117.5 48t-119 -48t-49 -126q0 -79 49 -128t119 -49z" />
    <glyph glyph-name="A" unicode="A" horiz-adv-x="682" 
d="M664 0h-38l-87 189h-396l-87 -189h-38l307 670h32zM525 222l-184 400l-183 -400h367z" />
    <glyph glyph-name="B" unicode="B" horiz-adv-x="675" 
d="M469 342v-3q68 -7 108 -50t40 -110q0 -80 -55 -129.5t-147 -49.5h-314v670h292q95 0 147.5 -46.5t52.5 -122.5q0 -63 -35 -107.5t-89 -51.5zM137 638v-284h272q67 0 109 40.5t42 105.5q0 63 -44.5 100.5t-124.5 37.5h-254zM137 32h276q75 0 121 41.5t46 107.5
q0 65 -47 103.5t-122 38.5h-274v-291z" />
    <glyph glyph-name="C" unicode="C" horiz-adv-x="788" 
d="M410 23q99 0 172 46.5t105 125.5l35 -10q-36 -89 -118.5 -142.5t-193.5 -53.5q-144 0 -244 100.5t-100 245.5t100 245.5t244 100.5q110 0 193 -53t119 -141l-34 -12q-32 79 -105.5 125.5t-172.5 46.5q-129 0 -218 -90.5t-89 -221.5t89 -221.5t218 -90.5z" />
    <glyph glyph-name="D" unicode="D" horiz-adv-x="743" 
d="M101 670h203q176 0 274.5 -95.5t98.5 -239.5t-98.5 -239.5t-274.5 -95.5h-203v670zM137 33h166q161 0 249.5 86.5t88.5 215.5t-88.5 215.5t-249.5 86.5h-166v-604z" />
    <glyph glyph-name="E" unicode="E" horiz-adv-x="639" 
d="M576 33v-33h-475v670h474v-33h-438v-284h408v-32h-408v-288h439z" />
    <glyph glyph-name="F" unicode="F" horiz-adv-x="586" 
d="M137 637v-285h398v-33h-398v-319h-36v670h465v-33h-429z" />
    <glyph glyph-name="G" unicode="G" horiz-adv-x="809" 
d="M743 351v-16q0 -146 -93 -246t-240 -100q-145 0 -244.5 100.5t-99.5 245.5t99.5 245.5t244.5 100.5q109 0 191 -50.5t119 -136.5l-33 -13q-34 76 -107 121t-170 45q-130 0 -218.5 -90.5t-88.5 -221.5t89 -221.5t219 -90.5q127 0 209 84.5t88 210.5h-339v33h374z" />
    <glyph glyph-name="H" unicode="H" horiz-adv-x="738" 
d="M638 670v-670h-37v321h-464v-321h-36v670h36v-316h464v316h37z" />
    <glyph glyph-name="I" unicode="I" horiz-adv-x="426" 
d="M231 637v-604h167v-33h-369v33h166v604h-166v33h369v-33h-167z" />
    <glyph glyph-name="J" unicode="J" horiz-adv-x="594" 
d="M503 670v-422q0 -115 -65.5 -187t-172.5 -72q-96 0 -159.5 58.5t-75.5 154.5l34 10q11 -86 65 -137.5t136 -51.5q90 0 146 62.5t56 162.5v389h-284v33h320z" />
    <glyph glyph-name="K" unicode="K" horiz-adv-x="699" 
d="M673 0h-48l-306 356l-182 -185v-171h-36v670h36v-454l446 454h45l-284 -288z" />
    <glyph glyph-name="L" unicode="L" horiz-adv-x="582" 
d="M550 33v-33h-449v670h36v-637h413z" />
    <glyph glyph-name="M" unicode="M" horiz-adv-x="906" 
d="M806 670v-670h-35v589l-305 -589h-26l-304 589v-589h-35v670h32l321 -619l319 619h33z" />
    <glyph glyph-name="N" unicode="N" horiz-adv-x="759" 
d="M659 670v-670h-34l-488 609v-609h-36v670h33l488 -609v609h37z" />
    <glyph glyph-name="O" unicode="O" horiz-adv-x="815" 
d="M408 681q143 0 242 -100.5t99 -245.5t-99 -245.5t-242 -100.5q-144 0 -243 100t-99 246q0 145 99 245.5t243 100.5zM408 23q128 0 216 90.5t88 221.5t-88 221.5t-216 90.5q-129 0 -217 -90.5t-88 -221.5t88 -221.5t217 -90.5z" />
    <glyph glyph-name="P" unicode="P" horiz-adv-x="640" 
d="M101 670h278q99 0 160 -54.5t61 -140.5t-61 -141t-160 -55h-242v-279h-36v670zM137 312h242q83 0 134 45.5t51 117.5q0 71 -51 116.5t-134 45.5h-242v-325z" />
    <glyph glyph-name="Q" unicode="Q" horiz-adv-x="815" 
d="M735 -170l-169 197q-74 -38 -158 -38q-144 0 -243 100t-99 246q0 145 99 245.5t243 100.5q143 0 242 -100.5t99 -245.5q0 -90 -40.5 -166.5t-110.5 -122.5l187 -216h-50zM103 335q0 -131 88 -221.5t217 -90.5q128 0 216 90.5t88 221.5t-88 221.5t-216 90.5
q-129 0 -217 -90.5t-88 -221.5z" />
    <glyph glyph-name="R" unicode="R" horiz-adv-x="667" 
d="M631 0h-49l-284 318h-161v-318h-36v670h301q92 0 148 -48t56 -128t-56 -128t-148 -48h-58zM137 351h265q76 0 122 39.5t46 103.5t-46 103.5t-122 39.5h-265v-286z" />
    <glyph glyph-name="S" unicode="S" horiz-adv-x="616" 
d="M306 681q98 0 161.5 -49t79.5 -129l-35 -9q-14 71 -69 113t-138 42q-80 0 -132 -41t-52 -109q0 -55 33.5 -83t93.5 -42l148 -36q35 -8 60 -18t50.5 -27.5t39 -46.5t13.5 -68q0 -86 -64.5 -137.5t-171.5 -51.5q-108 0 -181.5 54.5t-85.5 144.5l39 9q9 -80 72.5 -127.5
t158.5 -47.5q90 0 143 41.5t53 112.5q0 58 -31.5 85.5t-100.5 43.5l-158 37q-150 36 -150 157q0 82 62.5 132t161.5 50z" />
    <glyph glyph-name="T" unicode="T" horiz-adv-x="631" 
d="M602 637h-268v-637h-38v637h-267v33h573v-33z" />
    <glyph glyph-name="U" unicode="U" horiz-adv-x="728" 
d="M637 670v-383q0 -134 -75 -216t-198 -82t-198 82t-75 216v383h36v-383q0 -118 65 -190.5t172 -72.5q106 0 171 72t65 191v383h37z" />
    <glyph glyph-name="V" unicode="V" horiz-adv-x="670" 
d="M647 670l-295 -670h-34l-295 670h39l273 -618l273 618h39z" />
    <glyph glyph-name="W" unicode="W" horiz-adv-x="946" 
d="M923 670l-214 -670h-35l-201 613l-201 -613h-35l-214 670h38l195 -614l199 614h36l199 -614l195 614h38z" />
    <glyph glyph-name="X" unicode="X" 
d="M541 0l-236 314l-237 -314h-45l256 337l-247 333h45l228 -309l228 309h45l-248 -333l256 -337h-45z" />
    <glyph glyph-name="Y" unicode="Y" horiz-adv-x="655" 
d="M345 247v-247h-36v249l-286 421h42l262 -388l263 388h42z" />
    <glyph glyph-name="Z" unicode="Z" horiz-adv-x="626" 
d="M568 32v-32h-501v22l452 616h-438v32h486v-23l-449 -615h450z" />
    <glyph glyph-name="bracketleft" unicode="[" horiz-adv-x="381" 
d="M136 709v-759h178v-32h-213v822h213v-31h-178z" />
    <glyph glyph-name="backslash" unicode="\" horiz-adv-x="331" 
d="M325 -72h-31l-288 812h31z" />
    <glyph glyph-name="bracketright" unicode="]" horiz-adv-x="381" 
d="M280 740v-822h-214v32h179v759h-179v31h214z" />
    <glyph glyph-name="asciicircum" unicode="^" horiz-adv-x="357" 
d="M65 475h-36l137 195h24l138 -195h-36l-114 159z" />
    <glyph glyph-name="underscore" unicode="_" horiz-adv-x="479" 
d="M459 -87h-439v31h439v-31z" />
    <glyph glyph-name="grave" unicode="`" horiz-adv-x="600" 
d="M228 704l90 -137h-33l-96 137h39z" />
    <glyph glyph-name="a" unicode="a" horiz-adv-x="544" 
d="M276 498q88 0 139.5 -48t51.5 -135v-315h-34v107q-28 -54 -83.5 -86t-125.5 -32q-78 0 -125 39.5t-47 101.5q0 67 51.5 108.5t147.5 41.5l182 -1v34q0 73 -42.5 113.5t-113.5 40.5q-65 0 -110 -33t-54 -86l-33 9q11 63 64.5 102t131.5 39zM226 20q87 0 147 54t60 134v41
h-182q-80 0 -122.5 -33t-42.5 -86q0 -48 38.5 -79t101.5 -31z" />
    <glyph glyph-name="b" unicode="b" horiz-adv-x="653" 
d="M354 498q104 0 176 -70.5t72 -183.5t-72 -184t-176 -71q-71 0 -129 35t-89 98v-122h-35v770h35v-404q31 62 89 97t129 35zM351 21q91 0 153.5 61.5t62.5 161.5q0 99 -62.5 160.5t-153.5 61.5q-86 0 -150.5 -62t-64.5 -160q0 -99 64.5 -161t150.5 -62z" />
    <glyph glyph-name="c" unicode="c" horiz-adv-x="575" 
d="M301 22q65 0 116.5 33t73.5 88l32 -10q-23 -65 -84 -104.5t-138 -39.5q-103 0 -176 70.5t-73 184.5q0 111 73.5 182.5t175.5 71.5q77 0 138 -40.5t84 -108.5l-32 -11q-21 59 -73 93.5t-117 34.5q-88 0 -151.5 -62.5t-63.5 -159.5q0 -100 63 -161t152 -61z" />
    <glyph glyph-name="d" unicode="d" horiz-adv-x="653" 
d="M553 770v-770h-35v122q-31 -63 -89 -98t-129 -35q-104 0 -176 71t-72 184t72 183.5t176 70.5q71 0 129 -35t89 -97v404h35zM302 21q87 0 151.5 62t64.5 161q0 98 -64.5 160t-151.5 62q-91 0 -153.5 -61.5t-62.5 -160.5q0 -100 62.5 -161.5t153.5 -61.5z" />
    <glyph glyph-name="e" unicode="e" horiz-adv-x="591" 
d="M539 258v-14h-452l-1 -2q0 -99 64 -160t147 -61q72 0 124 34t77 101l31 -8q-26 -76 -86.5 -117.5t-145.5 -41.5q-97 0 -171 70t-74 183q0 115 75 185.5t178 70.5q101 0 166 -66.5t68 -173.5zM305 466q-81 0 -144.5 -52.5t-72.5 -140.5h416q-7 89 -62.5 141t-136.5 52z
" />
    <glyph glyph-name="f" unicode="f" horiz-adv-x="346" 
d="M348 457h-200v-457h-35v457h-93v31h93v135q0 72 39.5 114.5t108.5 42.5q39 0 74 -16l-12 -29q-29 13 -60 13q-54 0 -84.5 -34t-30.5 -91v-135h200v-31z" />
    <glyph glyph-name="g" unicode="g" horiz-adv-x="653" 
d="M553 488v-515q-1 -96 -72 -159.5t-172 -63.5q-185 0 -240 141l33 19q48 -126 207 -126q86 0 147 54.5t62 137.5v146q-31 -63 -89 -98t-129 -35q-104 0 -176 71t-72 184t72 183.5t176 70.5q71 0 129 -35t89 -97v122h35zM302 21q87 0 151.5 62t64.5 161q0 98 -64.5 160
t-151.5 62q-91 0 -153.5 -61.5t-62.5 -160.5q0 -100 62.5 -161.5t153.5 -61.5z" />
    <glyph glyph-name="h" unicode="h" horiz-adv-x="630" 
d="M343 498q89 0 143 -57.5t54 -152.5v-288h-35v285q0 81 -45 131t-118 50q-93 0 -149.5 -59t-56.5 -158v-249h-35v770h35v-400q27 61 81 94.5t126 33.5z" />
    <glyph glyph-name="i" unicode="i" horiz-adv-x="255" 
d="M127 668q13 0 22.5 -9.5t9.5 -21.5q0 -13 -9 -22t-23 -9t-23 9t-9 22q0 12 9.5 21.5t22.5 9.5zM145 0h-35v488h35v-488z" />
    <glyph glyph-name="j" unicode="j" horiz-adv-x="276" 
d="M148 668q13 0 22.5 -9.5t9.5 -21.5q0 -13 -9 -22t-23 -9t-23 9t-9 22q0 12 9.5 21.5t22.5 9.5zM-8 -234l11 30q23 -13 49 -13q35 0 56.5 21t21.5 56v628h35v-630q0 -49 -29.5 -78.5t-77.5 -29.5q-37 0 -66 16z" />
    <glyph glyph-name="k" unicode="k" horiz-adv-x="586" 
d="M568 0h-45l-243 262l-144 -145v-117h-35v770h35v-605l323 323h45l-200 -202z" />
    <glyph glyph-name="l" unicode="l" horiz-adv-x="298" 
d="M126 770v-669q0 -35 21.5 -57t57.5 -22q31 0 57 18l11 -29q-33 -22 -72 -22q-49 0 -79.5 30.5t-30.5 80.5v670h35z" />
    <glyph glyph-name="m" unicode="m" horiz-adv-x="944" 
d="M678 498q78 0 126.5 -48t48.5 -126v-324h-34v321q0 65 -41 105t-107 40q-80 0 -128.5 -56t-48.5 -150v-260h-35v321q0 65 -41 105t-106 40q-80 0 -128 -56t-48 -150v-260h-35v488h35v-107q24 55 71 86t111 31t109.5 -33t60.5 -89q25 58 74.5 90t115.5 32z" />
    <glyph glyph-name="n" unicode="n" horiz-adv-x="630" 
d="M343 498q89 0 143 -57.5t54 -152.5v-288h-35v285q0 81 -45 131t-118 50q-93 0 -149.5 -59t-56.5 -158v-249h-35v488h35v-118q27 61 81 94.5t126 33.5z" />
    <glyph glyph-name="o" unicode="o" horiz-adv-x="613" 
d="M306 498q110 0 182.5 -72t72.5 -181q0 -110 -72.5 -182.5t-182.5 -72.5q-108 0 -181 72.5t-73 182.5q0 109 73 181t181 72zM306 21q94 0 157.5 64t63.5 160t-63.5 158.5t-157.5 62.5t-157 -62.5t-63 -158.5t63.5 -160t156.5 -64z" />
    <glyph glyph-name="p" unicode="p" horiz-adv-x="653" 
d="M354 498q104 0 176 -70.5t72 -183.5t-72 -184t-176 -71q-71 0 -129 35t-89 98v-362h-35v728h35v-122q31 62 89 97t129 35zM351 21q91 0 153.5 61.5t62.5 161.5q0 99 -62.5 160.5t-153.5 61.5q-86 0 -150.5 -62t-64.5 -160q0 -99 64.5 -161t150.5 -62z" />
    <glyph glyph-name="q" unicode="q" horiz-adv-x="653" 
d="M553 488v-728h-35v362q-31 -63 -89 -98t-129 -35q-104 0 -176 71t-72 184t72 183.5t176 70.5q71 0 129 -35t89 -97v122h35zM302 21q87 0 151.5 62t64.5 161q0 98 -64.5 160t-151.5 62q-91 0 -153.5 -61.5t-62.5 -160.5q0 -100 62.5 -161.5t153.5 -61.5z" />
    <glyph glyph-name="r" unicode="r" horiz-adv-x="398" 
d="M350 491q19 0 34 -3l-6 -32q-9 1 -29 1q-98 0 -155.5 -72.5t-57.5 -173.5v-211h-34v488h34v-149q29 68 84.5 110t129.5 42z" />
    <glyph glyph-name="s" unicode="s" horiz-adv-x="507" 
d="M59 134l33 9q5 -56 54 -90t122 -34q67 0 107.5 29.5t40.5 79.5q0 40 -26 60.5t-73 30.5l-122 27q-59 13 -89 40.5t-30 74.5q0 62 49 99.5t127 37.5q75 0 124 -35.5t64 -92.5l-33 -11q-10 50 -51 79.5t-105 29.5q-63 0 -101.5 -28.5t-38.5 -76.5q0 -39 25.5 -58.5
t72.5 -30.5l118 -26q56 -12 90 -38.5t34 -80.5q0 -65 -50.5 -102.5t-133.5 -37.5q-87 0 -143 39t-65 106z" />
    <glyph glyph-name="t" unicode="t" horiz-adv-x="363" 
d="M332 57l15 -28q-47 -40 -103 -40q-62 0 -99.5 38.5t-37.5 103.5v326h-107v31h107v182h35v-182h187v-31h-187v-325q0 -50 28.5 -80t75.5 -30q46 0 86 35z" />
    <glyph glyph-name="u" unicode="u" horiz-adv-x="630" 
d="M529 488v-488h-34v120q-26 -61 -80.5 -95.5t-127.5 -34.5q-89 0 -143 58t-54 152v288h35v-285q0 -81 45 -131t118 -50q93 0 150 59t57 158v249h34z" />
    <glyph glyph-name="v" unicode="v" horiz-adv-x="538" 
d="M515 488l-226 -488h-39l-227 488h40l207 -449l206 449h39z" />
    <glyph glyph-name="w" unicode="w" horiz-adv-x="755" 
d="M732 489l-166 -492h-36l-153 433l-152 -433h-36l-166 492h37l149 -437l154 436h29l155 -437l148 438h37z" />
    <glyph glyph-name="x" unicode="x" horiz-adv-x="567" 
d="M308 243l203 -243h-43l-184 221l-184 -221h-44l203 243l-203 245h44l184 -223l184 223h43z" />
    <glyph glyph-name="y" unicode="y" horiz-adv-x="546" 
d="M523 488l-345 -728h-39l116 243l-232 485h40l210 -446l212 446h38z" />
    <glyph glyph-name="z" unicode="z" horiz-adv-x="493" 
d="M453 31v-31h-413v26l358 431h-347v31h393v-26l-358 -431h367z" />
    <glyph glyph-name="braceleft" unicode="{" horiz-adv-x="434" 
d="M211 615v-174q0 -83 -68 -112q68 -29 68 -112v-174q0 -42 25 -68t65 -26h66v-31h-68q-56 0 -90 34t-34 90v173q0 44 -26 70t-69 28l-16 1v30l16 1q43 2 69 28t26 70v173q0 56 34 90t90 34h68v-31h-66q-40 0 -65 -26t-25 -68z" />
    <glyph glyph-name="bar" unicode="|" horiz-adv-x="236" 
d="M136 -72h-35v812h35v-812z" />
    <glyph glyph-name="braceright" unicode="}" horiz-adv-x="434" 
d="M370 344v-30l-16 -1q-43 -2 -69.5 -28t-26.5 -70v-173q0 -56 -33.5 -90t-89.5 -34h-69v31h67q40 0 65 26t25 68v174q0 83 68 112q-68 29 -68 112v174q0 42 -25 68t-65 26h-67v31h69q56 0 89.5 -34t33.5 -90v-173q0 -44 26.5 -70t69.5 -28z" />
    <glyph glyph-name="asciitilde" unicode="~" horiz-adv-x="458" 
d="M76 245h-36q0 52 28 80.5t72 28.5q41 0 93 -40t84 -40q31 0 48.5 21t16.5 57h36q0 -52 -28.5 -81.5t-71.5 -29.5q-40 0 -92 40t-84 40t-50.5 -20.5t-15.5 -55.5z" />
    <glyph glyph-name="exclamdown" unicode="&#xa1;" horiz-adv-x="255" 
d="M127 437q-13 0 -22 9t-9 22t9 21.5t22 8.5q14 0 23 -8.5t9 -21.5t-9.5 -22t-22.5 -9zM110 312h36v-486h-36v486z" />
    <glyph glyph-name="cent" unicode="&#xa2;" horiz-adv-x="575" 
d="M313 466v-444q61 3 109 35.5t69 85.5l32 -10q-22 -61 -79 -100.5t-130 -43.5v-119h-33v120q-97 7 -163 76.5t-66 177.5q0 105 66.5 175.5t162.5 77.5v133h33v-132q73 -4 130 -44t79 -105l-32 -11q-20 56 -68 90t-110 38zM86 244q0 -94 56.5 -154t139.5 -67v442
q-82 -7 -139 -68t-57 -153z" />
    <glyph glyph-name="sterling" unicode="&#xa3;" horiz-adv-x="647" 
d="M590 33v-33h-524v23l85 8v266h-85v33h85v140q0 95 59.5 153t156.5 58q96 0 155.5 -58t60.5 -151l-35 -8q-1 83 -50.5 132.5t-130.5 49.5q-80 0 -129.5 -48.5t-49.5 -127.5v-140h281v-33h-281v-264h402z" />
    <glyph glyph-name="yen" unicode="&#xa5;" horiz-adv-x="646" 
d="M358 294h187v-30h-204v-93h204v-30h-204v-141h-36v141h-204v30h204v93h-204v30h187l-250 376h41l244 -371l244 371h42z" />
    <glyph glyph-name="section" unicode="&#xa7;" horiz-adv-x="528" 
d="M481 230q0 -51 -25 -84t-63 -48q46 -39 46 -95q0 -64 -49 -103.5t-129 -39.5q-96 0 -149 47t-52 125l32 8q1 -70 44 -110t123 -40q65 0 105 31.5t40 81.5q0 64 -80 100l-163 74q-63 28 -90.5 58.5t-27.5 74.5q0 97 88 133q-46 39 -46 95q0 64 49.5 103.5t128.5 39.5
q89 0 140 -47.5t52 -123.5l-33 -9q0 69 -41.5 109t-115.5 40q-66 0 -105.5 -31t-39.5 -82q0 -63 79 -99l163 -74q64 -29 91.5 -59.5t27.5 -74.5zM366 116q81 33 81 111q0 33 -21.5 58.5t-78.5 50.5l-164 74q-18 9 -26 14q-80 -32 -80 -111q0 -33 21.5 -58t78.5 -51l163 -74
q12 -6 26 -14z" />
    <glyph glyph-name="dieresis" unicode="&#xa8;" horiz-adv-x="600" 
d="M208 650q13 0 22.5 -9t9.5 -22t-9 -22t-23 -9t-23 9t-9 22t9.5 22t22.5 9zM392 650q13 0 22.5 -9t9.5 -22t-9 -22t-23 -9t-22.5 9t-8.5 22t9 22t22 9z" />
    <glyph glyph-name="copyright" unicode="&#xa9;" horiz-adv-x="789" 
d="M394 681q144 0 244.5 -99t100.5 -249q0 -148 -100.5 -246t-244.5 -98t-244.5 98t-100.5 246q0 150 100.5 249t244.5 99zM394 657q-133 0 -225.5 -91.5t-92.5 -231.5q0 -138 92.5 -229t225.5 -91t226 91t93 229q0 140 -93 231.5t-226 91.5zM402 523q64 0 113 -36t59 -92
l-27 -6q-13 47 -54 76.5t-91 29.5q-66 0 -112 -45t-46 -115q0 -71 46 -116.5t112 -45.5q50 0 91 30t54 78l26 -7q-11 -56 -59 -92.5t-112 -36.5q-79 0 -134 53t-55 137q0 83 55 135.5t134 52.5z" />
    <glyph glyph-name="ordfeminine" unicode="&#xaa;" horiz-adv-x="386" 
d="M201 673q58 0 93 -32t35 -89v-208h-30v57q-43 -64 -132 -64q-49 0 -79 26t-30 69q0 44 37.5 70.5t105.5 26.5h98v23q0 46 -26.5 71.5t-71.5 25.5q-39 0 -66.5 -21t-35.5 -64l-26 5q8 51 42.5 77.5t85.5 26.5zM171 361q56 0 92 32t36 81v33h-97q-55 0 -85 -20t-30 -55
q0 -32 23 -51.5t61 -19.5z" />
    <glyph glyph-name="guillemotleft" unicode="&#xab;" horiz-adv-x="371" 
d="M25 262l130 178h38l-130 -178l130 -178h-38zM179 262l129 178h38l-129 -178l129 -178h-38z" />
    <glyph glyph-name="registered" unicode="&#xae;" horiz-adv-x="500" 
d="M250 681q84 0 142 -57t58 -144q0 -86 -58 -143t-142 -57t-142 57t-58 143q0 87 58 144t142 57zM250 299q75 0 127.5 51.5t52.5 129.5t-52.5 130t-127.5 52t-127.5 -52t-52.5 -130t52.5 -129.5t127.5 -51.5zM335 521q0 -25 -17 -42t-46 -19l74 -72h-26l-73 71h-47v-71h-19
v194h81q33 0 53 -16.5t20 -44.5zM200 476h60q25 0 40 12.5t15 32.5q0 19 -14.5 31t-38.5 12h-62v-88z" />
    <glyph glyph-name="macron" unicode="&#xaf;" horiz-adv-x="600" 
d="M429 592h-258v29h258v-29z" />
    <glyph glyph-name="degree" unicode="&#xb0;" horiz-adv-x="400" 
d="M200 681q51 0 87 -33.5t36 -87.5q0 -53 -36 -86.5t-87 -33.5q-50 0 -87 34t-37 86q0 54 36.5 87.5t87.5 33.5zM200 467q38 0 66.5 26t28.5 67t-28.5 68t-66.5 27t-66.5 -27t-28.5 -68q0 -40 28.5 -66.5t66.5 -26.5z" />
    <glyph glyph-name="plusminus" unicode="&#xb1;" horiz-adv-x="580" 
d="M503 353v-31h-197v-185h-32v185h-196v31h196v187h32v-187h197zM78 32h425v-32h-425v32z" />
    <glyph glyph-name="acute" unicode="&#xb4;" horiz-adv-x="600" 
d="M296 567h-32l89 137h40z" />
    <glyph glyph-name="paragraph" unicode="&#xb6;" horiz-adv-x="534" 
d="M311 0h-32v299h-50q-91 0 -150 51.5t-59 137.5q0 88 52.5 135t142.5 47h96v-670zM433 0h-31v670h31v-670z" />
    <glyph glyph-name="periodcentered" unicode="&#xb7;" horiz-adv-x="179" 
d="M89 297q13 0 22.5 -9t9.5 -21q0 -13 -9 -22t-23 -9q-13 0 -22 9t-9 22q0 12 9 21t22 9z" />
    <glyph glyph-name="cedilla" unicode="&#xb8;" horiz-adv-x="600" 
d="M291 0h30l-94 -178h-40z" />
    <glyph glyph-name="ordmasculine" unicode="&#xba;" horiz-adv-x="449" 
d="M224 673q70 0 119 -47t49 -120q0 -75 -49 -122t-119 -47q-68 0 -117.5 47.5t-49.5 121.5q0 73 49.5 120t117.5 47zM224 364q57 0 98 40t41 102q0 61 -41 100.5t-98 39.5q-55 0 -96 -40t-41 -100q0 -62 41 -102t96 -40z" />
    <glyph glyph-name="guillemotright" unicode="&#xbb;" horiz-adv-x="371" 
d="M25 84l130 178l-130 178h38l130 -178l-130 -178h-38zM179 84l129 178l-129 178h38l129 -178l-129 -178h-38z" />
    <glyph glyph-name="onequarter" unicode="&#xbc;" horiz-adv-x="673" 
d="M117 631l-92 -54v31l103 62h19v-362h-30v323zM594 670l-508 -670h-31l508 670h31zM652 93h-65v-93h-28v93h-210v29l206 239h32v-242h65v-26zM559 119v206l-179 -206h179z" />
    <glyph glyph-name="onehalf" unicode="&#xbd;" horiz-adv-x="730" 
d="M117 631l-92 -54v31l103 62h19v-362h-30v323zM584 670l-508 -670h-31l508 670h31zM699 26v-26h-254v19l139 118q45 40 62.5 63.5t17.5 55.5q0 38 -25.5 61t-67.5 23q-43 0 -68.5 -26t-26.5 -70l-27 5q0 51 33.5 84t88.5 33t89 -30t34 -80q0 -39 -21.5 -68.5t-67.5 -67.5
l-110 -94h204z" />
    <glyph glyph-name="threequarters" unicode="&#xbe;" horiz-adv-x="772" 
d="M300 415q0 -46 -36 -76.5t-92 -30.5q-58 0 -97 33t-40 90l26 4q1 -47 33 -74t78 -27q44 0 71.5 23t27.5 58t-26.5 54.5t-72.5 19.5h-34v22h33q42 0 67 18.5t25 49.5q0 34 -27 55.5t-68 21.5q-43 0 -72 -25.5t-30 -69.5l-26 5q1 52 37.5 83t90.5 31t88.5 -28t34.5 -72
q0 -59 -60 -79q32 -9 50.5 -31.5t18.5 -54.5zM700 670l-508 -670h-31l508 670h31zM751 93h-65v-93h-28v93h-210v29l206 239h32v-242h65v-26zM658 119v206l-179 -206h179z" />
    <glyph glyph-name="questiondown" unicode="&#xbf;" horiz-adv-x="513" 
d="M264 437q-13 0 -22 9t-9 22t9 21.5t22 8.5q14 0 23 -8.5t9 -21.5t-9.5 -22t-22.5 -9zM439 37l35 -6q-1 -96 -61.5 -156t-158.5 -60q-97 0 -156.5 55.5t-59.5 146.5q0 85 59.5 140.5t149.5 60.5v93h34v-124h-19q-80 0 -134.5 -47.5t-54.5 -122.5q0 -77 49.5 -123.5
t131.5 -46.5t133 52.5t52 137.5z" />
    <glyph glyph-name="Agrave" unicode="&#xc0;" horiz-adv-x="682" 
d="M323 749l-97 137h40l90 -137h-33zM664 0h-38l-87 189h-396l-87 -189h-38l307 670h32zM525 222l-184 400l-183 -400h367z" />
    <glyph glyph-name="Aacute" unicode="&#xc1;" horiz-adv-x="682" 
d="M363 749h-32l89 137h40zM664 0h-38l-87 189h-396l-87 -189h-38l307 670h32zM525 222l-184 400l-183 -400h367z" />
    <glyph glyph-name="Acircumflex" unicode="&#xc2;" horiz-adv-x="682" 
d="M244 742h-39l120 137h33l119 -137h-38l-98 111zM664 0h-38l-87 189h-396l-87 -189h-38l307 670h32zM525 222l-184 400l-183 -400h367z" />
    <glyph glyph-name="Atilde" unicode="&#xc3;" horiz-adv-x="682" 
d="M280 832q-21 0 -33 -14t-12 -38h-29q0 39 20 59.5t52 20.5q28 0 64 -27t59 -27q43 0 43 54h29q0 -39 -20 -61t-51 -22q-29 0 -64.5 27.5t-57.5 27.5zM664 0h-38l-87 189h-396l-87 -189h-38l307 670h32zM525 222l-184 400l-183 -400h367z" />
    <glyph glyph-name="Adieresis" unicode="&#xc4;" horiz-adv-x="682" 
d="M249 770q-14 0 -23 9t-9 22t9.5 22t22.5 9t22.5 -9t9.5 -22t-9 -22t-23 -9zM433 770q-13 0 -22 9t-9 22t9 22t22 9t22.5 -9t9.5 -22t-9 -22t-23 -9zM664 0h-38l-87 189h-396l-87 -189h-38l307 670h32zM525 222l-184 400l-183 -400h367z" />
    <glyph glyph-name="Aring" unicode="&#xc5;" horiz-adv-x="682" 
d="M341 736q-38 0 -65 26t-27 63t27 63.5t65 26.5t65 -26.5t27 -63.5t-27 -63t-65 -26zM341 890q-28 0 -47 -19t-19 -46q0 -26 19 -45t47 -19t47.5 19t19.5 45q0 27 -19.5 46t-47.5 19zM664 0h-38l-87 189h-396l-87 -189h-38l307 670h32zM525 222l-184 400l-183 -400h367z
" />
    <glyph glyph-name="AE" unicode="&#xc6;" horiz-adv-x="1039" 
d="M564 637v-284h409v-32h-409v-288h439v-33h-475v178h-335l-133 -178h-42l502 670h483v-33h-439zM528 211v417l-311 -417h311z" />
    <glyph glyph-name="Ccedilla" unicode="&#xc7;" horiz-adv-x="788" 
d="M410 23q99 0 172 46.5t105 125.5l35 -10q-35 -88 -115.5 -141t-189.5 -55l-88 -167h-40l98 168q-136 8 -228.5 107.5t-92.5 237.5q0 145 100 245.5t244 100.5q110 0 193 -53t119 -141l-34 -12q-32 79 -105.5 125.5t-172.5 46.5q-129 0 -218 -90.5t-89 -221.5t89 -221.5
t218 -90.5z" />
    <glyph glyph-name="Egrave" unicode="&#xc8;" horiz-adv-x="639" 
d="M322 749l-97 137h40l90 -137h-33zM576 33v-33h-475v670h474v-33h-438v-284h408v-32h-408v-288h439z" />
    <glyph glyph-name="Eacute" unicode="&#xc9;" horiz-adv-x="639" 
d="M363 749h-32l89 137h40zM576 33v-33h-475v670h474v-33h-438v-284h408v-32h-408v-288h439z" />
    <glyph glyph-name="Ecircumflex" unicode="&#xca;" horiz-adv-x="639" 
d="M243 742h-39l120 137h33l119 -137h-38l-98 111zM576 33v-33h-475v670h474v-33h-438v-284h408v-32h-408v-288h439z" />
    <glyph glyph-name="Edieresis" unicode="&#xcb;" horiz-adv-x="639" 
d="M248 770q-14 0 -23 9t-9 22t9.5 22t22.5 9t22.5 -9t9.5 -22t-9 -22t-23 -9zM432 770q-14 0 -22.5 9t-8.5 22t9 22t22 9t22.5 -9t9.5 -22t-9 -22t-23 -9zM576 33v-33h-475v670h474v-33h-438v-284h408v-32h-408v-288h439z" />
    <glyph glyph-name="Igrave" unicode="&#xcc;" horiz-adv-x="426" 
d="M195 749l-97 137h40l90 -137h-33zM231 637v-604h167v-33h-369v33h166v604h-166v33h369v-33h-167z" />
    <glyph glyph-name="Iacute" unicode="&#xcd;" horiz-adv-x="426" 
d="M236 749h-32l89 137h40zM231 637v-604h167v-33h-369v33h166v604h-166v33h369v-33h-167z" />
    <glyph glyph-name="Icircumflex" unicode="&#xce;" horiz-adv-x="426" 
d="M116 742h-39l120 137h33l119 -137h-38l-98 111zM231 637v-604h167v-33h-369v33h166v604h-166v33h369v-33h-167z" />
    <glyph glyph-name="Idieresis" unicode="&#xcf;" horiz-adv-x="426" 
d="M121 770q-14 0 -23 9t-9 22t9.5 22t22.5 9t22.5 -9t9.5 -22t-9 -22t-23 -9zM305 770q-13 0 -22 9t-9 22t9 22t22 9t22.5 -9t9.5 -22t-9 -22t-23 -9zM231 637v-604h167v-33h-369v33h166v604h-166v33h369v-33h-167z" />
    <glyph glyph-name="Eth" unicode="&#xd0;" horiz-adv-x="749" 
d="M116 670h204q176 0 274.5 -95.5t98.5 -239.5t-98.5 -239.5t-274.5 -95.5h-204v321h-86v33h86v316zM153 33h166q161 0 249 86.5t88 215.5t-88 215.5t-249 86.5h-166v-283h188v-33h-188v-288z" />
    <glyph glyph-name="Ntilde" unicode="&#xd1;" horiz-adv-x="759" 
d="M328 832q-21 0 -33 -14t-12 -38h-29q0 39 20 59.5t52 20.5q28 0 64 -27t59 -27q43 0 43 54h29q0 -39 -20 -61t-51 -22q-29 0 -64.5 27.5t-57.5 27.5zM659 670v-670h-34l-488 609v-609h-36v670h33l488 -609v609h37z" />
    <glyph glyph-name="Ograve" unicode="&#xd2;" horiz-adv-x="815" 
d="M390 749l-97 137h40l90 -137h-33zM408 681q143 0 242 -100.5t99 -245.5t-99 -245.5t-242 -100.5q-144 0 -243 100t-99 246q0 145 99 245.5t243 100.5zM408 23q128 0 216 90.5t88 221.5t-88 221.5t-216 90.5q-129 0 -217 -90.5t-88 -221.5t88 -221.5t217 -90.5z" />
    <glyph glyph-name="Oacute" unicode="&#xd3;" horiz-adv-x="815" 
d="M430 749h-32l89 137h40zM408 681q143 0 242 -100.5t99 -245.5t-99 -245.5t-242 -100.5q-144 0 -243 100t-99 246q0 145 99 245.5t243 100.5zM408 23q128 0 216 90.5t88 221.5t-88 221.5t-216 90.5q-129 0 -217 -90.5t-88 -221.5t88 -221.5t217 -90.5z" />
    <glyph glyph-name="Ocircumflex" unicode="&#xd4;" horiz-adv-x="815" 
d="M311 742h-39l120 137h33l119 -137h-38l-98 111zM408 681q143 0 242 -100.5t99 -245.5t-99 -245.5t-242 -100.5q-144 0 -243 100t-99 246q0 145 99 245.5t243 100.5zM408 23q128 0 216 90.5t88 221.5t-88 221.5t-216 90.5q-129 0 -217 -90.5t-88 -221.5t88 -221.5
t217 -90.5z" />
    <glyph glyph-name="Otilde" unicode="&#xd5;" horiz-adv-x="815" 
d="M347 832q-21 0 -33 -14t-12 -38h-29q0 39 20 59.5t52 20.5q29 0 65 -27t58 -27q43 0 43 54h29q0 -39 -20 -61t-51 -22q-29 0 -64.5 27.5t-57.5 27.5zM408 681q143 0 242 -100.5t99 -245.5t-99 -245.5t-242 -100.5q-144 0 -243 100t-99 246q0 145 99 245.5t243 100.5z
M408 23q128 0 216 90.5t88 221.5t-88 221.5t-216 90.5q-129 0 -217 -90.5t-88 -221.5t88 -221.5t217 -90.5z" />
    <glyph glyph-name="Odieresis" unicode="&#xd6;" horiz-adv-x="815" 
d="M316 770q-14 0 -23 9t-9 22t9.5 22t22.5 9t22.5 -9t9.5 -22t-9 -22t-23 -9zM500 770q-14 0 -22.5 9t-8.5 22t9 22t22 9t22.5 -9t9.5 -22t-9 -22t-23 -9zM408 681q143 0 242 -100.5t99 -245.5t-99 -245.5t-242 -100.5q-144 0 -243 100t-99 246q0 145 99 245.5t243 100.5z
M408 23q128 0 216 90.5t88 221.5t-88 221.5t-216 90.5q-129 0 -217 -90.5t-88 -221.5t88 -221.5t217 -90.5z" />
    <glyph glyph-name="multiply" unicode="&#xd7;" horiz-adv-x="491" 
d="M270 305l146 -146l-24 -24l-146 146l-147 -146l-23 24l146 146l-146 146l23 24l147 -146l146 146l24 -24z" />
    <glyph glyph-name="Oslash" unicode="&#xd8;" horiz-adv-x="815" 
d="M727 631l-64 -64q86 -97 86 -232q0 -145 -99 -245.5t-242 -100.5q-135 0 -233 90l-64 -64l-22 22l64 64q-87 100 -87 234q0 145 99 245.5t243 100.5q136 0 233 -92l64 64zM103 335q0 -121 76 -208l437 437q-86 83 -208 83q-129 0 -217 -90.5t-88 -221.5zM408 23
q128 0 216 90.5t88 221.5q0 119 -75 207l-437 -438q87 -81 208 -81z" />
    <glyph glyph-name="Ugrave" unicode="&#xd9;" horiz-adv-x="728" 
d="M346 749l-97 137h40l90 -137h-33zM637 670v-383q0 -134 -75 -216t-198 -82t-198 82t-75 216v383h36v-383q0 -118 65 -190.5t172 -72.5q106 0 171 72t65 191v383h37z" />
    <glyph glyph-name="Uacute" unicode="&#xda;" horiz-adv-x="728" 
d="M386 749h-32l89 137h40zM637 670v-383q0 -134 -75 -216t-198 -82t-198 82t-75 216v383h36v-383q0 -118 65 -190.5t172 -72.5q106 0 171 72t65 191v383h37z" />
    <glyph glyph-name="Ucircumflex" unicode="&#xdb;" horiz-adv-x="728" 
d="M267 742h-39l120 137h33l119 -137h-38l-98 111zM637 670v-383q0 -134 -75 -216t-198 -82t-198 82t-75 216v383h36v-383q0 -118 65 -190.5t172 -72.5q106 0 171 72t65 191v383h37z" />
    <glyph glyph-name="Udieresis" unicode="&#xdc;" horiz-adv-x="728" 
d="M272 770q-14 0 -23 9t-9 22t9.5 22t22.5 9t22.5 -9t9.5 -22t-9 -22t-23 -9zM456 770q-14 0 -22.5 9t-8.5 22t9 22t22 9t22.5 -9t9.5 -22t-9 -22t-23 -9zM637 670v-383q0 -134 -75 -216t-198 -82t-198 82t-75 216v383h36v-383q0 -118 65 -190.5t172 -72.5q106 0 171 72
t65 191v383h37z" />
    <glyph glyph-name="Yacute" unicode="&#xdd;" horiz-adv-x="655" 
d="M350 749h-32l89 137h40zM345 247v-247h-36v249l-286 421h42l262 -388l263 388h42z" />
    <glyph glyph-name="Thorn" unicode="&#xde;" horiz-adv-x="612" 
d="M137 539h215q102 0 165 -57t63 -147q0 -89 -63 -146.5t-165 -57.5h-215v-131h-36v670h36v-131zM137 164h214q86 0 139.5 48t53.5 123t-53.5 123t-139.5 48h-214v-342z" />
    <glyph glyph-name="germandbls" unicode="&#xdf;" horiz-adv-x="653" 
d="M425 384q80 -13 128 -62t48 -128q0 -86 -57 -145t-157 -59q-98 0 -179 45l12 29q77 -42 167 -42q85 0 133.5 49.5t48.5 122.5q0 82 -60 127.5t-159 45.5h-54v32h52q79 0 127.5 42t48.5 109q0 70 -51 112.5t-134 42.5q-92 0 -147.5 -59.5t-55.5 -159.5v-486h-35v485
q0 114 65 183t173 69q98 0 158.5 -50.5t60.5 -131.5q0 -61 -35.5 -108t-97.5 -63z" />
    <glyph glyph-name="agrave" unicode="&#xe0;" horiz-adv-x="544" 
d="M263 567l-97 137h40l90 -137h-33zM276 498q88 0 139.5 -48t51.5 -135v-315h-34v107q-28 -54 -83.5 -86t-125.5 -32q-78 0 -125 39.5t-47 101.5q0 67 51.5 108.5t147.5 41.5l182 -1v34q0 73 -42.5 113.5t-113.5 40.5q-65 0 -110 -33t-54 -86l-33 9q11 63 64.5 102
t131.5 39zM226 20q87 0 147 54t60 134v41h-182q-80 0 -122.5 -33t-42.5 -86q0 -48 38.5 -79t101.5 -31z" />
    <glyph glyph-name="aacute" unicode="&#xe1;" horiz-adv-x="544" 
d="M304 567h-32l89 137h40zM276 498q88 0 139.5 -48t51.5 -135v-315h-34v107q-28 -54 -83.5 -86t-125.5 -32q-78 0 -125 39.5t-47 101.5q0 67 51.5 108.5t147.5 41.5l182 -1v34q0 73 -42.5 113.5t-113.5 40.5q-65 0 -110 -33t-54 -86l-33 9q11 63 64.5 102t131.5 39zM226 20
q87 0 147 54t60 134v41h-182q-80 0 -122.5 -33t-42.5 -86q0 -48 38.5 -79t101.5 -31z" />
    <glyph glyph-name="acircumflex" unicode="&#xe2;" horiz-adv-x="544" 
d="M184 560h-39l120 137h33l119 -137h-38l-98 111zM276 498q88 0 139.5 -48t51.5 -135v-315h-34v107q-28 -54 -83.5 -86t-125.5 -32q-78 0 -125 39.5t-47 101.5q0 67 51.5 108.5t147.5 41.5l182 -1v34q0 73 -42.5 113.5t-113.5 40.5q-65 0 -110 -33t-54 -86l-33 9
q11 63 64.5 102t131.5 39zM226 20q87 0 147 54t60 134v41h-182q-80 0 -122.5 -33t-42.5 -86q0 -48 38.5 -79t101.5 -31z" />
    <glyph glyph-name="atilde" unicode="&#xe3;" horiz-adv-x="544" 
d="M220 649q-21 0 -33 -14t-12 -38h-29q0 39 20 59.5t52 20.5q28 0 64 -27t59 -27q43 0 43 54h29q0 -39 -20 -61t-51 -22q-29 0 -64.5 27.5t-57.5 27.5zM276 498q88 0 139.5 -48t51.5 -135v-315h-34v107q-28 -54 -83.5 -86t-125.5 -32q-78 0 -125 39.5t-47 101.5
q0 67 51.5 108.5t147.5 41.5l182 -1v34q0 73 -42.5 113.5t-113.5 40.5q-65 0 -110 -33t-54 -86l-33 9q11 63 64.5 102t131.5 39zM226 20q87 0 147 54t60 134v41h-182q-80 0 -122.5 -33t-42.5 -86q0 -48 38.5 -79t101.5 -31z" />
    <glyph glyph-name="adieresis" unicode="&#xe4;" horiz-adv-x="544" 
d="M189 588q-14 0 -23 9t-9 22t9.5 22t22.5 9t22.5 -9t9.5 -22t-9 -22t-23 -9zM373 588q-13 0 -22 9t-9 22t9 22t22 9t22.5 -9t9.5 -22t-9 -22t-23 -9zM276 498q88 0 139.5 -48t51.5 -135v-315h-34v107q-28 -54 -83.5 -86t-125.5 -32q-78 0 -125 39.5t-47 101.5
q0 67 51.5 108.5t147.5 41.5l182 -1v34q0 73 -42.5 113.5t-113.5 40.5q-65 0 -110 -33t-54 -86l-33 9q11 63 64.5 102t131.5 39zM226 20q87 0 147 54t60 134v41h-182q-80 0 -122.5 -33t-42.5 -86q0 -48 38.5 -79t101.5 -31z" />
    <glyph glyph-name="aring" unicode="&#xe5;" horiz-adv-x="544" 
d="M281 554q-38 0 -65 26t-27 63t27 63.5t65 26.5t65 -26.5t27 -63.5t-27 -63t-65 -26zM281 708q-28 0 -47 -19t-19 -46q0 -26 19 -45t47 -19t47.5 19t19.5 45q0 27 -19.5 46t-47.5 19zM276 498q88 0 139.5 -48t51.5 -135v-315h-34v107q-28 -54 -83.5 -86t-125.5 -32
q-78 0 -125 39.5t-47 101.5q0 67 51.5 108.5t147.5 41.5l182 -1v34q0 73 -42.5 113.5t-113.5 40.5q-65 0 -110 -33t-54 -86l-33 9q11 63 64.5 102t131.5 39zM226 20q87 0 147 54t60 134v41h-182q-80 0 -122.5 -33t-42.5 -86q0 -48 38.5 -79t101.5 -31z" />
    <glyph glyph-name="ae" unicode="&#xe6;" horiz-adv-x="947" 
d="M895 236h-426q3 -99 59 -157t144 -58q57 0 111 36.5t72 99.5l31 -8q-17 -70 -80 -115t-134 -45q-80 0 -137 41.5t-83 115.5q-21 -72 -79.5 -114.5t-137.5 -42.5q-88 0 -135.5 39t-47.5 101q0 64 49 100t134 36h201v57q0 65 -43 105t-113 40q-74 0 -118 -32t-52 -89l-32 9
q8 66 61 104.5t142 38.5q69 0 118.5 -35.5t63.5 -94.5q63 130 209 130q97 0 158.5 -70t64.5 -179v-13zM469 265h390q-7 90 -58 146t-127 56q-85 0 -142 -54.5t-63 -147.5zM436 236h-201q-69 0 -109 -28t-40 -78t39 -80t112 -30q85 0 142 57t57 150v9z" />
    <glyph glyph-name="ccedilla" unicode="&#xe7;" horiz-adv-x="575" 
d="M301 22q65 0 116.5 33t73.5 88l32 -10q-22 -61 -78.5 -100t-129.5 -44l-88 -167h-40l98 167q-98 6 -165.5 76t-67.5 179q0 111 73.5 182.5t175.5 71.5q77 0 138 -40.5t84 -108.5l-32 -11q-21 59 -73 93.5t-117 34.5q-88 0 -151.5 -62.5t-63.5 -159.5q0 -100 63 -161
t152 -61z" />
    <glyph glyph-name="egrave" unicode="&#xe8;" horiz-adv-x="591" 
d="M286 567l-97 137h40l90 -137h-33zM539 258v-14h-452l-1 -2q0 -99 64 -160t147 -61q72 0 124 34t77 101l31 -8q-26 -76 -86.5 -117.5t-145.5 -41.5q-97 0 -171 70t-74 183q0 115 75 185.5t178 70.5q101 0 166 -66.5t68 -173.5zM305 466q-81 0 -144.5 -52.5t-72.5 -140.5
h416q-7 89 -62.5 141t-136.5 52z" />
    <glyph glyph-name="eacute" unicode="&#xe9;" horiz-adv-x="591" 
d="M327 567h-32l89 137h40zM539 258v-14h-452l-1 -2q0 -99 64 -160t147 -61q72 0 124 34t77 101l31 -8q-26 -76 -86.5 -117.5t-145.5 -41.5q-97 0 -171 70t-74 183q0 115 75 185.5t178 70.5q101 0 166 -66.5t68 -173.5zM305 466q-81 0 -144.5 -52.5t-72.5 -140.5h416
q-7 89 -62.5 141t-136.5 52z" />
    <glyph glyph-name="ecircumflex" unicode="&#xea;" horiz-adv-x="591" 
d="M207 560h-39l120 137h33l119 -137h-38l-98 111zM539 258v-14h-452l-1 -2q0 -99 64 -160t147 -61q72 0 124 34t77 101l31 -8q-26 -76 -86.5 -117.5t-145.5 -41.5q-97 0 -171 70t-74 183q0 115 75 185.5t178 70.5q101 0 166 -66.5t68 -173.5zM305 466q-81 0 -144.5 -52.5
t-72.5 -140.5h416q-7 89 -62.5 141t-136.5 52z" />
    <glyph glyph-name="edieresis" unicode="&#xeb;" horiz-adv-x="591" 
d="M212 588q-14 0 -23 9t-9 22t9.5 22t22.5 9t22.5 -9t9.5 -22t-9 -22t-23 -9zM396 588q-14 0 -22.5 9t-8.5 22t9 22t22 9t22.5 -9t9.5 -22t-9 -22t-23 -9zM539 258v-14h-452l-1 -2q0 -99 64 -160t147 -61q72 0 124 34t77 101l31 -8q-26 -76 -86.5 -117.5t-145.5 -41.5
q-97 0 -171 70t-74 183q0 115 75 185.5t178 70.5q101 0 166 -66.5t68 -173.5zM305 466q-81 0 -144.5 -52.5t-72.5 -140.5h416q-7 89 -62.5 141t-136.5 52z" />
    <glyph glyph-name="igrave" unicode="&#xec;" horiz-adv-x="265" 
d="M58 704l90 -137h-33l-97 137h40zM150 0h-35v488h35v-488z" />
    <glyph glyph-name="iacute" unicode="&#xed;" horiz-adv-x="265" 
d="M156 567h-32l89 137h40zM150 0h-35v488h35v-488z" />
    <glyph glyph-name="icircumflex" unicode="&#xee;" horiz-adv-x="265" 
d="M269 560h-38l-98 111l-97 -111h-39l120 137h33zM115 488h35v-488h-35v488z" />
    <glyph glyph-name="idieresis" unicode="&#xef;" horiz-adv-x="265" 
d="M41 650q13 0 22.5 -9t9.5 -22t-9 -22t-23 -9t-23 9t-9 22t9.5 22t22.5 9zM225 650q13 0 22.5 -9t9.5 -22t-9 -22t-23 -9q-13 0 -22 9t-9 22t9 22t22 9zM150 0h-35v488h35v-488z" />
    <glyph glyph-name="eth" unicode="&#xf0;" horiz-adv-x="609" 
d="M445 668l-92 -45q96 -79 150 -179.5t54 -195.5q0 -115 -73 -187t-175 -72q-106 0 -181.5 71.5t-75.5 183.5q0 111 74 182.5t177 71.5q106 0 172 -72q-57 104 -155 181l-130 -63l-12 26l116 57q-69 51 -159 86v7h63q69 -32 129 -77l105 52zM308 21q102 0 158.5 71
t56.5 156q0 94 -64.5 156t-152.5 62q-90 0 -155 -62.5t-65 -159.5q0 -98 65 -160.5t157 -62.5z" />
    <glyph glyph-name="ntilde" unicode="&#xf1;" horiz-adv-x="630" 
d="M266 649q-21 0 -33 -14t-12 -38h-29q0 39 20 59.5t52 20.5q28 0 64 -27t59 -27q43 0 43 54h29q0 -39 -20 -61t-51 -22q-29 0 -64.5 27.5t-57.5 27.5zM343 498q89 0 143 -57.5t54 -152.5v-288h-35v285q0 81 -45 131t-118 50q-93 0 -149.5 -59t-56.5 -158v-249h-35v488h35
v-118q27 61 81 94.5t126 33.5z" />
    <glyph glyph-name="ograve" unicode="&#xf2;" horiz-adv-x="613" 
d="M288 576l-97 137h40l90 -137h-33zM306 498q110 0 182.5 -72t72.5 -181q0 -110 -72.5 -182.5t-182.5 -72.5q-108 0 -181 72.5t-73 182.5q0 109 73 181t181 72zM306 21q94 0 157.5 64t63.5 160t-63.5 158.5t-157.5 62.5t-157 -62.5t-63 -158.5t63.5 -160t156.5 -64z" />
    <glyph glyph-name="oacute" unicode="&#xf3;" horiz-adv-x="613" 
d="M329 576h-32l89 137h40zM306 498q110 0 182.5 -72t72.5 -181q0 -110 -72.5 -182.5t-182.5 -72.5q-108 0 -181 72.5t-73 182.5q0 109 73 181t181 72zM306 21q94 0 157.5 64t63.5 160t-63.5 158.5t-157.5 62.5t-157 -62.5t-63 -158.5t63.5 -160t156.5 -64z" />
    <glyph glyph-name="ocircumflex" unicode="&#xf4;" horiz-adv-x="613" 
d="M209 569h-39l120 137h33l119 -137h-38l-98 111zM306 498q110 0 182.5 -72t72.5 -181q0 -110 -72.5 -182.5t-182.5 -72.5q-108 0 -181 72.5t-73 182.5q0 109 73 181t181 72zM306 21q94 0 157.5 64t63.5 160t-63.5 158.5t-157.5 62.5t-157 -62.5t-63 -158.5t63.5 -160
t156.5 -64z" />
    <glyph glyph-name="otilde" unicode="&#xf5;" horiz-adv-x="613" 
d="M245 658q-21 0 -33 -14t-12 -38h-29q0 39 20 59.5t52 20.5q29 0 65 -27t58 -27q43 0 43 54h29q0 -39 -20 -61t-51 -22q-29 0 -64.5 27.5t-57.5 27.5zM306 498q110 0 182.5 -72t72.5 -181q0 -110 -72.5 -182.5t-182.5 -72.5q-108 0 -181 72.5t-73 182.5q0 109 73 181
t181 72zM306 21q94 0 157.5 64t63.5 160t-63.5 158.5t-157.5 62.5t-157 -62.5t-63 -158.5t63.5 -160t156.5 -64z" />
    <glyph glyph-name="odieresis" unicode="&#xf6;" horiz-adv-x="613" 
d="M214 597q-14 0 -23 9t-9 22t9.5 22t22.5 9t22.5 -9t9.5 -22t-9 -22t-23 -9zM398 597q-14 0 -22.5 8.5t-8.5 22.5q0 13 9 22t22 9t22.5 -9t9.5 -22t-9 -22t-23 -9zM306 498q110 0 182.5 -72t72.5 -181q0 -110 -72.5 -182.5t-182.5 -72.5q-108 0 -181 72.5t-73 182.5
q0 109 73 181t181 72zM306 21q94 0 157.5 64t63.5 160t-63.5 158.5t-157.5 62.5t-157 -62.5t-63 -158.5t63.5 -160t156.5 -64z" />
    <glyph glyph-name="divide" unicode="&#xf7;" horiz-adv-x="580" 
d="M289 519q13 0 22.5 -9.5t9.5 -21.5q0 -13 -9 -22t-23 -9q-13 0 -22 8.5t-9 22.5q0 12 9 21.5t22 9.5zM503 289h-425v32h425v-32zM289 153q13 0 22.5 -9t9.5 -22t-9 -21.5t-23 -8.5q-13 0 -22 8.5t-9 21.5t9 22t22 9z" />
    <glyph glyph-name="oslash" unicode="&#xf8;" horiz-adv-x="609" 
d="M557 475l-59 -59q63 -69 63 -171q0 -110 -72.5 -182.5t-182.5 -72.5q-102 0 -171 63l-62 -61l-21 20l62 62q-62 70 -62 171q0 109 73 181t181 72q101 0 171 -62l59 59zM86 245q0 -87 52 -147l316 315q-63 53 -148 53q-94 0 -157 -62.5t-63 -158.5zM306 21q94 0 157.5 64
t63.5 160q0 86 -53 147l-316 -315q62 -56 148 -56z" />
    <glyph glyph-name="ugrave" unicode="&#xf9;" horiz-adv-x="630" 
d="M290 567l-97 137h40l90 -137h-33zM529 488v-488h-34v120q-26 -61 -80.5 -95.5t-127.5 -34.5q-89 0 -143 58t-54 152v288h35v-285q0 -81 45 -131t118 -50q93 0 150 59t57 158v249h34z" />
    <glyph glyph-name="uacute" unicode="&#xfa;" horiz-adv-x="630" 
d="M331 567h-32l89 137h40zM529 488v-488h-34v120q-26 -61 -80.5 -95.5t-127.5 -34.5q-89 0 -143 58t-54 152v288h35v-285q0 -81 45 -131t118 -50q93 0 150 59t57 158v249h34z" />
    <glyph glyph-name="ucircumflex" unicode="&#xfb;" horiz-adv-x="630" 
d="M212 560h-39l120 137h33l119 -137h-38l-98 111zM529 488v-488h-34v120q-26 -61 -80.5 -95.5t-127.5 -34.5q-89 0 -143 58t-54 152v288h35v-285q0 -81 45 -131t118 -50q93 0 150 59t57 158v249h34z" />
    <glyph glyph-name="udieresis" unicode="&#xfc;" horiz-adv-x="630" 
d="M217 588q-14 0 -23 9t-9 22t9.5 22t22.5 9t22.5 -9t9.5 -22t-9 -22t-23 -9zM401 588q-13 0 -22 9t-9 22t9 22t22 9t22.5 -9t9.5 -22t-9 -22t-23 -9zM529 488v-488h-34v120q-26 -61 -80.5 -95.5t-127.5 -34.5q-89 0 -143 58t-54 152v288h35v-285q0 -81 45 -131t118 -50
q93 0 150 59t57 158v249h34z" />
    <glyph glyph-name="yacute" unicode="&#xfd;" horiz-adv-x="546" 
d="M305 567h-32l89 137h40zM523 488l-345 -728h-39l116 243l-232 485h40l210 -446l212 446h38z" />
    <glyph glyph-name="thorn" unicode="&#xfe;" horiz-adv-x="653" 
d="M354 498q104 0 176 -70.5t72 -183.5t-72 -184t-176 -71q-71 0 -129 35t-89 98v-362h-35v960h35v-354q31 62 89 97t129 35zM351 21q91 0 153.5 61.5t62.5 161.5q0 99 -62.5 160.5t-153.5 61.5q-86 0 -150.5 -62t-64.5 -160q0 -99 64.5 -161t150.5 -62z" />
    <glyph glyph-name="ydieresis" unicode="&#xff;" horiz-adv-x="546" 
d="M191 588q-14 0 -23 9t-9 22t9.5 22t22.5 9t22.5 -9t9.5 -22t-9 -22t-23 -9zM375 588q-13 0 -22 9t-9 22t9 22t22 9t22.5 -9t9.5 -22t-9 -22t-23 -9zM523 488l-345 -728h-39l116 243l-232 485h40l210 -446l212 446h38z" />
    <glyph glyph-name="Amacron" unicode="&#x100;" horiz-adv-x="682" 
d="M470 774h-258v29h258v-29zM664 0h-38l-87 189h-396l-87 -189h-38l307 670h32zM525 222l-184 400l-183 -400h367z" />
    <glyph glyph-name="amacron" unicode="&#x101;" horiz-adv-x="544" 
d="M410 592h-258v29h258v-29zM276 498q88 0 139.5 -48t51.5 -135v-315h-34v107q-28 -54 -83.5 -86t-125.5 -32q-78 0 -125 39.5t-47 101.5q0 67 51.5 108.5t147.5 41.5l182 -1v34q0 73 -42.5 113.5t-113.5 40.5q-65 0 -110 -33t-54 -86l-33 9q11 63 64.5 102t131.5 39z
M226 20q87 0 147 54t60 134v41h-182q-80 0 -122.5 -33t-42.5 -86q0 -48 38.5 -79t101.5 -31z" />
    <glyph glyph-name="Abreve" unicode="&#x102;" horiz-adv-x="682" 
d="M341 742q-56 0 -92 34.5t-36 88.5h30q0 -43 28 -69.5t70 -26.5t70 26.5t28 69.5h31q0 -54 -36.5 -88.5t-92.5 -34.5zM664 0h-38l-87 189h-396l-87 -189h-38l307 670h32zM525 222l-184 400l-183 -400h367z" />
    <glyph glyph-name="abreve" unicode="&#x103;" horiz-adv-x="544" 
d="M281 559q-56 0 -92 34.5t-36 88.5h30q0 -43 28 -69.5t70 -26.5t70 26.5t28 69.5h31q0 -54 -36.5 -88.5t-92.5 -34.5zM276 498q88 0 139.5 -48t51.5 -135v-315h-34v107q-28 -54 -83.5 -86t-125.5 -32q-78 0 -125 39.5t-47 101.5q0 67 51.5 108.5t147.5 41.5l182 -1v34
q0 73 -42.5 113.5t-113.5 40.5q-65 0 -110 -33t-54 -86l-33 9q11 63 64.5 102t131.5 39zM226 20q87 0 147 54t60 134v41h-182q-80 0 -122.5 -33t-42.5 -86q0 -48 38.5 -79t101.5 -31z" />
    <glyph glyph-name="Aogonek" unicode="&#x104;" horiz-adv-x="682" 
d="M689 -154l6 -26q-38 -13 -55 -13q-30 0 -54 18.5t-24 59.5q0 29 15.5 53.5t55.5 61.5h-7l-87 189h-396l-87 -189h-38l307 670h32l307 -670h1q-42 -40 -57.5 -63t-15.5 -49q0 -52 51 -52q13 0 46 10zM525 222l-184 400l-183 -400h367z" />
    <glyph glyph-name="aogonek" unicode="&#x105;" horiz-adv-x="544" 
d="M496 -154l6 -26q-38 -13 -55 -13q-30 0 -54 18.5t-24 59.5q0 29 15.5 53.5t55.5 61.5h-7v107q-28 -54 -83.5 -86t-125.5 -32q-78 0 -125 39.5t-47 101.5q0 67 51.5 108.5t147.5 41.5l182 -1v34q0 73 -42.5 113.5t-113.5 40.5q-65 0 -110 -33t-54 -86l-33 9
q11 63 64.5 102t131.5 39q88 0 139.5 -48t51.5 -135v-314l5 -1q-42 -40 -57.5 -63t-15.5 -49q0 -52 51 -52q13 0 46 10zM226 20q87 0 147 54t60 134v41h-182q-80 0 -122.5 -33t-42.5 -86q0 -48 38.5 -79t101.5 -31z" />
    <glyph glyph-name="Cacute" unicode="&#x106;" horiz-adv-x="788" 
d="M430 749h-32l89 137h40zM410 23q99 0 172 46.5t105 125.5l35 -10q-36 -89 -118.5 -142.5t-193.5 -53.5q-144 0 -244 100.5t-100 245.5t100 245.5t244 100.5q110 0 193 -53t119 -141l-34 -12q-32 79 -105.5 125.5t-172.5 46.5q-129 0 -218 -90.5t-89 -221.5t89 -221.5
t218 -90.5z" />
    <glyph glyph-name="cacute" unicode="&#x107;" horiz-adv-x="575" 
d="M327 567h-32l89 137h40zM301 22q65 0 116.5 33t73.5 88l32 -10q-23 -65 -84 -104.5t-138 -39.5q-103 0 -176 70.5t-73 184.5q0 111 73.5 182.5t175.5 71.5q77 0 138 -40.5t84 -108.5l-32 -11q-21 59 -73 93.5t-117 34.5q-88 0 -151.5 -62.5t-63.5 -159.5q0 -100 63 -161
t152 -61z" />
    <glyph glyph-name="Cdotaccent" unicode="&#x10a;" horiz-adv-x="788" 
d="M408 776q-13 0 -22 8.5t-9 21.5t9 22t22 9t22.5 -9t9.5 -22t-9 -21.5t-23 -8.5zM410 23q99 0 172 46.5t105 125.5l35 -10q-36 -89 -118.5 -142.5t-193.5 -53.5q-144 0 -244 100.5t-100 245.5t100 245.5t244 100.5q110 0 193 -53t119 -141l-34 -12q-32 79 -105.5 125.5
t-172.5 46.5q-129 0 -218 -90.5t-89 -221.5t89 -221.5t218 -90.5z" />
    <glyph glyph-name="cdotaccent" unicode="&#x10b;" horiz-adv-x="575" 
d="M304 594q-13 0 -22 8.5t-9 21.5t9 22t22 9t22.5 -9t9.5 -22t-9 -21.5t-23 -8.5zM301 22q65 0 116.5 33t73.5 88l32 -10q-23 -65 -84 -104.5t-138 -39.5q-103 0 -176 70.5t-73 184.5q0 111 73.5 182.5t175.5 71.5q77 0 138 -40.5t84 -108.5l-32 -11q-21 59 -73 93.5
t-117 34.5q-88 0 -151.5 -62.5t-63.5 -159.5q0 -100 63 -161t152 -61z" />
    <glyph glyph-name="Ccaron" unicode="&#x10c;" horiz-adv-x="788" 
d="M392 744l-120 136h39l97 -111l98 111h38l-119 -136h-33zM410 23q99 0 172 46.5t105 125.5l35 -10q-36 -89 -118.5 -142.5t-193.5 -53.5q-144 0 -244 100.5t-100 245.5t100 245.5t244 100.5q110 0 193 -53t119 -141l-34 -12q-32 79 -105.5 125.5t-172.5 46.5
q-129 0 -218 -90.5t-89 -221.5t89 -221.5t218 -90.5z" />
    <glyph glyph-name="ccaron" unicode="&#x10d;" horiz-adv-x="575" 
d="M288 562l-120 136h39l97 -111l98 111h38l-119 -136h-33zM301 22q65 0 116.5 33t73.5 88l32 -10q-23 -65 -84 -104.5t-138 -39.5q-103 0 -176 70.5t-73 184.5q0 111 73.5 182.5t175.5 71.5q77 0 138 -40.5t84 -108.5l-32 -11q-21 59 -73 93.5t-117 34.5
q-88 0 -151.5 -62.5t-63.5 -159.5q0 -100 63 -161t152 -61z" />
    <glyph glyph-name="Dcaron" unicode="&#x10e;" horiz-adv-x="743" 
d="M330 744l-120 136h39l97 -111l98 111h38l-119 -136h-33zM101 670h203q176 0 274.5 -95.5t98.5 -239.5t-98.5 -239.5t-274.5 -95.5h-203v670zM137 33h166q161 0 249.5 86.5t88.5 215.5t-88.5 215.5t-249.5 86.5h-166v-604z" />
    <glyph glyph-name="dcaron" unicode="&#x10f;" horiz-adv-x="653" 
d="M518 770h35v-770h-35v122q-31 -63 -89 -98t-129 -35q-104 0 -176 71t-72 184t72 183.5t176 70.5q71 0 129 -35t89 -97v404zM689 770l-8 -153h-28v153h36zM302 21q87 0 151.5 62t64.5 161q0 98 -64.5 160t-151.5 62q-91 0 -153.5 -61.5t-62.5 -160.5q0 -100 62.5 -161.5
t153.5 -61.5z" />
    <glyph glyph-name="Dcroat" unicode="&#x110;" horiz-adv-x="749" 
d="M116 670h204q176 0 274.5 -95.5t98.5 -239.5t-98.5 -239.5t-274.5 -95.5h-204v321h-86v33h86v316zM153 33h166q161 0 249 86.5t88 215.5t-88 215.5t-249 86.5h-166v-283h188v-33h-188v-288z" />
    <glyph glyph-name="dcroat" unicode="&#x111;" horiz-adv-x="671" 
d="M640 591h-87v-591h-35v122q-31 -63 -89 -98t-129 -35q-104 0 -176 71t-72 184t72 183.5t176 70.5q71 0 129 -35t89 -97v225h-191v28h191v151h35v-151h87v-28zM302 21q87 0 151.5 62t64.5 161q0 98 -64.5 160t-151.5 62q-91 0 -153.5 -61.5t-62.5 -160.5
q0 -100 62.5 -161.5t153.5 -61.5z" />
    <glyph glyph-name="Emacron" unicode="&#x112;" horiz-adv-x="639" 
d="M469 774h-258v29h258v-29zM576 33v-33h-475v670h474v-33h-438v-284h408v-32h-408v-288h439z" />
    <glyph glyph-name="emacron" unicode="&#x113;" horiz-adv-x="591" 
d="M433 592h-258v29h258v-29zM539 258v-14h-452l-1 -2q0 -99 64 -160t147 -61q72 0 124 34t77 101l31 -8q-26 -76 -86.5 -117.5t-145.5 -41.5q-97 0 -171 70t-74 183q0 115 75 185.5t178 70.5q101 0 166 -66.5t68 -173.5zM305 466q-81 0 -144.5 -52.5t-72.5 -140.5h416
q-7 89 -62.5 141t-136.5 52z" />
    <glyph glyph-name="Edotaccent" unicode="&#x116;" horiz-adv-x="639" 
d="M340 776q-13 0 -22 8.5t-9 21.5t9 22t22 9t22.5 -9t9.5 -22t-9 -21.5t-23 -8.5zM576 33v-33h-475v670h474v-33h-438v-284h408v-32h-408v-288h439z" />
    <glyph glyph-name="edotaccent" unicode="&#x117;" horiz-adv-x="591" 
d="M304 594q-13 0 -22 8.5t-9 21.5t9 22t22 9t22.5 -9t9.5 -22t-9 -21.5t-23 -8.5zM539 258v-14h-452l-1 -2q0 -99 64 -160t147 -61q72 0 124 34t77 101l31 -8q-26 -76 -86.5 -117.5t-145.5 -41.5q-97 0 -171 70t-74 183q0 115 75 185.5t178 70.5q101 0 166 -66.5t68 -173.5
zM305 466q-81 0 -144.5 -52.5t-72.5 -140.5h416q-7 89 -62.5 141t-136.5 52z" />
    <glyph glyph-name="Eogonek" unicode="&#x118;" horiz-adv-x="639" 
d="M576 0h-38q-42 -40 -57.5 -63t-15.5 -49q0 -52 51 -52q13 0 46 10l6 -26q-38 -13 -55 -13q-30 0 -54 18.5t-24 59.5q0 29 15.5 53.5t55.5 61.5h-405v670h474v-33h-438v-284h408v-32h-408v-288h439v-33z" />
    <glyph glyph-name="eogonek" unicode="&#x119;" horiz-adv-x="592" 
d="M540 244h-454q0 -100 62.5 -161.5t146.5 -61.5q69 0 126 39.5t78 99.5l28 -9q-13 -36 -42 -73q-68 -87 -88.5 -119.5t-20.5 -61.5q0 -27 16 -41.5t44 -14.5q19 0 46 12l6 -26q-28 -15 -56 -15q-40 0 -63.5 21t-23.5 59q0 44 60 126q-50 -29 -110 -29q-99 0 -171 70.5
t-72 184.5q0 113 76 184t176 71q101 0 167.5 -67t68.5 -174v-14zM87 273h417q-7 90 -63 142t-136 52q-79 0 -144 -53.5t-74 -140.5z" />
    <glyph glyph-name="Ecaron" unicode="&#x11a;" horiz-adv-x="639" 
d="M324 744l-120 136h39l97 -111l98 111h38l-119 -136h-33zM576 33v-33h-475v670h474v-33h-438v-284h408v-32h-408v-288h439z" />
    <glyph glyph-name="ecaron" unicode="&#x11b;" horiz-adv-x="591" 
d="M288 562l-120 136h39l97 -111l98 111h38l-119 -136h-33zM539 258v-14h-452l-1 -2q0 -99 64 -160t147 -61q72 0 124 34t77 101l31 -8q-26 -76 -86.5 -117.5t-145.5 -41.5q-97 0 -171 70t-74 183q0 115 75 185.5t178 70.5q101 0 166 -66.5t68 -173.5zM305 466
q-81 0 -144.5 -52.5t-72.5 -140.5h416q-7 89 -62.5 141t-136.5 52z" />
    <glyph glyph-name="Gbreve" unicode="&#x11e;" horiz-adv-x="809" 
d="M410 742q-56 0 -92 34.5t-36 88.5h30q0 -43 28 -69.5t70 -26.5t70 26.5t28 69.5h31q0 -54 -36.5 -88.5t-92.5 -34.5zM743 351v-16q0 -146 -93 -246t-240 -100q-145 0 -244.5 100.5t-99.5 245.5t99.5 245.5t244.5 100.5q109 0 191 -50.5t119 -136.5l-33 -13
q-34 76 -107 121t-170 45q-130 0 -218.5 -90.5t-88.5 -221.5t89 -221.5t219 -90.5q127 0 209 84.5t88 210.5h-339v33h374z" />
    <glyph glyph-name="gbreve" unicode="&#x11f;" horiz-adv-x="653" 
d="M314 559q-56 0 -92 34.5t-36 88.5h30q0 -43 28 -69.5t70 -26.5t70 26.5t28 69.5h31q0 -54 -36.5 -88.5t-92.5 -34.5zM553 488v-515q-1 -96 -72 -159.5t-172 -63.5q-185 0 -240 141l33 19q48 -126 207 -126q86 0 147 54.5t62 137.5v146q-31 -63 -89 -98t-129 -35
q-104 0 -176 71t-72 184t72 183.5t176 70.5q71 0 129 -35t89 -97v122h35zM302 21q87 0 151.5 62t64.5 161q0 98 -64.5 160t-151.5 62q-91 0 -153.5 -61.5t-62.5 -160.5q0 -100 62.5 -161.5t153.5 -61.5z" />
    <glyph glyph-name="Gdotaccent" unicode="&#x120;" horiz-adv-x="809" 
d="M410 776q-13 0 -22 8.5t-9 21.5t9 22t22 9t22.5 -9t9.5 -22t-9 -21.5t-23 -8.5zM743 351v-16q0 -146 -93 -246t-240 -100q-145 0 -244.5 100.5t-99.5 245.5t99.5 245.5t244.5 100.5q109 0 191 -50.5t119 -136.5l-33 -13q-34 76 -107 121t-170 45q-130 0 -218.5 -90.5
t-88.5 -221.5t89 -221.5t219 -90.5q127 0 209 84.5t88 210.5h-339v33h374z" />
    <glyph glyph-name="gdotaccent" unicode="&#x121;" horiz-adv-x="653" 
d="M313 594q-13 0 -22 8.5t-9 21.5t9 22t22 9t22.5 -9t9.5 -22t-9 -21.5t-23 -8.5zM553 488v-515q-1 -96 -72 -159.5t-172 -63.5q-185 0 -240 141l33 19q48 -126 207 -126q86 0 147 54.5t62 137.5v146q-31 -63 -89 -98t-129 -35q-104 0 -176 71t-72 184t72 183.5t176 70.5
q71 0 129 -35t89 -97v122h35zM302 21q87 0 151.5 62t64.5 161q0 98 -64.5 160t-151.5 62q-91 0 -153.5 -61.5t-62.5 -160.5q0 -100 62.5 -161.5t153.5 -61.5z" />
    <glyph glyph-name="Gcommaaccent" unicode="&#x122;" horiz-adv-x="809" 
d="M743 351v-16q0 -146 -93 -246t-240 -100q-145 0 -244.5 100.5t-99.5 245.5t99.5 245.5t244.5 100.5q109 0 191 -50.5t119 -136.5l-33 -13q-34 76 -107 121t-170 45q-130 0 -218.5 -90.5t-88.5 -221.5t89 -221.5t219 -90.5q127 0 209 84.5t88 210.5h-339v33h374zM378 -45
h38l-52 -137h-30z" />
    <glyph glyph-name="gcommaaccent" unicode="&#x123;" horiz-adv-x="643" 
d="M343 573h-38l53 137h29zM553 488v-515q-1 -96 -72 -159.5t-172 -63.5q-185 0 -240 141l33 19q48 -126 207 -126q86 0 147 54.5t62 137.5v146q-31 -63 -89 -98t-129 -35q-104 0 -176 71t-72 184t72 183.5t176 70.5q71 0 129 -35t89 -97v122h35zM302 21q87 0 151.5 62
t64.5 161q0 98 -64.5 160t-151.5 62q-91 0 -153.5 -61.5t-62.5 -160.5q0 -100 62.5 -161.5t153.5 -61.5z" />
    <glyph glyph-name="Hbar" unicode="&#x126;" horiz-adv-x="747" 
d="M716 481h-75v-481h-36v316h-464v-316h-36v481h-75v32h75v157h36v-157h464v157h36v-157h75v-32zM605 481h-464v-132h464v132z" />
    <glyph glyph-name="hbar" unicode="&#x127;" horiz-adv-x="620" 
d="M359 498q88 0 142 -57.5t54 -152.5v-288h-34v285q0 81 -45.5 131t-118.5 50q-93 0 -149.5 -59t-56.5 -158v-249h-35v591h-86v27h86v152h35v-152h193v-27h-193v-223q26 61 80.5 95.5t127.5 34.5z" />
    <glyph glyph-name="Imacron" unicode="&#x12a;" horiz-adv-x="426" 
d="M342 774h-258v29h258v-29zM231 637v-604h167v-33h-369v33h166v604h-166v33h369v-33h-167z" />
    <glyph glyph-name="imacron" unicode="&#x12b;" horiz-adv-x="265" 
d="M262 592h-258v29h258v-29zM150 0h-35v488h35v-488z" />
    <glyph glyph-name="Iogonek" unicode="&#x12e;" horiz-adv-x="426" 
d="M231 637v-604h167v-33h-166q-42 -40 -57.5 -63t-15.5 -49q0 -52 51 -52q13 0 46 10l6 -26q-38 -13 -55 -13q-30 0 -54 18.5t-24 59.5q0 29 15.5 53.5t55.5 61.5h-171v33h166v604h-166v33h369v-33h-167z" />
    <glyph glyph-name="iogonek" unicode="&#x12f;" horiz-adv-x="265" 
d="M133 594q-13 0 -22 8.5t-9 21.5t9 22t22 9t22.5 -9t9.5 -22t-9 -21.5t-23 -8.5zM175 -154l6 -26q-38 -13 -55 -13q-30 0 -54 18.5t-24 59.5q0 29 15.5 53.5t55.5 61.5h-4v488h35v-488h1q-42 -40 -57.5 -63t-15.5 -49q0 -52 51 -52q13 0 46 10z" />
    <glyph glyph-name="Idotaccent" unicode="&#x130;" horiz-adv-x="426" 
d="M213 776q-13 0 -22 8.5t-9 21.5t9 22t22 9t22.5 -9t9.5 -22t-9 -21.5t-23 -8.5zM231 637v-604h167v-33h-369v33h166v604h-166v33h369v-33h-167z" />
    <glyph glyph-name="dotlessi" unicode="&#x131;" horiz-adv-x="265" 
d="M150 0h-35v488h35v-488z" />
    <glyph glyph-name="IJ" unicode="&#x132;" horiz-adv-x="1021" 
d="M398 670v-33h-167v-604h167v-33h-369v33h166v604h-166v33h369zM929 670v-422q0 -115 -65.5 -187t-172.5 -72q-96 0 -159.5 58.5t-75.5 154.5l34 10q11 -86 65 -137.5t136 -51.5q90 0 146 62.5t56 162.5v389h-284v33h320z" />
    <glyph glyph-name="ij" unicode="&#x133;" horiz-adv-x="531" 
d="M127 668q13 0 22.5 -9.5t9.5 -21.5q0 -13 -9 -22t-23 -9t-23 9t-9 22q0 12 9.5 21.5t22.5 9.5zM403 668q13 0 22.5 -9.5t9.5 -21.5q0 -13 -9 -22t-23 -9t-23 9t-9 22q0 12 9.5 21.5t22.5 9.5zM145 0h-35v488h35v-488zM247 -234l11 30q23 -13 49 -13q35 0 56.5 21t21.5 56
v628h35v-630q0 -49 -29.5 -78.5t-77.5 -29.5q-37 0 -66 16z" />
    <glyph glyph-name="Kcommaaccent" unicode="&#x136;" horiz-adv-x="699" 
d="M673 0h-48l-306 356l-182 -185v-171h-36v670h36v-454l446 454h45l-284 -288zM337 -45h38l-52 -137h-30z" />
    <glyph glyph-name="kcommaaccent" unicode="&#x137;" horiz-adv-x="586" 
d="M568 0h-45l-243 262l-144 -145v-117h-35v770h35v-605l323 323h45l-200 -202zM286 -45h38l-52 -137h-30z" />
    <glyph glyph-name="Lacute" unicode="&#x139;" horiz-adv-x="582" 
d="M141 749h-32l89 137h40zM550 33v-33h-449v670h36v-637h413z" />
    <glyph glyph-name="lacute" unicode="&#x13a;" horiz-adv-x="298" 
d="M131 849h-32l89 137h40zM126 770v-669q0 -35 21.5 -57t57.5 -22q31 0 57 18l11 -29q-33 -22 -72 -22q-49 0 -79.5 30.5t-30.5 80.5v670h35z" />
    <glyph glyph-name="Lcommaaccent" unicode="&#x13b;" horiz-adv-x="582" 
d="M550 33v-33h-449v670h36v-637h413zM321 -45h38l-52 -137h-30z" />
    <glyph glyph-name="lcommaaccent" unicode="&#x13c;" horiz-adv-x="298" 
d="M126 770v-669q0 -35 21.5 -57t57.5 -22q31 0 57 18l11 -29q-33 -22 -72 -22q-49 0 -79.5 30.5t-30.5 80.5v670h35zM113 -182l44 137h38l-52 -137h-30z" />
    <glyph glyph-name="Lcaron" unicode="&#x13d;" horiz-adv-x="582" 
d="M550 33v-33h-449v670h36v-637h413zM343 517h-28v153h36z" />
    <glyph glyph-name="lcaron" unicode="&#x13e;" horiz-adv-x="298" 
d="M126 770v-669q0 -35 21.5 -57t57.5 -22q31 0 57 18l11 -29q-33 -22 -72 -22q-49 0 -79.5 30.5t-30.5 80.5v670h35zM245 617h-28v153h36z" />
    <glyph glyph-name="Ldot" unicode="&#x13f;" horiz-adv-x="580" 
d="M550 33v-33h-449v670h36v-637h413zM373 307q-14 0 -22.5 8.5t-8.5 21.5t9 22t22 9t22.5 -9t9.5 -22t-9 -21.5t-23 -8.5z" />
    <glyph glyph-name="ldot" unicode="&#x140;" horiz-adv-x="317" 
d="M136 770v-669q0 -35 21.5 -57t57.5 -22q31 0 57 18l11 -29q-33 -22 -72 -22q-49 0 -79.5 30.5t-30.5 80.5v670h35zM276 359q13 0 22 -9t9 -22t-9 -21.5t-22 -8.5q-14 0 -23 8.5t-9 21.5t9.5 22t22.5 9z" />
    <glyph glyph-name="Lslash" unicode="&#x141;" horiz-adv-x="592" 
d="M562 33v-33h-450v275l-82 -41v35l82 41v360h36v-343l185 92v-35l-185 -92v-259h414z" />
    <glyph glyph-name="lslash" unicode="&#x142;" horiz-adv-x="324" 
d="M288 40l10 -29q-33 -22 -72 -22q-49 0 -79.5 30.5t-30.5 80.5v219l-86 -57v36l86 57v415h35v-391l104 69v-36l-104 -69v-242q0 -35 22 -57t58 -22q30 0 57 18z" />
    <glyph glyph-name="Nacute" unicode="&#x143;" horiz-adv-x="759" 
d="M412 749h-32l89 137h40zM659 670v-670h-34l-488 609v-609h-36v670h33l488 -609v609h37z" />
    <glyph glyph-name="nacute" unicode="&#x144;" horiz-adv-x="630" 
d="M350 567h-32l89 137h40zM343 498q89 0 143 -57.5t54 -152.5v-288h-35v285q0 81 -45 131t-118 50q-93 0 -149.5 -59t-56.5 -158v-249h-35v488h35v-118q27 61 81 94.5t126 33.5z" />
    <glyph glyph-name="Ncommaaccent" unicode="&#x145;" horiz-adv-x="759" 
d="M659 670v-670h-34l-488 609v-609h-36v670h33l488 -609v609h37zM378 -45h38l-52 -137h-30z" />
    <glyph glyph-name="ncommaaccent" unicode="&#x146;" horiz-adv-x="630" 
d="M343 498q89 0 143 -57.5t54 -152.5v-288h-35v285q0 81 -45 131t-118 50q-93 0 -149.5 -59t-56.5 -158v-249h-35v488h35v-118q27 61 81 94.5t126 33.5zM305 -45h38l-52 -137h-30z" />
    <glyph glyph-name="Ncaron" unicode="&#x147;" horiz-adv-x="759" 
d="M374 744l-120 136h39l97 -111l98 111h38l-119 -136h-33zM659 670v-670h-34l-488 609v-609h-36v670h33l488 -609v609h37z" />
    <glyph glyph-name="ncaron" unicode="&#x148;" horiz-adv-x="630" 
d="M311 562l-120 136h39l97 -111l98 111h38l-119 -136h-33zM343 498q89 0 143 -57.5t54 -152.5v-288h-35v285q0 81 -45 131t-118 50q-93 0 -149.5 -59t-56.5 -158v-249h-35v488h35v-118q27 61 81 94.5t126 33.5z" />
    <glyph glyph-name="Eng" unicode="&#x14a;" horiz-adv-x="757" 
d="M659 670v-811q0 -49 -29.5 -79t-78.5 -30q-39 0 -73 21l11 30q25 -18 56 -18q36 0 57 20.5t21 55.5v143l-486 607v-609h-36v670h33l488 -609v609h37z" />
    <glyph glyph-name="eng" unicode="&#x14b;" horiz-adv-x="604" 
d="M343 498q89 0 143 -57.5t54 -152.5v-429q0 -49 -29.5 -79t-78.5 -30q-40 0 -73 22l11 27q26 -17 56 -17q36 0 57.5 21t21.5 56v426q0 81 -45 131t-118 50q-93 0 -149.5 -59t-56.5 -158v-249h-35v488h35v-118q27 61 81 94.5t126 33.5z" />
    <glyph glyph-name="Omacron" unicode="&#x14c;" horiz-adv-x="815" 
d="M537 774h-258v29h258v-29zM408 681q143 0 242 -100.5t99 -245.5t-99 -245.5t-242 -100.5q-144 0 -243 100t-99 246q0 145 99 245.5t243 100.5zM408 23q128 0 216 90.5t88 221.5t-88 221.5t-216 90.5q-129 0 -217 -90.5t-88 -221.5t88 -221.5t217 -90.5z" />
    <glyph glyph-name="omacron" unicode="&#x14d;" horiz-adv-x="613" 
d="M435 601h-258v29h258v-29zM306 498q110 0 182.5 -72t72.5 -181q0 -110 -72.5 -182.5t-182.5 -72.5q-108 0 -181 72.5t-73 182.5q0 109 73 181t181 72zM306 21q94 0 157.5 64t63.5 160t-63.5 158.5t-157.5 62.5t-157 -62.5t-63 -158.5t63.5 -160t156.5 -64z" />
    <glyph glyph-name="Ohungarumlaut" unicode="&#x150;" horiz-adv-x="815" 
d="M356 749h-33l89 136h44zM453 749l88 136h44l-99 -136h-33zM408 681q143 0 242 -100.5t99 -245.5t-99 -245.5t-242 -100.5q-144 0 -243 100t-99 246q0 145 99 245.5t243 100.5zM408 23q128 0 216 90.5t88 221.5t-88 221.5t-216 90.5q-129 0 -217 -90.5t-88 -221.5
t88 -221.5t217 -90.5z" />
    <glyph glyph-name="ohungarumlaut" unicode="&#x151;" horiz-adv-x="613" 
d="M254 576h-33l89 136h44zM351 576l88 136h44l-99 -136h-33zM306 498q110 0 182.5 -72t72.5 -181q0 -110 -72.5 -182.5t-182.5 -72.5q-108 0 -181 72.5t-73 182.5q0 109 73 181t181 72zM306 21q94 0 157.5 64t63.5 160t-63.5 158.5t-157.5 62.5t-157 -62.5t-63 -158.5
t63.5 -160t156.5 -64z" />
    <glyph glyph-name="OE" unicode="&#x152;" horiz-adv-x="1058" 
d="M556 637v-284h408v-32h-408v-288h438v-33h-521q-191 0 -299 93t-108 242q0 148 108.5 241.5t298.5 93.5h521v-33h-438zM519 33v604h-46q-175 0 -272.5 -83.5t-97.5 -218.5t97.5 -218.5t272.5 -83.5h46z" />
    <glyph glyph-name="oe" unicode="&#x153;" horiz-adv-x="1067" 
d="M1015 258v-14h-452l-1 -2q0 -99 64 -160t147 -61q72 0 124 34t77 101l31 -8q-26 -76 -86.5 -117.5t-145.5 -41.5q-74 0 -138 43t-91 117q-27 -73 -91 -116t-147 -43q-108 0 -181 72.5t-73 182.5q0 109 73 181t181 72q84 0 148 -43.5t91 -116.5q28 74 93 117t143 43
q101 0 166 -66.5t68 -173.5zM306 21q94 0 157.5 64t63.5 160t-63.5 158.5t-157.5 62.5t-157 -62.5t-63 -158.5t63.5 -160t156.5 -64zM781 466q-81 0 -144.5 -52.5t-72.5 -140.5h416q-7 89 -62.5 141t-136.5 52z" />
    <glyph glyph-name="Racute" unicode="&#x154;" horiz-adv-x="667" 
d="M344 749h-32l89 137h40zM631 0h-49l-284 318h-161v-318h-36v670h301q92 0 148 -48t56 -128t-56 -128t-148 -48h-58zM137 351h265q76 0 122 39.5t46 103.5t-46 103.5t-122 39.5h-265v-286z" />
    <glyph glyph-name="racute" unicode="&#x155;" horiz-adv-x="398" 
d="M235 567h-32l89 137h40zM350 491q19 0 34 -3l-6 -32q-9 1 -29 1q-98 0 -155.5 -72.5t-57.5 -173.5v-211h-34v488h34v-149q29 68 84.5 110t129.5 42z" />
    <glyph glyph-name="Rcommaaccent" unicode="&#x156;" horiz-adv-x="667" 
d="M631 0h-49l-284 318h-161v-318h-36v670h301q92 0 148 -48t56 -128t-56 -128t-148 -48h-58zM137 351h265q76 0 122 39.5t46 103.5t-46 103.5t-122 39.5h-265v-286zM309 -45h38l-52 -137h-30z" />
    <glyph glyph-name="rcommaaccent" unicode="&#x157;" horiz-adv-x="398" 
d="M350 491q19 0 34 -3l-6 -32q-9 1 -29 1q-98 0 -155.5 -72.5t-57.5 -173.5v-211h-34v488h34v-149q29 68 84.5 110t129.5 42zM100 -45h38l-52 -137h-30z" />
    <glyph glyph-name="Rcaron" unicode="&#x158;" horiz-adv-x="667" 
d="M305 744l-120 136h39l97 -111l98 111h38l-119 -136h-33zM631 0h-49l-284 318h-161v-318h-36v670h301q92 0 148 -48t56 -128t-56 -128t-148 -48h-58zM137 351h265q76 0 122 39.5t46 103.5t-46 103.5t-122 39.5h-265v-286z" />
    <glyph glyph-name="rcaron" unicode="&#x159;" horiz-adv-x="398" 
d="M196 562l-120 136h39l97 -111l98 111h38l-119 -136h-33zM350 491q19 0 34 -3l-6 -32q-9 1 -29 1q-98 0 -155.5 -72.5t-57.5 -173.5v-211h-34v488h34v-149q29 68 84.5 110t129.5 42z" />
    <glyph glyph-name="Sacute" unicode="&#x15a;" horiz-adv-x="616" 
d="M335 749h-32l89 137h40zM306 681q98 0 161.5 -49t79.5 -129l-35 -9q-14 71 -69 113t-138 42q-80 0 -132 -41t-52 -109q0 -55 33.5 -83t93.5 -42l148 -36q35 -8 60 -18t50.5 -27.5t39 -46.5t13.5 -68q0 -86 -64.5 -137.5t-171.5 -51.5q-108 0 -181.5 54.5t-85.5 144.5
l39 9q9 -80 72.5 -127.5t158.5 -47.5q90 0 143 41.5t53 112.5q0 58 -31.5 85.5t-100.5 43.5l-158 37q-150 36 -150 157q0 82 62.5 132t161.5 50z" />
    <glyph glyph-name="sacute" unicode="&#x15b;" horiz-adv-x="507" 
d="M284 567h-32l89 137h40zM59 134l33 9q5 -56 54 -90t122 -34q67 0 107.5 29.5t40.5 79.5q0 40 -26 60.5t-73 30.5l-122 27q-59 13 -89 40.5t-30 74.5q0 62 49 99.5t127 37.5q75 0 124 -35.5t64 -92.5l-33 -11q-10 50 -51 79.5t-105 29.5q-63 0 -101.5 -28.5t-38.5 -76.5
q0 -39 25.5 -58.5t72.5 -30.5l118 -26q56 -12 90 -38.5t34 -80.5q0 -65 -50.5 -102.5t-133.5 -37.5q-87 0 -143 39t-65 106z" />
    <glyph glyph-name="Scedilla" unicode="&#x15e;" horiz-adv-x="616" 
d="M559 178q0 -83 -60.5 -134t-162.5 -55l-88 -167h-40l98 167q-102 5 -170.5 59t-79.5 140l39 9q9 -80 72.5 -127.5t158.5 -47.5q90 0 143 41.5t53 112.5q0 58 -31.5 85.5t-100.5 43.5l-158 37q-150 36 -150 157q0 82 62.5 132t161.5 50q98 0 161.5 -49t79.5 -129l-35 -9
q-14 71 -69 113t-138 42q-80 0 -132 -41t-52 -109q0 -55 33.5 -83t93.5 -42l148 -36q35 -8 60 -18t50.5 -27.5t39 -46.5t13.5 -68z" />
    <glyph glyph-name="scedilla" unicode="&#x15f;" horiz-adv-x="507" 
d="M451 129q0 -61 -46 -98.5t-122 -41.5l-88 -167h-40l98 167q-82 4 -134 42.5t-60 102.5l33 9q5 -56 54 -90t122 -34q67 0 107.5 29.5t40.5 79.5q0 40 -26 60.5t-73 30.5l-122 27q-59 13 -89 40.5t-30 74.5q0 62 49 99.5t127 37.5q75 0 124 -35.5t64 -92.5l-33 -11
q-10 50 -51 79.5t-105 29.5q-63 0 -101.5 -28.5t-38.5 -76.5q0 -39 25.5 -58.5t72.5 -30.5l118 -26q56 -12 90 -38.5t34 -80.5z" />
    <glyph glyph-name="Scaron" unicode="&#x160;" horiz-adv-x="616" 
d="M297 744l-120 136h39l97 -111l98 111h38l-119 -136h-33zM248 374l148 -36q35 -8 60 -18t50.5 -27.5t39 -46.5t13.5 -68q0 -86 -64.5 -137.5t-171.5 -51.5q-108 0 -181.5 54.5t-85.5 144.5l39 9q9 -80 72.5 -127.5t158.5 -47.5q90 0 143 41.5t53 112.5q0 58 -31.5 85.5
t-100.5 43.5l-158 37q-150 36 -150 157q0 82 62.5 132t161.5 50q98 0 161.5 -49t79.5 -129l-35 -9q-14 71 -69 113t-138 42q-80 0 -132 -41t-52 -109q0 -55 33.5 -83t93.5 -42z" />
    <glyph glyph-name="scaron" unicode="&#x161;" horiz-adv-x="507" 
d="M246 562l-120 136h39l97 -111l98 111h38l-119 -136h-33zM209 274l118 -26q56 -12 90 -38.5t34 -80.5q0 -65 -50.5 -102.5t-133.5 -37.5q-87 0 -143 39t-65 106l33 9q5 -56 54 -90t122 -34q67 0 107.5 29.5t40.5 79.5q0 40 -26 60.5t-73 30.5l-122 27q-59 13 -89 40.5
t-30 74.5q0 62 49 99.5t127 37.5q75 0 124 -35.5t64 -92.5l-33 -11q-10 50 -51 79.5t-105 29.5q-63 0 -101.5 -28.5t-38.5 -76.5q0 -39 25.5 -58.5t72.5 -30.5z" />
    <glyph glyph-name="tcedilla" unicode="&#x163;" horiz-adv-x="363" 
d="M332 57l15 -28q-47 -40 -103 -40h-5l-88 -167h-40l100 170q-48 10 -76 46.5t-28 92.5v326h-107v31h107v182h35v-182h187v-31h-187v-325q0 -50 28.5 -80t75.5 -30q46 0 86 35z" />
    <glyph glyph-name="Tcaron" unicode="&#x164;" horiz-adv-x="631" 
d="M300 744l-120 136h39l97 -111l98 111h38l-119 -136h-33zM602 637h-268v-637h-38v637h-267v33h573v-33z" />
    <glyph glyph-name="tcaron" unicode="&#x165;" horiz-adv-x="363" 
d="M251 568h-28v153h36zM332 57l15 -28q-47 -40 -103 -40q-62 0 -99.5 38.5t-37.5 103.5v326h-107v31h107v182h35v-182h187v-31h-187v-325q0 -50 28.5 -80t75.5 -30q46 0 86 35z" />
    <glyph glyph-name="Tbar" unicode="&#x166;" horiz-adv-x="648" 
d="M334 637v-285h141v-31h-141v-321h-38v321h-140v31h140v285h-267v33h573v-33h-268z" />
    <glyph glyph-name="tbar" unicode="&#x167;" horiz-adv-x="363" 
d="M331 57l14 -29q-45 -39 -101 -39q-63 0 -100.5 38.5t-37.5 103.5v161h-102v31h102v134h-106v31h106v182h35v-182h187v-31h-187v-134h158v-31h-158v-160q0 -50 29 -80t76 -30q45 0 85 35z" />
    <glyph glyph-name="Umacron" unicode="&#x16a;" horiz-adv-x="728" 
d="M493 774h-258v29h258v-29zM637 670v-383q0 -134 -75 -216t-198 -82t-198 82t-75 216v383h36v-383q0 -118 65 -190.5t172 -72.5q106 0 171 72t65 191v383h37z" />
    <glyph glyph-name="umacron" unicode="&#x16b;" horiz-adv-x="630" 
d="M438 592h-258v29h258v-29zM529 488v-488h-34v120q-26 -61 -80.5 -95.5t-127.5 -34.5q-89 0 -143 58t-54 152v288h35v-285q0 -81 45 -131t118 -50q93 0 150 59t57 158v249h34z" />
    <glyph glyph-name="Uring" unicode="&#x16e;" horiz-adv-x="728" 
d="M364 736q-38 0 -65 26t-27 63t27 63.5t65 26.5t65 -26.5t27 -63.5t-27 -63t-65 -26zM364 890q-28 0 -47 -19t-19 -46q0 -26 19 -45t47 -19t47.5 19t19.5 45q0 27 -19.5 46t-47.5 19zM637 670v-383q0 -134 -75 -216t-198 -82t-198 82t-75 216v383h36v-383
q0 -118 65 -190.5t172 -72.5q106 0 171 72t65 191v383h37z" />
    <glyph glyph-name="uring" unicode="&#x16f;" horiz-adv-x="630" 
d="M309 554q-38 0 -65 26t-27 63t27 63.5t65 26.5t65 -26.5t27 -63.5t-27 -63t-65 -26zM309 708q-28 0 -47 -19t-19 -46q0 -26 19 -45t47 -19t47.5 19t19.5 45q0 27 -19.5 46t-47.5 19zM529 488v-488h-34v120q-26 -61 -80.5 -95.5t-127.5 -34.5q-89 0 -143 58t-54 152v288
h35v-285q0 -81 45 -131t118 -50q93 0 150 59t57 158v249h34z" />
    <glyph glyph-name="Uhungarumlaut" unicode="&#x170;" horiz-adv-x="728" 
d="M312 749h-33l89 136h44zM409 749l88 136h44l-99 -136h-33zM637 670v-383q0 -134 -75 -216t-198 -82t-198 82t-75 216v383h36v-383q0 -118 65 -190.5t172 -72.5q106 0 171 72t65 191v383h37z" />
    <glyph glyph-name="uhungarumlaut" unicode="&#x171;" horiz-adv-x="630" 
d="M257 567h-33l89 136h44zM354 567l88 136h44l-99 -136h-33zM529 488v-488h-34v120q-26 -61 -80.5 -95.5t-127.5 -34.5q-89 0 -143 58t-54 152v288h35v-285q0 -81 45 -131t118 -50q93 0 150 59t57 158v249h34z" />
    <glyph glyph-name="Uogonek" unicode="&#x172;" horiz-adv-x="728" 
d="M637 670v-391q0 -145 -96 -226q-96 -80 -118.5 -105t-22.5 -58q0 -24 15.5 -38.5t42.5 -14.5q14 0 46 12l8 -27q-36 -15 -58 -15q-39 0 -63 21.5t-24 56.5q0 30 16 54t58 61q-41 -11 -77 -11q-122 0 -197.5 80t-75.5 210v391h36v-391q0 -114 66 -184.5t171 -70.5
t170.5 70.5t65.5 184.5v391h37z" />
    <glyph glyph-name="uogonek" unicode="&#x173;" horiz-adv-x="630" 
d="M554 -154l6 -26q-38 -13 -55 -13q-30 0 -54 18.5t-24 59.5q0 29 15.5 53.5t55.5 61.5h-3v120q-26 -61 -80.5 -95.5t-127.5 -34.5q-89 0 -143 58t-54 152v288h35v-285q0 -81 45 -131t118 -50q93 0 150 59t57 158v249h34v-488h1q-42 -40 -57.5 -63t-15.5 -49q0 -52 51 -52
q13 0 46 10z" />
    <glyph glyph-name="Wcircumflex" unicode="&#x174;" horiz-adv-x="946" 
d="M376 742h-39l120 137h33l119 -137h-38l-98 111zM923 670l-214 -670h-35l-201 613l-201 -613h-35l-214 670h38l195 -614l199 614h36l199 -614l195 614h38z" />
    <glyph glyph-name="wcircumflex" unicode="&#x175;" horiz-adv-x="755" 
d="M280 560h-39l120 137h33l119 -137h-38l-98 111zM732 489l-166 -492h-36l-153 433l-152 -433h-36l-166 492h37l149 -437l154 436h29l155 -437l148 438h37z" />
    <glyph glyph-name="Ycircumflex" unicode="&#x176;" horiz-adv-x="655" 
d="M231 742h-39l120 137h33l119 -137h-38l-98 111zM345 247v-247h-36v249l-286 421h42l262 -388l263 388h42z" />
    <glyph glyph-name="ycircumflex" unicode="&#x177;" horiz-adv-x="546" 
d="M186 560h-39l120 137h33l119 -137h-38l-98 111zM523 488l-345 -728h-39l116 243l-232 485h40l210 -446l212 446h38z" />
    <glyph glyph-name="Ydieresis" unicode="&#x178;" horiz-adv-x="655" 
d="M236 770q-14 0 -23 9t-9 22t9.5 22t22.5 9t22.5 -9t9.5 -22t-9 -22t-23 -9zM420 770q-14 0 -22.5 9t-8.5 22t9 22t22 9t22.5 -9t9.5 -22t-9 -22t-23 -9zM345 247v-247h-36v249l-286 421h42l262 -388l263 388h42z" />
    <glyph glyph-name="Zacute" unicode="&#x179;" horiz-adv-x="626" 
d="M345 749h-32l89 137h40zM568 32v-32h-501v22l452 616h-438v32h486v-23l-449 -615h450z" />
    <glyph glyph-name="zacute" unicode="&#x17a;" horiz-adv-x="493" 
d="M279 567h-32l89 137h40zM453 31v-31h-413v26l358 431h-347v31h393v-26l-358 -431h367z" />
    <glyph glyph-name="Zdotaccent" unicode="&#x17b;" horiz-adv-x="626" 
d="M322 776q-13 0 -22 8.5t-9 21.5t9 22t22 9t22.5 -9t9.5 -22t-9 -21.5t-23 -8.5zM568 32v-32h-501v22l452 616h-438v32h486v-23l-449 -615h450z" />
    <glyph glyph-name="zdotaccent" unicode="&#x17c;" horiz-adv-x="493" 
d="M256 594q-13 0 -22 8.5t-9 21.5t9 22t22 9t22.5 -9t9.5 -22t-9 -21.5t-23 -8.5zM453 31v-31h-413v26l358 431h-347v31h393v-26l-358 -431h367z" />
    <glyph glyph-name="Zcaron" unicode="&#x17d;" horiz-adv-x="626" 
d="M306 744l-120 136h39l97 -111l98 111h38l-119 -136h-33zM568 32v-32h-501v22l452 616h-438v32h486v-23l-449 -615h450z" />
    <glyph glyph-name="zcaron" unicode="&#x17e;" horiz-adv-x="493" 
d="M240 562l-120 136h39l97 -111l98 111h38l-119 -136h-33zM453 31v-31h-413v26l358 431h-347v31h393v-26l-358 -431h367z" />
    <glyph glyph-name="florin" unicode="&#x192;" horiz-adv-x="526" 
d="M396 648q-57 0 -94.5 -35t-48.5 -95l-30 -168h213v-31h-219l-67 -370q-10 -52 -45 -83t-85 -31q-39 0 -68 23l16 28q23 -18 53 -18q36 0 62 22t32 59l67 370h-132v31h138l30 168q14 75 62 119t120 44q65 0 106 -41l-17 -27q-37 35 -93 35z" />
    <glyph glyph-name="AEacute" unicode="&#x1fc;" horiz-adv-x="1039" 
d="M722 749h-32l89 137h40zM564 637v-284h409v-32h-409v-288h439v-33h-475v178h-335l-133 -178h-42l502 670h483v-33h-439zM528 211v417l-311 -417h311z" />
    <glyph glyph-name="aeacute" unicode="&#x1fd;" horiz-adv-x="947" 
d="M491 567h-32l89 137h40zM895 236h-426q3 -99 59 -157t144 -58q57 0 111 36.5t72 99.5l31 -8q-17 -70 -80 -115t-134 -45q-80 0 -137 41.5t-83 115.5q-21 -72 -79.5 -114.5t-137.5 -42.5q-88 0 -135.5 39t-47.5 101q0 64 49 100t134 36h201v57q0 65 -43 105t-113 40
q-74 0 -118 -32t-52 -89l-32 9q8 66 61 104.5t142 38.5q69 0 118.5 -35.5t63.5 -94.5q63 130 209 130q97 0 158.5 -70t64.5 -179v-13zM469 265h390q-7 90 -58 146t-127 56q-85 0 -142 -54.5t-63 -147.5zM436 236h-201q-69 0 -109 -28t-40 -78t39 -80t112 -30q85 0 142 57
t57 150v9z" />
    <glyph glyph-name="Scommaaccent" unicode="&#x218;" horiz-adv-x="616" 
d="M306 681q98 0 161.5 -49t79.5 -129l-35 -9q-14 71 -69 113t-138 42q-80 0 -132 -41t-52 -109q0 -55 33.5 -83t93.5 -42l148 -36q35 -8 60 -18t50.5 -27.5t39 -46.5t13.5 -68q0 -86 -64.5 -137.5t-171.5 -51.5q-108 0 -181.5 54.5t-85.5 144.5l39 9q9 -80 72.5 -127.5
t158.5 -47.5q90 0 143 41.5t53 112.5q0 58 -31.5 85.5t-100.5 43.5l-158 37q-150 36 -150 157q0 82 62.5 132t161.5 50zM249 -182l44 137h38l-52 -137h-30z" />
    <glyph glyph-name="scommaaccent" unicode="&#x219;" horiz-adv-x="507" 
d="M59 134l33 9q5 -56 54 -90t122 -34q67 0 107.5 29.5t40.5 79.5q0 40 -26 60.5t-73 30.5l-122 27q-59 13 -89 40.5t-30 74.5q0 62 49 99.5t127 37.5q75 0 124 -35.5t64 -92.5l-33 -11q-10 50 -51 79.5t-105 29.5q-63 0 -101.5 -28.5t-38.5 -76.5q0 -39 25.5 -58.5
t72.5 -30.5l118 -26q56 -12 90 -38.5t34 -80.5q0 -65 -50.5 -102.5t-133.5 -37.5q-87 0 -143 39t-65 106zM196 -182l44 137h38l-52 -137h-30z" />
    <glyph glyph-name="uni021A" unicode="&#x21a;" horiz-adv-x="631" 
d="M602 637h-268v-637h-38v637h-267v33h573v-33zM295 -45h38l-52 -137h-30z" />
    <glyph glyph-name="uni021B" unicode="&#x21b;" horiz-adv-x="363" 
d="M332 57l15 -28q-47 -40 -103 -40q-62 0 -99.5 38.5t-37.5 103.5v326h-107v31h107v182h35v-182h187v-31h-187v-325q0 -50 28.5 -80t75.5 -30q46 0 86 35zM196 -45h38l-52 -137h-30z" />
    <glyph glyph-name="circumflex" unicode="&#x2c6;" horiz-adv-x="600" 
d="M398 560l-98 111l-97 -111h-39l120 137h33l119 -137h-38z" />
    <glyph glyph-name="caron" unicode="&#x2c7;" horiz-adv-x="600" 
d="M436 698l-119 -136h-33l-120 136h39l97 -111l98 111h38z" />
    <glyph glyph-name="breve" unicode="&#x2d8;" horiz-adv-x="600" 
d="M300 559q-56 0 -92 34.5t-36 88.5h30q0 -43 28 -69.5t70 -26.5t70 26.5t28 69.5h31q0 -54 -36.5 -88.5t-92.5 -34.5z" />
    <glyph glyph-name="dotaccent" unicode="&#x2d9;" horiz-adv-x="600" 
d="M300 655q13 0 22.5 -9t9.5 -22t-9 -21.5t-23 -8.5q-13 0 -22 8.5t-9 21.5t9 22t22 9z" />
    <glyph glyph-name="ring" unicode="&#x2da;" horiz-adv-x="600" 
d="M392 642q0 -37 -27 -63t-65 -26t-65 26t-27 63t27 63.5t65 26.5t65 -26.5t27 -63.5zM367 642q0 27 -19.5 46t-47.5 19t-47 -19t-19 -46q0 -26 19 -45t47 -19t47.5 19t19.5 45z" />
    <glyph glyph-name="ogonek" unicode="&#x2db;" horiz-adv-x="600" 
d="M287 4l28 -4q-42 -40 -57.5 -63t-15.5 -49q0 -52 51 -52q13 0 46 10l6 -26q-38 -13 -55 -13q-30 0 -54 18.5t-24 59.5q0 29 16.5 54.5t58.5 64.5z" />
    <glyph glyph-name="tilde" unicode="&#x2dc;" horiz-adv-x="600" 
d="M194 598h-29q0 39 20 59.5t52 20.5q29 0 65 -27t58 -27q43 0 43 54h29q0 -39 -20 -61t-51 -22q-29 0 -64.5 27.5t-57.5 27.5q-21 0 -33 -14t-12 -38z" />
    <glyph glyph-name="hungarumlaut" unicode="&#x2dd;" horiz-adv-x="600" 
d="M215 567h-33l89 136h44zM345 567h-33l88 136h44z" />
    <glyph glyph-name="uni0326" unicode="&#x326;" horiz-adv-x="0" 
d="M231 -182l44 137h38l-52 -137h-30z" />
    <glyph glyph-name="Wgrave" unicode="&#x1e80;" horiz-adv-x="946" 
d="M455 749l-97 137h40l90 -137h-33zM923 670l-214 -670h-35l-201 613l-201 -613h-35l-214 670h38l195 -614l199 614h36l199 -614l195 614h38z" />
    <glyph glyph-name="wgrave" unicode="&#x1e81;" horiz-adv-x="755" 
d="M359 567l-97 137h40l90 -137h-33zM732 489l-166 -492h-36l-153 433l-152 -433h-36l-166 492h37l149 -437l154 436h29l155 -437l148 438h37z" />
    <glyph glyph-name="Wacute" unicode="&#x1e82;" horiz-adv-x="946" 
d="M496 749h-32l89 137h40zM923 670l-214 -670h-35l-201 613l-201 -613h-35l-214 670h38l195 -614l199 614h36l199 -614l195 614h38z" />
    <glyph glyph-name="wacute" unicode="&#x1e83;" horiz-adv-x="755" 
d="M400 567h-32l89 137h40zM732 489l-166 -492h-36l-153 433l-152 -433h-36l-166 492h37l149 -437l154 436h29l155 -437l148 438h37z" />
    <glyph glyph-name="Wdieresis" unicode="&#x1e84;" horiz-adv-x="946" 
d="M381 770q-14 0 -23 9t-9 22t9.5 22t22.5 9t22.5 -9t9.5 -22t-9 -22t-23 -9zM565 770q-13 0 -22 9t-9 22t9 22t22 9t22.5 -9t9.5 -22t-9 -22t-23 -9zM923 670l-214 -670h-35l-201 613l-201 -613h-35l-214 670h38l195 -614l199 614h36l199 -614l195 614h38z" />
    <glyph glyph-name="wdieresis" unicode="&#x1e85;" horiz-adv-x="755" 
d="M285 588q-14 0 -23 9t-9 22t9.5 22t22.5 9t22.5 -9t9.5 -22t-9 -22t-23 -9zM469 588q-13 0 -22 9t-9 22t9 22t22 9t22.5 -9t9.5 -22t-9 -22t-23 -9zM732 489l-166 -492h-36l-153 433l-152 -433h-36l-166 492h37l149 -437l154 436h29l155 -437l148 438h37z" />
    <glyph glyph-name="Ygrave" unicode="&#x1ef2;" horiz-adv-x="655" 
d="M309 749l-97 137h40l90 -137h-33zM345 247v-247h-36v249l-286 421h42l262 -388l263 388h42z" />
    <glyph glyph-name="ygrave" unicode="&#x1ef3;" horiz-adv-x="546" 
d="M265 567l-97 137h40l90 -137h-33zM523 488l-345 -728h-39l116 243l-232 485h40l210 -446l212 446h38z" />
    <glyph glyph-name="endash" unicode="&#x2013;" horiz-adv-x="620" 
d="M560 240h-500v30h500v-30z" />
    <glyph glyph-name="emdash" unicode="&#x2014;" horiz-adv-x="1040" 
d="M980 240h-920v30h920v-30z" />
    <glyph glyph-name="quoteleft" unicode="&#x2018;" horiz-adv-x="226" 
d="M139 670h30l-70 -259h-44v2z" />
    <glyph glyph-name="quoteright" unicode="&#x2019;" horiz-adv-x="226" 
d="M87 411h-30l70 259h44v-2z" />
    <glyph glyph-name="quotesinglbase" unicode="&#x201a;" horiz-adv-x="226" 
d="M87 -132h-30l70 259h44v-2z" />
    <glyph glyph-name="quotedblleft" unicode="&#x201c;" horiz-adv-x="372" 
d="M139 670h30l-70 -259h-44v2zM286 670h29l-70 -259h-44v2z" />
    <glyph glyph-name="quotedblright" unicode="&#x201d;" horiz-adv-x="372" 
d="M87 411h-30l70 259h44v-2zM233 411h-30l71 259h43v-2z" />
    <glyph glyph-name="quotedblbase" unicode="&#x201e;" horiz-adv-x="372" 
d="M87 -132h-30l70 259h44v-2zM233 -132h-30l71 259h43v-2z" />
    <glyph glyph-name="dagger" unicode="&#x2020;" horiz-adv-x="322" 
d="M286 650v-29h-111v-236h-28v236h-111v29h111v90h28v-90h111z" />
    <glyph glyph-name="daggerdbl" unicode="&#x2021;" horiz-adv-x="322" 
d="M175 621v-117h111v-29h-111v-90h-28v90h-111v29h111v117h-111v29h111v90h28v-90h111v-29h-111z" />
    <glyph glyph-name="bullet" unicode="&#x2022;" horiz-adv-x="379" 
d="M189 394q56 0 94.5 -37.5t38.5 -89.5q0 -55 -38 -91t-95 -36q-56 0 -93.5 36t-37.5 91q0 52 38 89.5t93 37.5z" />
    <glyph glyph-name="ellipsis" unicode="&#x2026;" horiz-adv-x="544" 
d="M89 59q13 0 22.5 -9t9.5 -22t-9 -21.5t-23 -8.5q-13 0 -22 8.5t-9 21.5t9 22t22 9zM272 59q13 0 22.5 -9t9.5 -22t-9 -21.5t-23 -8.5t-23 8.5t-9 21.5t9.5 22t22.5 9zM454 59q13 0 22.5 -9t9.5 -22t-9 -21.5t-23 -8.5q-13 0 -22 8.5t-9 21.5t9 22t22 9z" />
    <glyph glyph-name="perthousand" unicode="&#x2030;" horiz-adv-x="1239" 
d="M219 681q67 0 114.5 -43.5t47.5 -114.5q0 -68 -48 -112t-114 -44q-65 0 -113 44t-48 112q0 71 47.5 114.5t113.5 43.5zM152 0l509 670h31l-509 -670h-31zM219 655q-53 0 -93.5 -37t-40.5 -95q0 -56 40.5 -92t93.5 -36q54 0 94 36t40 92q0 58 -40 95t-94 37zM637 303
q67 0 114.5 -43.5t47.5 -114.5q0 -67 -48 -111.5t-114 -44.5q-65 0 -113 44.5t-48 111.5q0 71 47.5 114.5t113.5 43.5zM1020 303q67 0 114.5 -43.5t47.5 -114.5q0 -67 -48 -111.5t-114 -44.5q-65 0 -113.5 44.5t-48.5 111.5q0 71 48 114.5t114 43.5zM637 277
q-53 0 -93.5 -37t-40.5 -95q0 -56 40.5 -92t93.5 -36q54 0 94 36t40 92q0 58 -40 95t-94 37zM1020 277q-53 0 -94 -37t-41 -95q0 -56 41 -92t94 -36t93.5 36t40.5 92q0 58 -40.5 95t-93.5 37z" />
    <glyph glyph-name="guilsinglleft" unicode="&#x2039;" horiz-adv-x="218" 
d="M25 262l130 178h38l-130 -178l130 -178h-38z" />
    <glyph glyph-name="guilsinglright" unicode="&#x203a;" horiz-adv-x="218" 
d="M25 84l130 178l-130 178h38l130 -178l-130 -178h-38z" />
    <glyph glyph-name="fraction" unicode="&#x2044;" horiz-adv-x="200" 
d="M-171 0l508 670h31l-508 -670h-31z" />
    <glyph glyph-name="Euro" unicode="&#x20ac;" horiz-adv-x="801" 
d="M700 224l35 -9q-24 -103 -91 -164t-162 -61q-100 0 -168.5 67t-90.5 182h-122v29h118q-4 28 -4 67q0 30 3 57h-117v29h121q19 119 88.5 189.5t171.5 70.5q95 0 162 -62t90 -165l-34 -10q-23 95 -80.5 149t-137.5 54q-86 0 -146 -61t-78 -165h289l-8 -29h-285
q-3 -27 -3 -57q0 -39 4 -67h251l-7 -29h-239q20 -100 79 -157.5t143 -57.5q80 0 137.5 53t80.5 147z" />
    <glyph glyph-name="uni2116" unicode="&#x2116;" horiz-adv-x="1240" 
d="M972 344q-68 0 -118 47.5t-50 121.5q0 73 50 120t118 47q70 0 119 -47t49 -120q0 -75 -49 -122t-119 -47zM622 670h37v-670h-34l-488 609v-609h-36v670h33l488 -609v609zM972 651q-54 0 -94.5 -39t-40.5 -99q0 -61 40 -100t95 -39q56 0 96 39t40 100q0 60 -40 99t-96 39z
M814 248h316v-31h-316v31z" />
    <glyph glyph-name="uni2117" unicode="&#x2117;" horiz-adv-x="789" 
d="M394 681q144 0 244.5 -99t100.5 -249q0 -148 -100.5 -246t-244.5 -98t-244.5 98t-100.5 246q0 150 100.5 249t244.5 99zM394 14q133 0 226 91t93 229q0 140 -93 231.5t-226 91.5t-225.5 -91.5t-92.5 -231.5q0 -138 92.5 -229t225.5 -91zM273 517h154q62 0 100 -33.5
t38 -87.5q0 -55 -38 -88.5t-100 -33.5h-127v-133h-27v376zM300 298h126q50 0 81 27t31 71t-31 70.5t-81 26.5h-126v-195z" />
    <glyph glyph-name="trademark" unicode="&#x2122;" horiz-adv-x="637" 
d="M261 647h-97v-238h-27v238h-98v23h222v-23zM588 409h-26v209l-104 -208h-19l-105 208v-209h-25v261h27l113 -219l113 219h26v-261z" />
    <glyph glyph-name="oneeighth" unicode="&#x215b;" horiz-adv-x="720" 
d="M117 631l-92 -54v31l103 62h19v-362h-30v323zM585 670l-508 -670h-31l508 670h31zM608 185q45 -9 69 -34.5t24 -60.5q0 -44 -38.5 -72t-100.5 -28q-64 0 -103 27.5t-39 72.5q0 36 25 61.5t71 33.5q-82 21 -82 84q0 41 36.5 67t91.5 26q54 0 90 -26t36 -67q0 -31 -22 -53
t-58 -31zM461 267q0 -29 29 -48.5t72 -19.5t69.5 19t28.5 49q1 32 -27 52t-71 20q-44 0 -72.5 -20t-28.5 -52zM561 16q48 0 78.5 21t30.5 56q0 33 -29 55t-79 22q-51 0 -81 -22t-30 -55q0 -35 30 -56t80 -21z" />
    <glyph glyph-name="threeeighths" unicode="&#x215c;" horiz-adv-x="829" 
d="M300 415q0 -46 -36 -76.5t-92 -30.5q-58 0 -97 33t-40 90l26 4q1 -47 33 -74t78 -27q44 0 71.5 23t27.5 58t-26.5 54.5t-72.5 19.5h-34v22h33q42 0 67 18.5t25 49.5q0 34 -27 55.5t-68 21.5q-43 0 -72 -25.5t-30 -69.5l-26 5q1 52 37.5 83t90.5 31t88.5 -28t34.5 -72
q0 -59 -60 -79q32 -9 50.5 -31.5t18.5 -54.5zM681 670l-508 -670h-31l508 670h31zM704 185q45 -9 69 -34.5t24 -60.5q0 -44 -38.5 -72t-100.5 -28q-64 0 -103 27.5t-39 72.5q0 36 25 61.5t71 33.5q-82 21 -82 84q0 41 36.5 67t91.5 26q54 0 90 -26t36 -67q0 -31 -22 -53
t-58 -31zM557 267q0 -29 29 -48.5t72 -19.5t69.5 19t28.5 49q1 32 -27 52t-71 20q-44 0 -72.5 -20t-28.5 -52zM657 16q48 0 78.5 21t30.5 56q0 33 -29 55t-79 22q-51 0 -81 -22t-30 -55q0 -35 30 -56t80 -21z" />
    <glyph glyph-name="fiveeighths" unicode="&#x215d;" horiz-adv-x="821" 
d="M305 419q0 -52 -37 -84t-98 -32q-52 0 -90.5 29.5t-44.5 75.5l28 4q6 -37 36.5 -60t70.5 -23q48 0 77 24.5t29 65.5q0 38 -27.5 60.5t-72.5 22.5h-119l6 168h224v-27h-197l-5 -115h95q56 0 90.5 -30t34.5 -79zM688 670l-508 -670h-31l508 670h31zM709 185q45 -9 69 -34.5
t24 -60.5q0 -44 -38.5 -72t-100.5 -28q-64 0 -103 27.5t-39 72.5q0 36 25 61.5t71 33.5q-82 21 -82 84q0 41 36.5 67t91.5 26q54 0 90 -26t36 -67q0 -31 -22 -53t-58 -31zM562 267q0 -29 29 -48.5t72 -19.5t69.5 19t28.5 49q1 32 -27 52t-71 20q-44 0 -72.5 -20t-28.5 -52z
M662 16q48 0 78.5 21t30.5 56q0 33 -29 55t-79 22q-51 0 -81 -22t-30 -55q0 -35 30 -56t80 -21z" />
    <glyph glyph-name="seveneighths" unicode="&#x215e;" horiz-adv-x="704" 
d="M222 643h-215v27h250v-21l-173 -340h-33zM572 670l-509 -670h-31l509 670h31zM592 185q45 -9 69 -34.5t24 -60.5q0 -44 -38.5 -72t-100.5 -28q-64 0 -103 27.5t-39 72.5q0 36 25 61.5t71 33.5q-82 21 -82 84q0 41 36.5 67t91.5 26q54 0 90 -26t36 -67q0 -31 -22 -53
t-58 -31zM445 267q0 -29 29 -48.5t72 -19.5t69.5 19t28.5 49q1 32 -27 52t-71 20q-44 0 -72.5 -20t-28.5 -52zM545 16q48 0 78.5 21t30.5 56q0 33 -29 55t-79 22q-51 0 -81 -22t-30 -55q0 -35 30 -56t80 -21z" />
    <glyph glyph-name="arrowleft" unicode="&#x2190;" horiz-adv-x="727" 
d="M687 306h-608l291 -290l-26 -26l-334 334l334 334l26 -26l-291 -290h608v-36z" />
    <glyph glyph-name="arrowup" unicode="&#x2191;" horiz-adv-x="748" 
d="M682 317l-290 291v-608h-36v608l-290 -291l-26 26l334 334l334 -334z" />
    <glyph glyph-name="arrowright" unicode="&#x2192;" horiz-adv-x="727" 
d="M717 324l-334 -334l-26 26l291 290h-608v36h608l-291 290l26 26z" />
    <glyph glyph-name="arrowdown" unicode="&#x2193;" horiz-adv-x="748" 
d="M708 327l-334 -334l-334 334l26 26l290 -291v608h36v-608l290 291z" />
    <glyph glyph-name="uni2196" unicode="&#x2196;" horiz-adv-x="745" 
d="M680 -6l-614 614v-431h-36v493h492l1 -36h-432l614 -614z" />
    <glyph glyph-name="uni2197" unicode="&#x2197;" horiz-adv-x="745" 
d="M715 670v-493h-36v431l-614 -614l-25 26l614 614h-431v36h492z" />
    <glyph glyph-name="uni2198" unicode="&#x2198;" horiz-adv-x="745" 
d="M715 493v-493h-492v36h431l-614 614l25 26l614 -614v431h36z" />
    <glyph glyph-name="uni2199" unicode="&#x2199;" horiz-adv-x="745" 
d="M91 36h432l-1 -36h-492v493h36v-431l614 614l25 -26z" />
    <glyph glyph-name="minus" unicode="&#x2212;" horiz-adv-x="580" 
d="M503 289h-425v32h425v-32z" />
    <glyph glyph-name="approxequal" unicode="&#x2248;" horiz-adv-x="580" 
d="M503 415v-36q-44 -24 -96 -24q-49 0 -112.5 31.5t-108.5 31.5q-69 0 -108 -37v34q39 34 108 34q47 0 111.5 -31.5t109.5 -31.5q58 0 96 29zM503 248v-36q-44 -24 -96 -24q-49 0 -112.5 31.5t-108.5 31.5q-69 0 -108 -37v34q39 34 108 34q47 0 111.5 -31.5t109.5 -31.5
q58 0 96 29z" />
    <glyph glyph-name="notequal" unicode="&#x2260;" horiz-adv-x="580" 
d="M358 391l-97 -150h242v-32h-263l-69 -105h-38l69 105h-124v32h145l97 150h-242v32h263l69 105h38l-69 -105h124v-32h-145z" />
    <glyph glyph-name="lessequal" unicode="&#x2264;" horiz-adv-x="416" 
d="M376 177l-346 144v26l346 144v-37l-296 -120l296 -121v-36zM376 125v-31h-342v31h342z" />
    <glyph glyph-name="greaterequal" unicode="&#x2265;" horiz-adv-x="416" 
d="M336 334l-296 120v37l346 -144v-26l-346 -144v36zM382 94h-342v31h342v-31z" />
    <glyph glyph-name="fi" unicode="&#xfb01;" horiz-adv-x="600" 
d="M490 488v-488h-35v457h-307v-457h-35v457h-93v31h93v135q0 72 39.5 114.5t108.5 42.5q53 0 93 -28l-13 -28q-35 24 -78 24q-54 0 -84.5 -34t-30.5 -91v-135h342zM472 668q13 0 22.5 -9.5t9.5 -21.5q0 -13 -9 -22t-23 -9t-23 9t-9 22q0 12 9.5 21.5t22.5 9.5z" />
    <glyph glyph-name="fl" unicode="&#xfb02;" horiz-adv-x="645" 
d="M148 488h200v-31h-200v-457h-35v457h-93v31h93v135q0 72 39.5 114.5t108.5 42.5q39 0 74 -16l-12 -29q-29 13 -60 13q-54 0 -84.5 -34t-30.5 -91v-135zM608 40l11 -29q-33 -22 -72 -22q-49 0 -79.5 30.5t-30.5 80.5v670h35v-669q0 -35 22 -57t58 -22q30 0 56 18z" />
    <glyph glyph-name="K.ss03" horiz-adv-x="669" 
d="M626 0h-51l-405 318h-33v-318h-36v670h36v-319h33l385 319h47l-403 -336z" />
    <glyph glyph-name="Kcommaaccent.ss03" horiz-adv-x="669" 
d="M626 0h-51l-405 318h-33v-318h-36v670h36v-319h33l385 319h47l-403 -336zM304 -45h38l-52 -137h-30z" />
    <glyph glyph-name="Q.ss04" horiz-adv-x="815" 
d="M729 -158l-158 188q-76 -41 -163 -41q-144 0 -243 100t-99 246q0 145 99 245.5t243 100.5q143 0 242 -100.5t99 -245.5q0 -89 -39 -164t-107 -121l154 -184zM103 335q0 -131 88 -221.5t217 -90.5q128 0 216 90.5t88 221.5t-88 221.5t-216 90.5q-129 0 -217 -90.5
t-88 -221.5z" />
    <glyph glyph-name="I.ss05" horiz-adv-x="238" 
d="M137 0h-36v670h36v-670z" />
    <glyph glyph-name="IJ.ss05" horiz-adv-x="832" 
d="M101 670h36v-670h-36v670zM741 670v-422q0 -115 -65.5 -187t-172.5 -72q-96 0 -159.5 58.5t-75.5 154.5l34 10q11 -86 65 -137.5t136 -51.5q90 0 146 62.5t56 162.5v422h36z" />
    <glyph glyph-name="Iacute.ss05" horiz-adv-x="238" 
d="M141 749h-32l89 137h40zM137 0h-36v670h36v-670z" />
    <glyph glyph-name="Icircumflex.ss05" horiz-adv-x="238" 
d="M255 742h-38l-98 111l-97 -111h-39l120 137h33zM101 670h36v-670h-36v670z" />
    <glyph glyph-name="Idieresis.ss05" horiz-adv-x="238" 
d="M27 832q13 0 22.5 -9t9.5 -22t-9 -22t-23 -9t-23 9t-9 22t9.5 22t22.5 9zM211 832q13 0 22.5 -9t9.5 -22t-9 -22t-23 -9q-13 0 -22 9t-9 22t9 22t22 9zM137 0h-36v670h36v-670z" />
    <glyph glyph-name="Idotaccent.ss05" horiz-adv-x="238" 
d="M119 837q13 0 22.5 -9t9.5 -22t-9 -21.5t-23 -8.5q-13 0 -22 8.5t-9 21.5t9 22t22 9zM137 0h-36v670h36v-670z" />
    <glyph glyph-name="Igrave.ss05" horiz-adv-x="238" 
d="M44 886l90 -137h-33l-97 137h40zM137 0h-36v670h36v-670z" />
    <glyph glyph-name="Imacron.ss05" horiz-adv-x="238" 
d="M248 774h-258v29h258v-29zM137 0h-36v670h36v-670z" />
    <glyph glyph-name="Iogonek.ss05" horiz-adv-x="238" 
d="M161 -154l6 -26q-38 -13 -55 -13q-30 0 -54 18.5t-24 59.5q0 29 15.5 53.5t55.5 61.5h-4v670h36v-670q-42 -40 -57.5 -63t-15.5 -49q0 -52 51 -52q13 0 46 10z" />
    <glyph glyph-name="J.ss05" horiz-adv-x="594" 
d="M503 670v-422q0 -115 -65.5 -187t-172.5 -72q-96 0 -159.5 58.5t-75.5 154.5l34 10q11 -86 65 -137.5t136 -51.5q90 0 146 62.5t56 162.5v422h36z" />
    <glyph glyph-name="i.loclTRK" horiz-adv-x="265" 
d="M133 655q13 0 22.5 -9t9.5 -22t-9 -21.5t-23 -8.5q-13 0 -22 8.5t-9 21.5t9 22t22 9zM150 0h-35v488h35v-488z" />
    <glyph glyph-name="germandbls.case" horiz-adv-x="1210" 
d="M306 681q98 0 161.5 -49t79.5 -129l-35 -9q-14 71 -69 113t-138 42q-80 0 -132 -41t-52 -109q0 -55 33.5 -83t93.5 -42l148 -36q35 -8 60 -18t50.5 -27.5t39 -46.5t13.5 -68q0 -86 -64.5 -137.5t-171.5 -51.5q-108 0 -181.5 54.5t-85.5 144.5l39 9q9 -80 72.5 -127.5
t158.5 -47.5q90 0 143 41.5t53 112.5q0 58 -31.5 85.5t-100.5 43.5l-158 37q-150 36 -150 157q0 82 62.5 132t161.5 50zM901 681q98 0 161.5 -49t79.5 -129l-35 -9q-14 71 -69 113t-138 42q-80 0 -132 -41t-52 -109q0 -55 33.5 -83t93.5 -42l148 -36q35 -8 60 -18
t50.5 -27.5t39 -46.5t13.5 -68q0 -86 -64.5 -137.5t-171.5 -51.5q-108 0 -181.5 54.5t-85.5 144.5l39 9q9 -80 72.5 -127.5t158.5 -47.5q90 0 143 41.5t53 112.5q0 58 -31.5 85.5t-100.5 43.5l-158 37q-150 36 -150 157q0 82 62.5 132t161.5 50z" />
    <glyph glyph-name="a.ss01" horiz-adv-x="645" 
d="M544 488v-488h-35v122q-31 -63 -89 -98t-129 -35q-104 0 -176 71t-72 184t72 183.5t176 70.5q71 0 129 -35t89 -97v122h35zM294 21q86 0 150.5 62t64.5 161q0 98 -64.5 160t-150.5 62q-91 0 -153.5 -61.5t-62.5 -160.5q0 -100 62.5 -161.5t153.5 -61.5z" />
    <glyph glyph-name="aacute.ss01" horiz-adv-x="645" 
d="M331 567h-32l89 137h40zM544 488v-488h-35v122q-31 -63 -89 -98t-129 -35q-104 0 -176 71t-72 184t72 183.5t176 70.5q71 0 129 -35t89 -97v122h35zM294 21q86 0 150.5 62t64.5 161q0 98 -64.5 160t-150.5 62q-91 0 -153.5 -61.5t-62.5 -160.5q0 -100 62.5 -161.5
t153.5 -61.5z" />
    <glyph glyph-name="abreve.ss01" horiz-adv-x="645" 
d="M308 559q-56 0 -92 34.5t-36 88.5h30q0 -43 28 -69.5t70 -26.5t70 26.5t28 69.5h31q0 -54 -36.5 -88.5t-92.5 -34.5zM544 488v-488h-35v122q-31 -63 -89 -98t-129 -35q-104 0 -176 71t-72 184t72 183.5t176 70.5q71 0 129 -35t89 -97v122h35zM294 21q86 0 150.5 62
t64.5 161q0 98 -64.5 160t-150.5 62q-91 0 -153.5 -61.5t-62.5 -160.5q0 -100 62.5 -161.5t153.5 -61.5z" />
    <glyph glyph-name="acircumflex.ss01" horiz-adv-x="645" 
d="M211 560h-39l120 137h33l119 -137h-38l-98 111zM544 488v-488h-35v122q-31 -63 -89 -98t-129 -35q-104 0 -176 71t-72 184t72 183.5t176 70.5q71 0 129 -35t89 -97v122h35zM294 21q86 0 150.5 62t64.5 161q0 98 -64.5 160t-150.5 62q-91 0 -153.5 -61.5t-62.5 -160.5
q0 -100 62.5 -161.5t153.5 -61.5z" />
    <glyph glyph-name="adieresis.ss01" horiz-adv-x="645" 
d="M216 588q-14 0 -23 9t-9 22t9.5 22t22.5 9t22.5 -9t9.5 -22t-9 -22t-23 -9zM400 588q-14 0 -22.5 9t-8.5 22t9 22t22 9t22.5 -9t9.5 -22t-9 -22t-23 -9zM544 488v-488h-35v122q-31 -63 -89 -98t-129 -35q-104 0 -176 71t-72 184t72 183.5t176 70.5q71 0 129 -35t89 -97
v122h35zM294 21q86 0 150.5 62t64.5 161q0 98 -64.5 160t-150.5 62q-91 0 -153.5 -61.5t-62.5 -160.5q0 -100 62.5 -161.5t153.5 -61.5z" />
    <glyph glyph-name="agrave.ss01" horiz-adv-x="645" 
d="M290 567l-97 137h40l90 -137h-33zM544 488v-488h-35v122q-31 -63 -89 -98t-129 -35q-104 0 -176 71t-72 184t72 183.5t176 70.5q71 0 129 -35t89 -97v122h35zM294 21q86 0 150.5 62t64.5 161q0 98 -64.5 160t-150.5 62q-91 0 -153.5 -61.5t-62.5 -160.5
q0 -100 62.5 -161.5t153.5 -61.5z" />
    <glyph glyph-name="amacron.ss01" horiz-adv-x="645" 
d="M437 592h-258v29h258v-29zM544 488v-488h-35v122q-31 -63 -89 -98t-129 -35q-104 0 -176 71t-72 184t72 183.5t176 70.5q71 0 129 -35t89 -97v122h35zM294 21q86 0 150.5 62t64.5 161q0 98 -64.5 160t-150.5 62q-91 0 -153.5 -61.5t-62.5 -160.5q0 -100 62.5 -161.5
t153.5 -61.5z" />
    <glyph glyph-name="aogonek.ss01" horiz-adv-x="645" 
d="M569 -154l6 -26q-38 -13 -55 -13q-30 0 -54 18.5t-24 59.5q0 29 15.5 53.5t55.5 61.5h-4v122q-31 -63 -89 -98t-129 -35q-104 0 -176 71t-72 184t72 183.5t176 70.5q71 0 129 -35t89 -97v122h35v-488h1q-42 -40 -57.5 -63t-15.5 -49q0 -52 51 -52q13 0 46 10zM294 21
q86 0 150.5 62t64.5 161q0 98 -64.5 160t-150.5 62q-91 0 -153.5 -61.5t-62.5 -160.5q0 -100 62.5 -161.5t153.5 -61.5z" />
    <glyph glyph-name="aring.ss01" horiz-adv-x="645" 
d="M308 554q-38 0 -65 26t-27 63t27 63.5t65 26.5t65 -26.5t27 -63.5t-27 -63t-65 -26zM308 708q-28 0 -47 -19t-19 -46q0 -26 19 -45t47 -19t47.5 19t19.5 45q0 27 -19.5 46t-47.5 19zM544 488v-488h-35v122q-31 -63 -89 -98t-129 -35q-104 0 -176 71t-72 184t72 183.5
t176 70.5q71 0 129 -35t89 -97v122h35zM294 21q86 0 150.5 62t64.5 161q0 98 -64.5 160t-150.5 62q-91 0 -153.5 -61.5t-62.5 -160.5q0 -100 62.5 -161.5t153.5 -61.5z" />
    <glyph glyph-name="atilde.ss01" horiz-adv-x="645" 
d="M247 649q-21 0 -33 -14t-12 -38h-29q0 39 20 59.5t52 20.5q29 0 65 -27t58 -27q43 0 43 54h29q0 -39 -20 -61t-51 -22q-29 0 -64.5 27.5t-57.5 27.5zM544 488v-488h-35v122q-31 -63 -89 -98t-129 -35q-104 0 -176 71t-72 184t72 183.5t176 70.5q71 0 129 -35t89 -97v122
h35zM294 21q86 0 150.5 62t64.5 161q0 98 -64.5 160t-150.5 62q-91 0 -153.5 -61.5t-62.5 -160.5q0 -100 62.5 -161.5t153.5 -61.5z" />
    <glyph glyph-name="l.ss02" horiz-adv-x="236" 
d="M136 0h-35v770h35v-770z" />
    <glyph glyph-name="lacute.ss02" horiz-adv-x="236" 
d="M141 849h-32l89 137h40zM136 0h-35v770h35v-770z" />
    <glyph glyph-name="lcaron.ss02" horiz-adv-x="236" 
d="M136 0h-35v770h35v-770zM252 617h-28v153h36z" />
    <glyph glyph-name="lcommaaccent.ss02" horiz-adv-x="236" 
d="M136 0h-35v770h35v-770zM54 -182l44 137h38l-52 -137h-30z" />
    <glyph glyph-name="ldot.ss02" horiz-adv-x="281" 
d="M136 0h-35v770h35v-770zM239 359q13 0 22.5 -9t9.5 -22t-9 -21.5t-23 -8.5q-13 0 -22 8.5t-9 21.5t9 22t22 9z" />
    <glyph glyph-name="lslash.ss02" horiz-adv-x="285" 
d="M255 412l-94 -63v-349h-35v326l-96 -64v36l96 64v408h35v-385l94 63v-36z" />
    <glyph glyph-name="k.ss03" horiz-adv-x="557" 
d="M548 0h-54l-326 234h-32v-234h-35v770h35v-502h38l288 220h50l-311 -239z" />
    <glyph glyph-name="kcommaaccent.ss03" horiz-adv-x="557" 
d="M548 0h-54l-326 234h-32v-234h-35v770h35v-502h38l288 220h50l-311 -239zM245 -45h38l-52 -137h-30z" />
    <glyph glyph-name="f_j" horiz-adv-x="624" 
d="M513 488v-630q0 -49 -29.5 -78.5t-78.5 -29.5q-37 0 -65 16l11 30q22 -13 48 -13q36 0 57.5 21t21.5 56v597h-330v-457h-35v457h-93v31h93v135q0 72 39.5 114.5t108.5 42.5q53 0 93 -28l-13 -28q-35 24 -78 24q-54 0 -84.5 -34t-30.5 -91v-135h365zM496 668q13 0 22 -9.5
t9 -21.5q0 -13 -8.5 -22t-22.5 -9t-23 8.5t-9 22.5q0 12 9 21.5t23 9.5z" />
    <glyph glyph-name="f_t" horiz-adv-x="717" 
d="M686 57l15 -28q-47 -40 -103 -40q-62 0 -99.5 38.5t-37.5 103.5v326h-313v-457h-35v457h-93v31h93v135q0 72 39.5 114.5t108.5 42.5q53 0 93 -28l-13 -28q-35 24 -78 24q-54 0 -84.5 -34t-30.5 -91v-135h313v182h35v-182h186v-31h-186v-325q0 -50 28.5 -80t75.5 -30
q46 0 86 35z" />
    <glyph glyph-name="fl.ss02" horiz-adv-x="582" 
d="M148 488h200v-31h-200v-457h-35v457h-93v31h93v135q0 72 39.5 114.5t108.5 42.5q39 0 74 -16l-12 -29q-29 13 -60 13q-54 0 -84.5 -34t-30.5 -91v-135zM482 770v-770h-35v770h35z" />
    <glyph glyph-name="zero.tf" 
d="M305 681q120 0 194 -95.5t74 -250.5t-74 -250.5t-194 -95.5t-194 95.5t-74 250.5t74 250.5t194 95.5zM305 23q104 0 167.5 86t63.5 226t-63.5 226t-167.5 86t-167.5 -86t-63.5 -226t63.5 -226t167.5 -86z" />
    <glyph glyph-name="one.tf" 
d="M550 33v-33h-465v33h224v591l-207 -111v35l221 122h22v-637h205z" />
    <glyph glyph-name="two.tf" 
d="M545 33v-33h-447v22l249 224q86 75 119.5 122t33.5 111q0 77 -49.5 123.5t-130.5 46.5q-83 0 -133.5 -51.5t-51.5 -136.5l-35 6q2 96 62.5 155t157.5 59t156 -55.5t59 -145.5q0 -73 -36.5 -125t-128.5 -134l-210 -188h385z" />
    <glyph glyph-name="three.tf" 
d="M413 347q67 -13 104.5 -55t37.5 -106q0 -89 -61 -143t-161 -54q-106 0 -171 61t-70 161l35 7q4 -89 59 -142.5t147 -53.5q84 0 136 45t52 118q0 68 -49.5 106.5t-135.5 38.5h-89v31h87q78 0 125 36.5t47 99.5q0 68 -49.5 109.5t-129.5 41.5q-85 0 -136 -49t-56 -132
l-34 7q5 93 66 150t160 57q96 0 154.5 -50.5t58.5 -133.5q0 -58 -34 -97t-93 -53z" />
    <glyph glyph-name="four.tf" 
d="M577 181h-119v-181h-36v181h-382v38l378 451h40v-458h119v-31zM422 212v409l-345 -409h345z" />
    <glyph glyph-name="five.tf" 
d="M148 383h167q100 0 157 -47.5t57 -141.5q0 -92 -62 -148.5t-164 -56.5q-105 0 -170.5 62t-66.5 165l35 7q0 -91 56 -146t146 -55q86 0 139 47.5t53 124.5q0 79 -48 118t-134 39h-201l18 319h377v-33h-344z" />
    <glyph glyph-name="six.tf" 
d="M329 432q102 0 163.5 -62t61.5 -158q0 -97 -62 -160t-165 -63q-124 0 -189.5 84.5t-65.5 237.5q0 206 91 301q69 69 170 69q74 0 128 -36t73 -102l-36 -7q-15 54 -59 83t-108 29q-88 0 -144 -61q-83 -90 -81 -278l1 -39q14 70 77 116t145 46zM327 23q86 0 139 54.5
t53 134.5q0 81 -52.5 134.5t-139.5 53.5q-90 0 -145 -56.5t-55 -133.5q0 -82 57.5 -134.5t142.5 -52.5z" />
    <glyph glyph-name="seven.tf" 
d="M547 670v-23l-347 -647h-42l344 637h-450v33h495z" />
    <glyph glyph-name="eight.tf" 
d="M386 346q88 -15 129 -63.5t41 -109.5q0 -83 -66 -133.5t-174 -50.5q-109 0 -175.5 50.5t-66.5 133.5q0 61 41.5 109.5t127.5 63.5q-79 15 -115.5 60t-36.5 103q0 78 61.5 125t163.5 47q101 0 162 -47.5t61 -124.5q0 -57 -37 -102.5t-116 -60.5zM126 507q-1 -62 50.5 -102
t138.5 -40q88 0 138.5 40.5t50.5 102.5q0 64 -52 103t-136 39q-86 0 -138 -39.5t-52 -103.5zM315 23q90 0 146 41.5t56 109.5q0 66 -53.5 109t-147.5 43q-93 0 -148 -42.5t-55 -109.5q0 -68 56 -109.5t146 -41.5z" />
    <glyph glyph-name="nine.tf" 
d="M283 680q124 0 189.5 -84.5t65.5 -237.5q0 -208 -91 -300q-68 -70 -170 -70q-74 0 -128 36t-73 102l36 7q15 -54 59.5 -83t107.5 -29q88 0 144 61q83 90 81 278l-1 40q-14 -71 -77 -117t-145 -46q-102 0 -163.5 62t-61.5 158q0 97 62 160t165 63zM283 269
q91 0 145.5 56.5t54.5 134.5q0 81 -57.5 133.5t-142.5 52.5q-86 0 -139 -54.5t-53 -134.5t53 -134t139 -54z" />
    <glyph glyph-name="zero.zero.tf" 
d="M305 681q120 0 194 -95.5t74 -250.5t-74 -250.5t-194 -95.5t-194 95.5t-74 250.5t74 250.5t194 95.5zM305 647q-104 0 -167.5 -86t-63.5 -226q0 -113 44 -195l342 436q-62 71 -155 71zM305 23q104 0 167.5 86t63.5 226q0 132 -56 216l-345 -438q63 -90 170 -90z" />
    <glyph glyph-name="zero.zero" horiz-adv-x="650" 
d="M332 681q121 0 195.5 -95.5t74.5 -250.5t-74.5 -250.5t-195.5 -95.5q-140 0 -214 123l-3 1l1 2q-53 90 -53 220q0 155 74 250.5t195 95.5zM99 335q0 -110 41 -190l343 438q-62 65 -151 65q-105 0 -169 -86.5t-64 -226.5zM332 23q105 0 169 86t64 226q0 137 -61 223
l-346 -441q64 -94 174 -94z" />
    <glyph glyph-name="zero.dnom" horiz-adv-x="381" 
d="M191 362q68 0 109 -51t41 -135t-41 -135t-109 -51t-109.5 51t-41.5 135t41.5 135t109.5 51zM191 17q54 0 87 43.5t33 115.5t-33 115.5t-87 43.5t-87 -43.5t-33 -115.5t33 -115.5t87 -43.5z" />
    <glyph glyph-name="one.dnom" horiz-adv-x="216" 
d="M147 0h-30v323l-92 -54v31l103 62h19v-362z" />
    <glyph glyph-name="two.dnom" horiz-adv-x="314" 
d="M283 26v-26h-254v19l139 118q45 40 62.5 63.5t17.5 55.5q0 38 -25.5 61t-67.5 23q-43 0 -68.5 -26t-26.5 -70l-27 5q0 51 33.5 84t88.5 33t89 -30t34 -80q0 -39 -21.5 -68.5t-67.5 -67.5l-110 -94h204z" />
    <glyph glyph-name="three.dnom" horiz-adv-x="330" 
d="M231 183q32 -9 50.5 -31.5t18.5 -54.5q0 -46 -36 -76.5t-92 -30.5q-58 0 -97 33t-40 90l26 4q1 -47 33 -74t78 -27q44 0 71.5 23t27.5 58t-26.5 54.5t-72.5 19.5h-34v22h33q42 0 67 18.5t25 49.5q0 34 -27 55.5t-68 21.5q-43 0 -72 -25.5t-30 -69.5l-26 5q1 52 37.5 83
t90.5 31t88.5 -28t34.5 -72q0 -59 -60 -79z" />
    <glyph glyph-name="four.dnom" horiz-adv-x="353" 
d="M332 93h-65v-93h-28v93h-210v29l206 239h32v-242h65v-26zM239 119v206l-179 -206h179z" />
    <glyph glyph-name="five.dnom" horiz-adv-x="334" 
d="M85 215h95q56 0 90.5 -30t34.5 -79q0 -52 -37 -84t-98 -32q-52 0 -90.5 29.5t-44.5 75.5l28 4q6 -37 36.5 -60t70.5 -23q48 0 77 24.5t29 65.5q0 38 -27.5 60.5t-72.5 22.5h-119l6 168h224v-27h-197z" />
    <glyph glyph-name="six.dnom" horiz-adv-x="360" 
d="M194 229q56 0 90 -33.5t34 -85.5t-35 -86t-93 -34q-70 0 -107 45.5t-37 127.5q0 109 52 161q36 38 95 38q44 0 75.5 -21t39.5 -59l-29 -4q-17 59 -87 59q-46 0 -75 -31q-43 -45 -41 -143v-4q13 31 45 50.5t73 19.5zM190 15q45 0 72.5 27.5t27.5 68.5t-27.5 68t-72.5 27
q-48 0 -76.5 -28.5t-28.5 -67.5q0 -41 30 -68t75 -27z" />
    <glyph glyph-name="seven.dnom" horiz-adv-x="267" 
d="M257 361v-21l-173 -340h-33l171 334h-215v27h250z" />
    <glyph glyph-name="eight.dnom" horiz-adv-x="341" 
d="M218 185q45 -9 69 -34.5t24 -60.5q0 -44 -38.5 -72t-100.5 -28q-64 0 -103 27.5t-39 72.5q0 36 25 61.5t71 33.5q-82 21 -82 84q0 41 36.5 67t91.5 26q54 0 90 -26t36 -67q0 -31 -22 -53t-58 -31zM71 267q0 -29 29 -48.5t72 -19.5t69.5 19t28.5 49q1 32 -27 52t-71 20
q-44 0 -72.5 -20t-28.5 -52zM171 16q48 0 78.5 21t30.5 56q0 33 -29 55t-79 22q-51 0 -81 -22t-30 -55q0 -35 30 -56t80 -21z" />
    <glyph glyph-name="nine.dnom" horiz-adv-x="360" 
d="M169 362q70 0 107 -45.5t37 -127.5q0 -110 -51 -161q-38 -38 -95 -38q-45 0 -76 21t-39 59l29 4q15 -59 87 -59q45 0 74 31q44 46 42 143v6q-12 -32 -44.5 -52.5t-73.5 -20.5q-55 0 -89.5 34t-34.5 86t35 86t92 34zM170 146q47 0 75.5 28.5t28.5 67.5q0 41 -30 68t-74 27
q-45 0 -72.5 -28t-27.5 -69q0 -40 27.5 -67t72.5 -27z" />
    <glyph glyph-name="zero.numr" horiz-adv-x="381" 
d="M191 680q68 0 109 -51t41 -135t-41 -135t-109 -51t-109.5 51t-41.5 135t41.5 135t109.5 51zM191 335q54 0 87 43.5t33 115.5t-33 115.5t-87 43.5t-87 -43.5t-33 -115.5t33 -115.5t87 -43.5z" />
    <glyph glyph-name="one.numr" horiz-adv-x="216" 
d="M147 308h-30v323l-92 -54v31l103 62h19v-362z" />
    <glyph glyph-name="two.numr" horiz-adv-x="314" 
d="M283 340v-26h-254v19l139 118q45 40 62.5 63.5t17.5 55.5q0 38 -25.5 61t-67.5 23q-43 0 -68.5 -26t-26.5 -70l-27 5q0 51 33.5 84t88.5 33t89 -30t34 -80q0 -39 -21.5 -68.5t-67.5 -67.5l-110 -94h204z" />
    <glyph glyph-name="three.numr" horiz-adv-x="330" 
d="M231 501q32 -9 50.5 -31.5t18.5 -54.5q0 -46 -36 -76.5t-92 -30.5q-58 0 -97 33t-40 90l26 4q1 -47 33 -74t78 -27q44 0 71.5 23t27.5 58t-26.5 54.5t-72.5 19.5h-34v22h33q42 0 67 18.5t25 49.5q0 34 -27 55.5t-68 21.5q-43 0 -72 -25.5t-30 -69.5l-26 5q1 52 37.5 83
t90.5 31t88.5 -28t34.5 -72q0 -59 -60 -79z" />
    <glyph glyph-name="four.numr" horiz-adv-x="353" 
d="M332 402h-65v-93h-28v93h-210v29l206 239h32v-242h65v-26zM239 428v206l-179 -206h179z" />
    <glyph glyph-name="five.numr" horiz-adv-x="334" 
d="M85 528h95q56 0 90.5 -30t34.5 -79q0 -52 -37 -84t-98 -32q-52 0 -90.5 29.5t-44.5 75.5l28 4q6 -37 36.5 -60t70.5 -23q48 0 77 24.5t29 65.5q0 38 -27.5 60.5t-72.5 22.5h-119l6 168h224v-27h-197z" />
    <glyph glyph-name="six.numr" horiz-adv-x="360" 
d="M194 547q56 0 90 -33.5t34 -85.5t-35 -86t-93 -34q-70 0 -107 45.5t-37 127.5q0 109 52 161q36 38 95 38q44 0 75.5 -21t39.5 -59l-29 -4q-17 59 -87 59q-46 0 -75 -31q-43 -45 -41 -143v-4q13 31 45 50.5t73 19.5zM190 333q45 0 72.5 27.5t27.5 68.5t-27.5 68t-72.5 27
q-48 0 -76.5 -28.5t-28.5 -67.5q0 -41 30 -68t75 -27z" />
    <glyph glyph-name="seven.numr" horiz-adv-x="267" 
d="M257 670v-21l-173 -340h-33l171 334h-215v27h250z" />
    <glyph glyph-name="eight.numr" horiz-adv-x="341" 
d="M218 503q45 -9 69 -34.5t24 -60.5q0 -44 -38.5 -72t-100.5 -28q-64 0 -103 27.5t-39 72.5q0 36 25 61.5t71 33.5q-82 21 -82 84q0 41 36.5 67t91.5 26q54 0 90 -26t36 -67q0 -31 -22 -53t-58 -31zM71 585q0 -29 29 -48.5t72 -19.5t69.5 19t28.5 49q1 32 -27 52t-71 20
q-44 0 -72.5 -20t-28.5 -52zM171 334q48 0 78.5 21t30.5 56q0 33 -29 55t-79 22q-51 0 -81 -22t-30 -55q0 -35 30 -56t80 -21z" />
    <glyph glyph-name="nine.numr" horiz-adv-x="360" 
d="M169 680q70 0 107 -45.5t37 -127.5q0 -110 -51 -161q-38 -38 -95 -38q-45 0 -76 21t-39 59l29 4q15 -59 87 -59q45 0 74 31q44 46 42 143v6q-12 -32 -44.5 -52.5t-73.5 -20.5q-55 0 -89.5 34t-34.5 86t35 86t92 34zM170 464q47 0 75.5 28.5t28.5 67.5q0 41 -30 68t-74 27
q-45 0 -72.5 -28t-27.5 -69q0 -40 27.5 -67t72.5 -27z" />
    <glyph glyph-name="backslash.case" horiz-adv-x="331" 
d="M300 0h-33l-237 670h34z" />
    <glyph glyph-name="periodcentered.case" horiz-adv-x="179" 
d="M89 362q13 0 22.5 -9t9.5 -21q0 -13 -9 -22t-23 -9q-13 0 -22 8.5t-9 22.5q0 12 9 21t22 9z" />
    <glyph glyph-name="bullet.case" horiz-adv-x="379" 
d="M189 460q56 0 94.5 -38t38.5 -90q0 -54 -38 -90t-95 -36q-56 0 -93.5 36t-37.5 90q0 52 38 90t93 38z" />
    <glyph glyph-name="colon.case" horiz-adv-x="179" 
d="M89 531q13 0 22.5 -9t9.5 -21q0 -13 -9 -22t-23 -9q-13 0 -22 9t-9 22q0 12 9 21t22 9zM89 175q13 0 22.5 -9t9.5 -21q0 -13 -9 -22t-23 -9q-13 0 -22 9t-9 22q0 12 9 21t22 9z" />
    <glyph glyph-name="exclamdown.case" horiz-adv-x="255" 
d="M127 611q-13 0 -22 9t-9 22t9 21.5t22 8.5q14 0 23 -8.5t9 -21.5t-9.5 -22t-22.5 -9zM110 486h36v-486h-36v486z" />
    <glyph glyph-name="questiondown.case" horiz-adv-x="513" 
d="M264 613q-13 0 -22 9t-9 22t8.5 21.5t22.5 8.5t23 -8.5t9 -21.5t-9.5 -22t-22.5 -9zM439 213l35 -6q-1 -96 -61.5 -156t-158.5 -60q-97 0 -156.5 56t-59.5 147q0 85 59.5 140t149.5 60v93h34v-123h-19q-80 0 -134.5 -47.5t-54.5 -122.5q0 -77 49.5 -123.5t131.5 -46.5
t133 52t52 137z" />
    <glyph glyph-name="semicolon.case" horiz-adv-x="202" 
d="M113 531q13 0 22 -9t9 -21q0 -13 -9 -22t-22 -9q-14 0 -23 9t-9 22q0 12 9.5 21t22.5 9zM49 -132h-30l70 259h44v-2z" />
    <glyph glyph-name="slash.case" horiz-adv-x="356" 
d="M64 0h-36l263 670h36z" />
    <glyph glyph-name="braceleft.case" horiz-adv-x="434" 
d="M211 544v-101q0 -83 -68 -112q68 -29 68 -114v-91q0 -43 24.5 -69t65.5 -26h66v-31h-68q-56 0 -90 34t-34 91v90q0 44 -26 71t-69 29l-16 1v30l16 1q43 1 69 27.5t26 70.5v100q0 57 34 91t90 34h68v-31h-66q-41 0 -65.5 -26t-24.5 -69z" />
    <glyph glyph-name="braceright.case" horiz-adv-x="434" 
d="M370 346v-30l-16 -1q-43 -2 -69.5 -29t-26.5 -71v-90q0 -57 -33.5 -91t-89.5 -34h-69v31h67q41 0 65.5 26t24.5 69v91q0 85 68 114q-68 29 -68 112v101q0 43 -24.5 69t-65.5 26h-67v31h69q56 0 89.5 -34t33.5 -91v-100q0 -44 26.5 -70.5t69.5 -27.5z" />
    <glyph glyph-name="bracketleft.case" horiz-adv-x="381" 
d="M136 638v-606h178v-32h-213v670h213v-32h-178z" />
    <glyph glyph-name="bracketright.case" horiz-adv-x="381" 
d="M280 670v-670h-214v32h179v606h-179v32h214z" />
    <glyph glyph-name="parenleft.case" horiz-adv-x="319" 
d="M103 335q0 -188 149 -324l-20 -21q-166 143 -166 345t166 345l20 -21q-149 -136 -149 -324z" />
    <glyph glyph-name="parenright.case" horiz-adv-x="319" 
d="M66 659l20 21q166 -142 166 -345t-166 -345l-20 21q149 136 149 324t-149 324z" />
    <glyph glyph-name="emdash.case" horiz-adv-x="1040" 
d="M980 319h-920v30h920v-30z" />
    <glyph glyph-name="endash.case" horiz-adv-x="620" 
d="M560 319h-500v30h500v-30z" />
    <glyph glyph-name="hyphen.case" horiz-adv-x="439" 
d="M379 319h-319v31h319v-31z" />
    <glyph glyph-name="guillemotleft.case" horiz-adv-x="371" 
d="M25 322l130 178h38l-130 -178l130 -178h-38zM179 322l130 178h38l-130 -178l130 -178h-38z" />
    <glyph glyph-name="guillemotright.case" horiz-adv-x="371" 
d="M25 144l130 178l-130 178h39l129 -178l-129 -178h-39zM178 144l130 178l-130 178h39l129 -178l-129 -178h-39z" />
    <glyph glyph-name="guilsinglleft.case" horiz-adv-x="218" 
d="M25 322l130 178h38l-130 -178l130 -178h-38z" />
    <glyph glyph-name="guilsinglright.case" horiz-adv-x="218" 
d="M25 144l130 178l-130 178h38l130 -178l-130 -178h-38z" />
    <glyph glyph-name="cent.tf" 
d="M313 466v-444q61 3 109 35.5t69 85.5l32 -10q-22 -61 -79 -100.5t-130 -43.5v-119h-33v120q-97 7 -163 76.5t-66 177.5q0 105 66.5 175.5t162.5 77.5v133h33v-132q73 -4 130 -44t79 -105l-32 -11q-20 56 -68 90t-110 38zM86 244q0 -94 56.5 -154t139.5 -67v442
q-82 -7 -139 -68t-57 -153z" />
    <glyph glyph-name="dollar.tf" 
d="M530 190q0 -78 -58 -125t-154 -48v-117h-32v118q-91 8 -151.5 57.5t-68.5 126.5l36 8q8 -69 58.5 -111t126.5 -49v276l-60 14q-139 33 -139 144q0 75 54.5 120.5t143.5 48.5v117h32v-118q84 -6 137 -51.5t61 -112.5l-34 -8q-8 59 -52.5 96.5t-111.5 43.5v-266l62 -15
q68 -15 109 -47.5t41 -101.5zM287 361v260q-73 -2 -117.5 -38.5t-44.5 -96.5q0 -50 30.5 -75t86.5 -39zM318 319v-270q80 1 128 39t48 101q0 51 -31 77t-89 40z" />
    <glyph glyph-name="Euro.tf" 
d="M332 23q76 0 130.5 53t77.5 146l35 -8q-23 -103 -88 -164t-155 -61q-96 0 -162 67t-86 183h-61v29h57q-4 28 -4 67q0 30 3 57h-56v29h59q19 121 85.5 190.5t164.5 69.5q90 0 155 -62t88 -165l-35 -8q-22 94 -77 147.5t-131 53.5q-83 0 -139 -60.5t-73 -165.5h275l-8 -29
h-271q-3 -27 -3 -57q0 -39 4 -67h238l-7 -29h-227q19 -101 74.5 -158.5t136.5 -57.5z" />
    <glyph glyph-name="florin.tf" 
d="M470 648q-57 0 -94.5 -35t-48.5 -95l-30 -168h213v-31h-219l-67 -370q-10 -52 -45 -83t-84 -31q-40 0 -68 23l16 28q21 -18 53 -18q36 0 61.5 22t32.5 59l66 370h-132v31h138l30 168q14 75 62 119t120 44q64 0 107 -41l-18 -27q-37 35 -93 35z" />
    <glyph glyph-name="sterling.tf" 
d="M560 33v-33h-521v23l85 9v265h-85v33h85v141q0 94 59 152t155 58t155 -57t60 -149l-34 -7q-1 82 -50.5 130t-130.5 48q-80 0 -129 -48t-49 -127v-141h279v-33h-279v-264h400z" />
    <glyph glyph-name="yen.tf" 
d="M340 294h184v-30h-201v-93h201v-30h-201v-141h-36v141h-201v30h201v93h-201v30h184l-247 376h42l240 -371l240 371h42z" />
    <glyph glyph-name="approxequal.tf" 
d="M518 415v-36q-44 -24 -96 -24q-49 0 -112.5 31.5t-108.5 31.5q-69 0 -108 -37v34q39 34 108 34q47 0 111.5 -31.5t109.5 -31.5q58 0 96 29zM518 248v-36q-44 -24 -96 -24q-49 0 -112.5 31.5t-108.5 31.5q-69 0 -108 -37v34q39 34 108 34q47 0 111.5 -31.5t109.5 -31.5
q58 0 96 29z" />
    <glyph glyph-name="divide.tf" 
d="M304 517q13 0 22.5 -9t9.5 -21q0 -13 -9 -22t-23 -9t-22.5 9t-8.5 22q0 12 9 21t22 9zM518 289h-425v32h425v-32zM304 152q13 0 22.5 -9.5t9.5 -21.5q0 -13 -9 -22t-23 -9t-22.5 9t-8.5 22q0 12 9 21.5t22 9.5z" />
    <glyph glyph-name="equal.tf" 
d="M518 391h-425v32h425v-32zM518 209h-425v32h425v-32z" />
    <glyph glyph-name="greater.tf" 
d="M449 308l-310 149v38l357 -173v-28l-357 -173v38z" />
    <glyph glyph-name="greaterequal.tf" 
d="M435 334l-296 120v37l346 -144v-26l-346 -144v36zM481 94h-342v31h342v-31z" />
    <glyph glyph-name="less.tf" 
d="M471 121l-357 173v28l357 173v-38l-310 -149l310 -149v-38z" />
    <glyph glyph-name="lessequal.tf" 
d="M472 177l-346 144v26l346 144v-37l-296 -120l296 -121v-36zM472 125v-31h-343v31h343z" />
    <glyph glyph-name="minus.tf" 
d="M518 289h-425v32h425v-32z" />
    <glyph glyph-name="multiply.tf" 
d="M329 305l146 -146l-24 -24l-146 146l-146 -146l-24 24l146 146l-146 146l24 24l146 -146l146 146l24 -24z" />
    <glyph glyph-name="notequal.tf" 
d="M373 391l-97 -150h242v-32h-263l-69 -105h-38l69 105h-124v32h145l97 150h-242v32h263l69 105h38l-69 -105h124v-32h-145z" />
    <glyph glyph-name="plus.tf" 
d="M518 289h-197v-197h-32v197h-196v32h196v197h32v-197h197v-32z" />
    <glyph glyph-name="plusminus.tf" 
d="M518 353v-31h-197v-185h-32v185h-196v31h196v187h32v-187h197zM93 32h425v-32h-425v32z" />
    <glyph glyph-name="bar.case" horiz-adv-x="236" 
d="M136 -41h-35v751h35v-751z" />
    <glyph glyph-name="at.case" horiz-adv-x="971" 
d="M488 721q173 0 290 -109.5t117 -278.5q0 -93 -37.5 -158.5t-113.5 -65.5q-51 0 -81 27t-30 72v6q-24 -46 -68.5 -72.5t-98.5 -26.5q-83 0 -139.5 56.5t-56.5 146.5t56.5 147t139.5 57q54 0 98.5 -26.5t68.5 -73.5v90h28v-304q0 -34 23 -54.5t61 -20.5q60 0 90.5 58.5
t30.5 141.5q0 158 -108.5 260t-269.5 102q-165 0 -274 -105.5t-109 -265.5t107 -267t260 -107q59 0 125 17t111 46l15 -24q-46 -31 -116 -48.5t-133 -17.5q-167 0 -282.5 113.5t-115.5 286.5t117.5 285.5t294.5 112.5zM468 142q70 0 117.5 49t47.5 128q0 78 -47.5 126
t-117.5 48t-119 -48t-49 -126q0 -79 49 -128t119 -49z" />
    <glyph glyph-name="caron.alt" horiz-adv-x="600" 
d="M305 497h-28v153h36z" />
  </font>
</defs>
</svg>
