<svg xmlns="http://www.w3.org/2000/svg" width="449.981" height="595.004" viewBox="0 0 449.981 595.004">
  <g id="ilustração" transform="translate(-1089.007 -202.986)">
    <path id="Forma_2" data-name="Forma 2" d="M1474.823,422.553c-2.028-5.046-3.748-10.127-5.4-15.305-22.166-70.253-22.7-175.419-101.879-200.012-55.3-17.27-97.917,20.757-128.364,65.94-30.136,44.659-56.284,99.458-79.6,148.631a738.382,738.382,0,0,0-44.227,118.648c-18.669,67.079-47.6,149.7-1.845,212.226,44.147,60.248,115.88,49.3,175.213,30.185,48.042-15.508,95.245-40.671,138.447-68.094,43.066-27.22,95.4-48.5,108.876-107.81,11.692-51.956-13.724-88.307-35.753-129.726a529.269,529.269,0,0,1-25.466-54.683" fill="#f0f8ff"/>
    <g id="Objeto_Inteligente_de_Vetor1" data-name="Objeto Inteligente de Vetor1" transform="translate(711.651 96.976)">
      <g id="Grupo_15" data-name="Grupo 15">
        <g id="Grupo_14" data-name="Grupo 14">
          <path id="Caminho_51" data-name="Caminho 51" d="M791.781,656.024H413.917c-1.419,0-2.568-.865-2.568-1.932s1.149-1.932,2.568-1.932H791.781c1.418,0,2.568.865,2.568,1.932S793.2,656.024,791.781,656.024Z" fill="#2e578b"/>
          <path id="Caminho_52" data-name="Caminho 52" d="M578.079,655.617h49.539V141.576c0-14.112-11.09-25.552-24.769-25.552h0c-13.68,0-24.769,11.44-24.769,25.552Z" fill="#2e578b"/>
          <g id="Grupo_7" data-name="Grupo 7">
            <path id="Caminho_53" data-name="Caminho 53" d="M592.78,480.861a2.5,2.5,0,0,1-2.464-2.542V432.906a2.466,2.466,0,1,1,4.929,0v45.413A2.5,2.5,0,0,1,592.78,480.861Z" fill="#fff"/>
          </g>
          <path id="Caminho_54" data-name="Caminho 54" d="M692.744,289.369l-188.817,8.576a4.333,4.333,0,0,0-3.29,1.779l-29.815,40.534L505.513,376.3a4.289,4.289,0,0,0,3.635,1.3l187.894-23.822A4.474,4.474,0,0,0,700.87,349L697.3,293.575A4.423,4.423,0,0,0,692.744,289.369Z" fill="#fff"/>
          <path id="Caminho_55" data-name="Caminho 55" d="M508.6,379.994a6.507,6.507,0,0,1-4.712-2.032L471.873,344.7a7.068,7.068,0,0,1-.578-9L498.812,298.3a6.584,6.584,0,0,1,5.013-2.711l188.817-8.576a6.773,6.773,0,0,1,6.942,6.41l3.571,55.423a6.821,6.821,0,0,1-5.835,7.278L509.426,379.941A6.607,6.607,0,0,1,508.6,379.994Zm184.245-88.263-188.816,8.576a2.055,2.055,0,0,0-1.566.847l-27.519,37.411a2.208,2.208,0,0,0,.182,2.809l32.015,33.258a2.021,2.021,0,0,0,1.728.618l187.894-23.822a2.13,2.13,0,0,0,1.821-2.272l-3.572-55.423a2.105,2.105,0,0,0-2.167-2Z" fill="#4480c5"/>
          <path id="Caminho_56" data-name="Caminho 56" d="M504.991,422.689l184.528-13.811a4.639,4.639,0,0,1,3.574,1.309l34.319,33.279a4.977,4.977,0,0,1,.266,6.815L696.7,485.568a4.664,4.664,0,0,1-3.262,1.594l-184.56,9.545a4.776,4.776,0,0,1-4.949-4.6l-3.312-64.3A4.818,4.818,0,0,1,504.991,422.689Z" fill="#fff"/>
          <path id="Caminho_57" data-name="Caminho 57" d="M508.64,499.265a7.305,7.305,0,0,1-7.179-7.025l-3.316-64.365a7.319,7.319,0,0,1,6.564-7.787l91.1-8.116,93.6-5.672a7.085,7.085,0,0,1,5.348,2l34.348,33.306a7.626,7.626,0,0,1,.4,10.387l-30.974,35.287a7.064,7.064,0,0,1-4.971,2.43L509,499.256C508.883,499.262,508.761,499.265,508.64,499.265Zm181.191-87.873q-.065,0-.129,0l-93.538,5.667-91.029,8.11a2.284,2.284,0,0,0-2.048,2.431h0l3.315,64.364a2.264,2.264,0,0,0,2.354,2.192l184.56-9.545a2.235,2.235,0,0,0,1.551-.759l30.975-35.287a2.381,2.381,0,0,0-.126-3.243l-34.347-33.306A2.221,2.221,0,0,0,689.831,411.391Z" fill="#4480c5"/>
          <path id="Caminho_58" data-name="Caminho 58" d="M502.364,168.265a4.7,4.7,0,0,1,4.944-4.5L598.52,170l93.847,4.753a4.6,4.6,0,0,1,3.444,1.851l30.062,40.032a4.9,4.9,0,0,1-.7,6.611l-33.644,28.988a4.555,4.555,0,0,1-3.285,1.1l-94.03-6.431-91.3-4.624a4.738,4.738,0,0,1-4.409-5.061Z" fill="#fff"/>
          <path id="Caminho_59" data-name="Caminho 59" d="M686.766,255.859c-.157,0-.315,0-.473-.016l-94.03-6.431L501,244.792a6.947,6.947,0,0,1-4.918-2.413,7.389,7.389,0,0,1-1.8-5.3l3.855-68.957h0a7.344,7.344,0,0,1,2.38-5.052,6.919,6.919,0,0,1,5.155-1.814l91.212,6.237,93.8,4.75a7.007,7.007,0,0,1,5.25,2.822L726,215.1a7.437,7.437,0,0,1-1.059,10.077L691.3,254.162A6.923,6.923,0,0,1,686.766,255.859ZM505.2,166.261a2.153,2.153,0,0,0-1.46.571A2.294,2.294,0,0,0,503,168.41h0l-3.855,68.957a2.306,2.306,0,0,0,.562,1.655,2.171,2.171,0,0,0,1.536.753l91.3,4.624,94.069,6.432a2.131,2.131,0,0,0,1.564-.524l33.643-28.99a2.32,2.32,0,0,0,.331-3.146L692.09,178.14a2.187,2.187,0,0,0-1.64-.882L596.6,172.506l-91.253-6.24C505.3,166.262,505.252,166.261,505.2,166.261Z" fill="#4480c5"/>
          <g id="Grupo_8" data-name="Grupo 8">
            <path id="Caminho_60" data-name="Caminho 60" d="M602.849,477.87a6.018,6.018,0,1,1,5.831-6.016A5.932,5.932,0,0,1,602.849,477.87Z" fill="#2e578b"/>
          </g>
          <g id="Grupo_9" data-name="Grupo 9">
            <path id="Caminho_61" data-name="Caminho 61" d="M602.849,440.45a6.019,6.019,0,1,1,5.831-6.016A5.933,5.933,0,0,1,602.849,440.45Z" fill="#2e578b"/>
          </g>
          <g id="Grupo_10" data-name="Grupo 10">
            <path id="Caminho_62" data-name="Caminho 62" d="M602.849,354.8a6.019,6.019,0,1,1,5.831-6.016A5.933,5.933,0,0,1,602.849,354.8Z" fill="#2e578b"/>
          </g>
          <g id="Grupo_11" data-name="Grupo 11">
            <path id="Caminho_63" data-name="Caminho 63" d="M602.849,316.469a6.018,6.018,0,1,1,5.831-6.015A5.931,5.931,0,0,1,602.849,316.469Z" fill="#2e578b"/>
          </g>
          <g id="Grupo_12" data-name="Grupo 12">
            <path id="Caminho_64" data-name="Caminho 64" d="M602.849,194a6.018,6.018,0,1,1,5.831-6.016A5.932,5.932,0,0,1,602.849,194Z" fill="#2e578b"/>
          </g>
          <g id="Grupo_13" data-name="Grupo 13">
            <path id="Caminho_65" data-name="Caminho 65" d="M602.849,235.549a6.018,6.018,0,1,1,5.831-6.015A5.932,5.932,0,0,1,602.849,235.549Z" fill="#2e578b"/>
          </g>
        </g>
      </g>
    </g>
  </g>
</svg>
