<svg xmlns="http://www.w3.org/2000/svg" width="215" height="38" viewBox="0 0 215 38">
  <g id="Default-Default" transform="translate(-7.921 -4.167)">
    <g id="LightBlue_Snappy" data-name="LightBlue Snappy">
      <g id="Back_Leg" data-name="Back Leg">
        <path id="Caminho_1" data-name="Caminho 1" d="M28.7,31.992c-1.071,1.042-2.141,2.463-3.212,3.505.514,2.717-.492,3.914.72,4.887.438.351,3.1,1.1,4.59.232.034-1.41-.734-1.829-1.552-2.359-.827-1.788-.53-4.505-.547-6.266" fill="#4580c2" fill-rule="evenodd"/>
        <path id="Caminho_2" data-name="Caminho 2" d="M29.313,41.011A2.451,2.451,0,0,0,27.8,39.225a1.988,1.988,0,0,1,.94,1.79A5.672,5.672,0,0,0,29.313,41.011Z" fill="#2e578c" fill-rule="evenodd"/>
        <path id="Caminho_3" data-name="Caminho 3" d="M30.591,40.723a2.446,2.446,0,0,0-1.5-1.757,1.961,1.961,0,0,1,.922,1.95A2.963,2.963,0,0,0,30.591,40.723Z" fill="#2e578c" fill-rule="evenodd"/>
      </g>
      <g id="Back_Arm" data-name="Back Arm">
        <path id="Caminho_4" data-name="Caminho 4" d="M27.446,17.923c-.551.807-.8,2.506,3.6,4.993a38.175,38.175,0,0,1-2.433,3.8,2.69,2.69,0,0,0-.37,2.937,6.976,6.976,0,0,0,1.012,1.136,4.241,4.241,0,0,0,2.083-.078,2.846,2.846,0,0,0,.418-3.143s3.708-3.906,3.475-5.081S29.2,15.358,27.446,17.923Z" fill="#4580c2" fill-rule="evenodd"/>
        <path id="Caminho_5" data-name="Caminho 5" d="M31.758,27.566s-1.5,1.246-1.88,1.462a4.39,4.39,0,0,0,.874-.38s.666.82.178,1.512a1.2,1.2,0,0,0,.3-1.706,7.067,7.067,0,0,0,.55-.807Z" fill="#2e578c" fill-rule="evenodd"/>
      </g>
      <g id="Body">
        <g id="Tail_Spines" data-name="Tail Spines">
          <path id="Caminho_6" data-name="Caminho 6" d="M16.283,26.843a1.615,1.615,0,0,1-.255.813c-.253.4-.4.356.232.7a4.742,4.742,0,0,0,1.5.469c.89.146.682.046.289-.791a7.011,7.011,0,0,0-.607-1.077c-.861-1.213-1.126-1.131-1.162-.118" fill="#4580c2" fill-rule="evenodd"/>
          <path id="Caminho_7" data-name="Caminho 7" d="M13.128,26.425c-.323.606.173.7.812.926a3.245,3.245,0,0,0,.734.165c.72.078.533-.027.218-.612a10.718,10.718,0,0,0-.636-1.041c-1.257-1.819-.656-.325-1.129.562" fill="#4580c2" fill-rule="evenodd"/>
          <path id="Caminho_8" data-name="Caminho 8" d="M10.406,26.152a3.4,3.4,0,0,1-.015.418c-.048.5-.1.419.517.475a3.591,3.591,0,0,0,.828-.008c.792-.12.5-.4.091-.86a3.488,3.488,0,0,0-.467-.437c-1.565-1.212-.975-.36-.954.413" fill="#4580c2" fill-rule="evenodd"/>
        </g>
        <path id="Caminho_9" data-name="Caminho 9" d="M20.884,8.4S16.4,10.721,16.44,11.456s1.264.636,1.758,1.629c0,0-2.746,1.907-2.568,2.781s1.936.556,2.39,1.252c0,0-.434,1.74-.039,2.375s.336.088.888.9A31.783,31.783,0,0,1,20.884,8.4Z" fill="#4580c2" fill-rule="evenodd"/>
        <path id="Caminho_10" data-name="Caminho 10" d="M19.943,10.509a33.509,33.509,0,0,0,5.394,3.627,11.948,11.948,0,0,1,3.255,2.883c1.089,1.467.463,3.194.712,4.992.085.612.126,1.231.151,1.848a23.92,23.92,0,0,1-.1,3.371c-.274,2.682-.412,4.863-2.29,6.869-2.348,2.508-4.817,2.958-7.747.793a14.432,14.432,0,0,1-2.915-2.3c-.6-.7-1.347-1.154-1.994-1.813a9.334,9.334,0,0,0-2.879-2.091A2.8,2.8,0,0,0,9.06,29.1c-.289.132-.682.389-1,.133a.334.334,0,0,1-.11-.4,2.961,2.961,0,0,1,.739-1.056,5.867,5.867,0,0,1,6.6-.507,6.574,6.574,0,0,0,2.553.965,2.425,2.425,0,0,0,1.793-.513,2.379,2.379,0,0,0,.735-1.379,4.273,4.273,0,0,0-.154-2.215c-.339-1.023-.948-1.953-1.34-2.962-1.341-3.443-1.776-7.366.38-10.583l.3-.446Z" fill="#4580c2" fill-rule="evenodd"/>
        <g id="Grupo_1" data-name="Grupo 1">
          <path id="Caminho_11" data-name="Caminho 11" d="M11.9,28.843a17.34,17.34,0,0,1,4.66,4.307c2.015,2.406,7.052,5.953,11.208.38,3.915-5.25,2.071-12.607,1.844-13.444L29.587,20c-.132-.171-3.622-4.65-6.82-5.309-.853.745-1.018,2.056.117,4.317,1.91,3.8,3.437,9.35.042,12.757a4.6,4.6,0,0,1-1.809,1.148c-2.414.8-3.692-.672-5.2-2.092A7.28,7.28,0,0,0,11.9,28.843Z" fill="#fbce3b" fill-rule="evenodd"/>
          <path id="Caminho_12" data-name="Caminho 12" d="M28.237,32.85A8.032,8.032,0,0,1,24.2,31.19a5.588,5.588,0,0,0,3.566,2.339C27.936,33.307,28.09,33.079,28.237,32.85Z" fill="#eca93e" fill-rule="evenodd"/>
          <path id="Caminho_13" data-name="Caminho 13" d="M21.445,33.187a9.412,9.412,0,0,0,2.434,3.177,5.254,5.254,0,0,0,.958-.324A7.785,7.785,0,0,1,21.445,33.187Z" fill="#eca93e" fill-rule="evenodd"/>
          <path id="Caminho_14" data-name="Caminho 14" d="M16.313,32.857q.125.145.248.293c.037.045.076.09.116.135a1.69,1.69,0,0,1,.109-1.068A5.7,5.7,0,0,0,16.313,32.857Z" fill="#eca93e" fill-rule="evenodd"/>
          <path id="Caminho_15" data-name="Caminho 15" d="M17.989,34.557q.262.215.545.419a2.566,2.566,0,0,1,.019-1.6A5.871,5.871,0,0,0,17.989,34.557Z" fill="#eca93e" fill-rule="evenodd"/>
          <path id="Caminho_16" data-name="Caminho 16" d="M14.7,31.094q.193.2.387.4a3.443,3.443,0,0,1,.09-.842A4.039,4.039,0,0,0,14.7,31.094Z" fill="#edb248" fill-rule="evenodd"/>
          <path id="Caminho_17" data-name="Caminho 17" d="M25.285,28.276a8.079,8.079,0,0,1,4.689-.006c.04-.219.075-.438.1-.655A5.753,5.753,0,0,0,25.285,28.276Z" fill="#eca93e" fill-rule="evenodd"/>
          <path id="Caminho_18" data-name="Caminho 18" d="M30.172,23.447c-.022-.265-.048-.519-.077-.761h0A7.163,7.163,0,0,0,25.164,24.2,7.9,7.9,0,0,1,30.172,23.447Z" fill="#eca93e" fill-rule="evenodd"/>
          <path id="Caminho_19" data-name="Caminho 19" d="M28.887,19.159c-.127-.145-.269-.3-.424-.473-3.459,0-4.392,1.616-4.392,1.616A7.608,7.608,0,0,1,28.887,19.159Z" fill="#eca93e" fill-rule="evenodd"/>
          <path id="Caminho_20" data-name="Caminho 20" d="M30.125,22.946a20.672,20.672,0,0,0-.383-2.336c-.083-.05-.166-.1-.247-.155-1.106-.724-5.961-3.689-7.387-4.539a2.891,2.891,0,0,0-.015.655C23.6,18.663,26.956,22.224,30.125,22.946Z" fill="#eca93e" fill-rule="evenodd"/>
        </g>
      </g>
      <g id="Front_Leg" data-name="Front Leg">
        <path id="Caminho_21" data-name="Caminho 21" d="M19.107,31.447a2.2,2.2,0,0,1,2-.968c2.224.292,1.521,2.938.987,4.5a12.751,12.751,0,0,0-.63,3.474c0,1.538.584,2-.127,2.6a6.019,6.019,0,0,1-3.882,1.089c-1.235-.281-1.269-2.836.7-3.488a7.849,7.849,0,0,0,.48-3.685c-.029-.861-.1-2.671.469-3.521" fill="#4580c2" fill-rule="evenodd"/>
        <path id="Caminho_22" data-name="Caminho 22" d="M18.632,42.116c.175-.025.349-.058.52-.1a2.286,2.286,0,0,1,.614-2.068A2.462,2.462,0,0,0,18.632,42.116Z" fill="#2e578c" fill-rule="evenodd"/>
        <path id="Caminho_23" data-name="Caminho 23" d="M17.438,42.134a2.621,2.621,0,0,1,.6-2.3,2.367,2.367,0,0,0-1.118,1.98A1,1,0,0,0,17.438,42.134Z" fill="#2e578c" fill-rule="evenodd"/>
      </g>
      <g id="Front_Arm" data-name="Front Arm">
        <path id="Caminho_24" data-name="Caminho 24" d="M18.583,28.213s-.257,1.48.741,1.976a2,2,0,0,0,2.4-.194c.716-.864,1.777-2.649-1.1-4.387-1.775-1.074-1.867,2.574-1.867,2.574Z" fill="#2e578c" fill-rule="evenodd"/>
        <path id="Caminho_25" data-name="Caminho 25" d="M18.828,21.116c.375.817.712,1.449.728,1.505,0,0,2.321-2.891,1.889-3.369C20.967,18.724,19.19,20.476,18.828,21.116Z" fill="#2e578c" fill-rule="evenodd"/>
        <path id="Caminho_26" data-name="Caminho 26" d="M21.086,16.885C23.575,19.3,18.405,22.5,18.405,22.5a9.161,9.161,0,0,1,1.807,2.473c.533.894.741.745,1.392,1.49S20.4,28.316,20.4,28.316s-6.219-3.381-6.2-5.546A16.209,16.209,0,0,1,17.1,18.6C17.835,17.848,19.9,15.73,21.086,16.885Z" fill="#4580c2" fill-rule="evenodd"/>
        <path id="Caminho_27" data-name="Caminho 27" d="M18.672,27.11s-.465,2.3.9,2.975a3.164,3.164,0,0,0,1.673-.333s1.4-2.165.356-3.287S18.672,27.11,18.672,27.11Z" fill="#4580c2" fill-rule="evenodd"/>
        <path id="Caminho_28" data-name="Caminho 28" d="M18.642,27.274s1.8.97,2.112,1.059a1.672,1.672,0,0,1-.919-.139s-.463.882.073,1.433c0,0-.826-.148-.53-1.534l-.75-.78Z" fill="#2e578c" fill-rule="evenodd"/>
      </g>
      <g id="Head">
        <path id="Caminho_29" data-name="Caminho 29" d="M20.256,9.814s.936-5.55,3.227-5.645c1.505-.063,2.264,1.868,2.264,1.868a4.789,4.789,0,0,1,2.6.777s.42-.764,1.139-.518,1.491,1.854,1.206,4.5a2.282,2.282,0,0,1,1.64,1.132,1.213,1.213,0,0,1-.786.5c-.474.041-2.521-.709-3.077-.218a1.784,1.784,0,0,0-.732,1.759,5.405,5.405,0,0,1-3.267-1.513C23.455,11.164,22.6,8.655,20.256,9.814Z" fill="#4580c2" fill-rule="evenodd"/>
        <path id="Caminho_30" data-name="Caminho 30" d="M28.044,10.214s.563-1.862,1.644-2.384a20.255,20.255,0,0,0,.291,2.692A16.13,16.13,0,0,0,28.044,10.214Z" fill="#f1f1f2"/>
        <path id="Caminho_31" data-name="Caminho 31" d="M23.151,6.4s1.392.67,2.311,3.576a19.822,19.822,0,0,0-3.155-.283A7.63,7.63,0,0,0,23.151,6.4Z" fill="#f1f1f2"/>
        <path id="Caminho_32" data-name="Caminho 32" d="M23.729,7.684c.339,0,.615.381.615.852s-.275.851-.615.851-.615-.381-.615-.851.275-.852.615-.852" fill="#2e578c" fill-rule="evenodd"/>
        <path id="Caminho_33" data-name="Caminho 33" d="M28.922,9.948c.268,0,.485-.289.485-.645s-.217-.645-.485-.645a.372.372,0,0,0-.148.034,1.724,1.724,0,0,0-.333.564c0,.015,0,.03,0,.047C28.438,9.659,28.655,9.948,28.922,9.948Z" fill="#2e578c" fill-rule="evenodd"/>
        <path id="Caminho_34" data-name="Caminho 34" d="M22.825,11.282s-.948-1.1-1.867-.209c-.76.74-.192,1.982-.192,1.982s.055-1.072.548-1c0,0,.415,2.667,4.3,5.334s4.962,2.428,5.807,2.205,1.807-.656,1.481-1.341a14.772,14.772,0,0,0-2.311-2.384,2.818,2.818,0,0,1-2.577.074,14.182,14.182,0,0,1-5.9-4.44s.078-.5.654-.22" fill="#f68b51" fill-rule="evenodd"/>
        <path id="Caminho_35" data-name="Caminho 35" d="M22.307,14.317a6.559,6.559,0,0,1,6.083,1.649l-.434-.238s1.995-.1,2.271.179a4.753,4.753,0,0,1,2.064,3.526c.06.686-1.556,1.072-5.145-.725C24.908,17.586,22.307,14.317,22.307,14.317Z" fill="#f26a23" fill-rule="evenodd"/>
        <g id="Grupo_2" data-name="Grupo 2">
          <path id="Caminho_36" data-name="Caminho 36" d="M26.673,14.773l.083.041Z" fill="#c56428" fill-rule="evenodd"/>
        </g>
        <path id="Caminho_37" data-name="Caminho 37" d="M30.424,15.857s-.483,1.994-1.23,1.773c-.252-.075-.148-.641-.252-1.028s-.385-1.132-.385-1.132Z" fill="#ebeef2" fill-rule="evenodd"/>
        <path id="Caminho_38" data-name="Caminho 38" d="M34.121,15.1s-.156,2.046-.928,1.949c-.26-.032-.249-.608-.414-.973s-.562-1.055-.562-1.055Z" fill="#ebeef2" fill-rule="evenodd"/>
        <path id="Caminho_39" data-name="Caminho 39" d="M34.942,13.309c-.1-1.439-1.989-2.073-3.374-1.059-1.133-.254-2.393-1.014-3.526.126a1.312,1.312,0,0,0-.343,1.583s-2.355-.382-3.17-1.589-1.867-2.821-3.022-2.935a1.955,1.955,0,0,0-2.222,1.013c-.593,1.162-.889,3.263,3.5,6.585s6.319,4.218,7.273,4.216c1.219,0,1.294-.457,2.7-.655.716-.1,1.259-1.326.474-2.384a14.226,14.226,0,0,0-2.637-2.339A14.772,14.772,0,0,1,32.9,18.255c.326.685-.637,1.117-1.481,1.341s-1.925.462-5.807-2.205-4.3-5.334-4.3-5.334c-.493-.073-.548,1-.548,1s-.568-1.242.192-1.982c.919-.894,1.867.209,1.867.209l-.057,0c-.576-.279-.654.22-.654.22a14.182,14.182,0,0,0,5.9,4.44,2.818,2.818,0,0,0,2.577-.074,16.27,16.27,0,0,0,2.4-.194A2.1,2.1,0,0,0,34.942,13.309Z" fill="#fbce3b" fill-rule="evenodd"/>
        <path id="Caminho_40" data-name="Caminho 40" d="M29.314,13.156c.394-.128.7.407.178.64-.073.2.044.412.363.488a.627.627,0,0,1-.541-1.129" fill="#eca93e" fill-rule="evenodd"/>
        <path id="Caminho_41" data-name="Caminho 41" d="M33.769,12.992c-.326-.106-.576.336-.147.528.06.163-.036.34-.3.4a.518.518,0,0,0,.447-.931" fill="#eca93e" fill-rule="evenodd"/>
      </g>
    </g>
    <g id="Grupo_6" data-name="Grupo 6">
      <path id="Caminho_42" data-name="Caminho 42" d="M94.794,29.8c.266,1.646,1.751,2.259,3.387,2.259,1.6,0,2.876-.69,2.914-1.531.057-1.272-.935-2.028-2.343-2.3-.971-.188-3.882-.766-3.882-.766-3.54-.651-5.557-1.682-5.557-4.706,0-3.944,3.388-6.509,8.222-6.509,4.758,0,7.917,2.182,8.679,5.514l-5.557,1.11a2.968,2.968,0,0,0-3.2-2.259c-1.637,0-2.456.692-2.609,1.493-.1.527.153.966,1.885,1.34,1.121.243,4.492.919,4.492.919,3.616.766,5.291,2.948,5.291,5.781,0,4.25-3.654,6.471-8.679,6.471-4.491,0-8.336-1.646-8.983-5.59Z" fill="#f68b51"/>
      <g id="Grupo_5" data-name="Grupo 5">
        <path id="Caminho_43" data-name="Caminho 43" d="M150.312,21.06a18.794,18.794,0,0,1,.153,2.346c0,7.807-5.544,13.422-13.267,13.422a13.463,13.463,0,1,1-.115-26.921c5.7,0,10.706,2.692,12.5,7.73l-6.08,1.769a6.589,6.589,0,0,0-6.423-3.692,7.358,7.358,0,0,0-7.341,7.653,7.454,7.454,0,0,0,7.532,7.692,6.72,6.72,0,0,0,6.767-4.615H136.2V21.06Z" fill="#f68b51"/>
        <g id="Text-Default">
          <g id="Grupo_4" data-name="Grupo 4">
            <g id="Grupo_3" data-name="Grupo 3">
              <path id="Caminho_44" data-name="Caminho 44" d="M65.77,35.813H59.5V25.621H48.717V35.813H42.408V10.046h6.309V20.083H59.5V10.046h6.27Z" fill="#f68b51"/>
              <path id="Caminho_45" data-name="Caminho 45" d="M88.479,26.16c0,6.115-4.818,10.192-10.514,10.192-5.812,0-10.629-4.077-10.629-10.192,0-6.076,4.818-10.153,10.629-10.153C83.662,16.007,88.479,20.083,88.479,26.16Zm-5.888,0a4.694,4.694,0,1,0-9.367,0,4.694,4.694,0,1,0,9.367,0Z" fill="#f68b51"/>
              <path id="Caminho_46" data-name="Caminho 46" d="M123.594,34.967a10.38,10.38,0,0,1-5.239,1.423c-4.779,0-7.647-2.615-7.647-7.692V21.391H107.23V16.507h3.479V11.371l6.118-1.326v6.461h5.658v4.884h-5.658v6.692c0,2,.956,2.808,2.561,2.808a6.218,6.218,0,0,0,2.791-.769Z" fill="#f68b51"/>
              <path id="Caminho_47" data-name="Caminho 47" d="M169.817,23.583v12.23h-5.888V34.39a8.451,8.451,0,0,1-5.735,2c-4.282,0-7.15-2.5-7.15-6.307,0-3.769,2.868-6.23,7.991-6.23h4.894v-.385a2.566,2.566,0,0,0-2.714-2.692c-1.836,0-2.906.73-3.212,2.423l-5.774-1.192c.841-3.731,4.206-6.076,8.794-6.076C166.414,15.93,169.817,18.66,169.817,23.583ZM163.929,28.2v-.423h-4.206c-1.529,0-2.485.808-2.485,2,0,1.231,1.07,2,2.676,2A3.768,3.768,0,0,0,163.929,28.2Z" fill="#f68b51"/>
              <path id="Caminho_48" data-name="Caminho 48" d="M187.1,34.967a10.379,10.379,0,0,1-5.238,1.423c-4.779,0-7.647-2.615-7.647-7.692V21.391h-3.48V16.507h3.48V11.371l6.118-1.326v6.461h5.658v4.884H180.33v6.692c0,2,.955,2.808,2.561,2.808a6.221,6.221,0,0,0,2.791-.769Z" fill="#f68b51"/>
              <path id="Caminho_49" data-name="Caminho 49" d="M207.284,26.16c0,6.115-4.818,10.192-10.514,10.192-5.812,0-10.629-4.077-10.629-10.192,0-6.076,4.818-10.153,10.629-10.153C202.467,16.007,207.284,20.083,207.284,26.16Zm-5.888,0a4.694,4.694,0,1,0-9.367,0,4.694,4.694,0,1,0,9.367,0Z" fill="#f68b51"/>
              <path id="Caminho_50" data-name="Caminho 50" d="M222.921,16.391l-.268,6.153h-1.109c-4.282,0-6.615,2.231-6.615,7.231v6.038h-6.118V17.833l6.118-1.326V20.2a7.408,7.408,0,0,1,6.615-3.961A5.216,5.216,0,0,1,222.921,16.391Z" fill="#f68b51"/>
            </g>
          </g>
        </g>
      </g>
    </g>
  </g>
</svg>
